<svg xmlns="http://www.w3.org/2000/svg" width="256" height="256"><path fill="#1976D2" fill-opacity=".016" fill-rule="evenodd" d="M0 128.004v128.004l128.25-.254 128.25-.254.254-127.75L257.008 0H0zm.485.496c0 70.4.119 99.053.265 63.672s.146-92.98 0-128S.485 58.1.485 128.5"/><path fill="#1976D2" fill-opacity=".303" fill-rule="evenodd" d="M234.785 26.717c-.872.98-2.253 3.4-3.069 5.376-1.153 2.794-4.703 5.96-15.979 14.25C207.764 52.204 200.607 57 199.832 57s-7.216 4.925-14.312 10.944l-12.902 10.945-2.559-1.969c-11.16-8.583-22.707-14.67-34.059-17.953-10.7-3.094-31.621-3.83-43.09-1.516-31.937 6.446-58.45 29.659-69.049 60.456-2.858 8.302-2.184 8.324 2.168.069C38.047 95.18 60.224 77.125 85 69.966c9.645-2.787 31.997-3.823 42.396-1.964 11.908 2.128 28.344 8.467 35.003 13.501 1.844 1.394 1.829 1.493-.5 3.433-2.134 1.777-3.778 1.986-14.899 1.89-10.172-.088-11.476-.249-7-.868 3.025-.418 7.863-.805 10.75-.859s5.25-.487 5.25-.96c0-.474-3.461-2.314-7.691-4.09-33.926-14.241-69.592-8.931-97.656 14.537-4.789 4.005-6.442 5.939-5.5 6.433.741.388 15.072 2.005 31.847 3.594l30.5 2.887-34.953.5-34.953.5-2.977 4.237c-1.637 2.33-2.77 4.443-2.517 4.697.253.253 4.497.873 9.43 1.378l8.97.919-10.313.134-10.312.135-2.805 6.25c-3.692 8.228-5.428 13.726-4.596 14.557.37.37 10.202 1.633 21.849 2.806l21.177 2.133-22.67.127-22.671.127-.712 6.652c-1.107 10.332.116 27.853 2.536 36.348 1.175 4.125 4.088 11.416 6.472 16.202 2.73 5.48 3.911 8.844 3.19 9.087-.813.274-.747.868.227 2.048 1.176 1.425 1.152 1.663-.168 1.663-3.23 0-4.696-1.185-4.15-3.354.51-2.028.238-2.127-4.968-1.806-4.436.274-5.631.725-6.136 2.316-1.132 3.568-6.202 8.386-11.371 10.807C2.286 227.271 0 228.715 0 229.171s53.775.829 119.5.829 119.5-.201 119.5-.446c0-.246-2.803-1.469-6.23-2.718-4.02-1.466-8.147-4.008-11.635-7.166-5.312-4.811-5.493-4.885-10.52-4.31-2.813.322-6.595.877-8.404 1.232-2.379.468-3.808.177-5.163-1.048-1.764-1.597-1.9-1.589-2.344.131-.26 1.004-.524-.05-.588-2.342-.064-2.291-.567-4.317-1.118-4.5-.556-.186.223-2.954 1.747-6.21l2.749-5.876 15.503.495 15.503.495 4.143-4.274c4.569-4.715 7.713-11.965 8.864-20.444.449-3.308 1.686-6.716 3.119-8.595 2.802-3.674 2.87-4.219.806-6.499-2.202-2.433-.04-5.729 4.021-6.127 3.776-.371 4.531-3.122 1.688-6.148-1.123-1.195-2.318-3.967-2.656-6.161-.602-3.899 1.966-33.792 3.054-35.551.302-.489.704-6.188.893-12.664.256-8.762.808-12.742 2.158-15.558 1.696-3.54 1.714-4.257.279-11.125-1.354-6.481-1.368-8.654-.113-18.558l1.42-11.216-2.321-2.471c-3.542-3.771-7.884-6.043-12.92-6.762-3.67-.523-4.875-.302-6.15 1.133m9.758 8.533c-2.387 20.86-8.705 80.464-9.088 85.75-1.169 16.091.853 1.189 4.951-36.5 5.845-53.749 5.917-54.5 5.282-54.5-.299 0-.814 2.362-1.145 5.25m-30.49 17.173c-6.295 4.541-11.637 8.892-11.87 9.667s-1.382 2.221-2.553 3.213c-1.187 1.004.724.401 4.315-1.363 3.544-1.741 7.228-4.162 8.186-5.379 1.091-1.387 3.821-2.68 7.305-3.459 4.831-1.081 5.564-1.557 5.564-3.609 0-1.299.439-3.517.975-4.928.537-1.411.649-2.528.25-2.482s-5.876 3.798-12.172 8.34M221 57.168c-3.575 1.089-6.994 2.614-7.598 3.389-.603.775-13.048 7.682-27.656 15.351-36.534 19.179-43.336 23.768-47.815 32.254-.679 1.286.884-.006 3.473-2.871 5.799-6.417 13.43-11.106 44.096-27.096 13.2-6.882 24.926-13.339 26.059-14.349C214.085 61.594 227.288 57 231.234 57c1.668 0 2.623-.422 2.266-1-.907-1.468-5.15-1.072-12.5 1.168m-13 28.963a8955 8955 0 0 1-17.931 10.805c-1.174.694-.761 2.122 2.303 7.951 3.851 7.329 7.628 17.233 7.628 20.001 0 .866-1.718-1.845-3.817-6.023C191.774 110.089 185.38 101 183.615 101c-.668 0-1.706.491-2.306 1.091-.788.788.232 2.839 3.674 7.387 2.621 3.462 6.425 9.609 8.453 13.659l3.689 7.363-4.313.644c-2.371.355-8.812 1.03-14.312 1.5l-10 .856 14.97.5 14.97.5 1.08 3.856c.808 2.886 1.874 4.19 4.234 5.183 4.553 1.914 13.826.829 18.496-2.164l3.75-2.403-.07-29.736c-.039-16.355-.376-30.485-.75-31.4-.569-1.393-3.367-.042-17.18 8.295M106.185 132.75l.185 5.75.367-5.25c.202-2.887.814-5.25 1.36-5.25 3.76 0 13.859 3.447 14.235 4.858.321 1.21.467 1.098.552-.425.099-1.767-.936-2.313-7.134-3.763-10.167-2.378-9.778-2.544-9.565 4.08m17.189 13.75c.002 6.05.167 8.396.366 5.213.199-3.182.197-8.132-.004-11-.201-2.867-.364-.263-.362 5.787m-36.046 2c.005 3.85.185 5.302.402 3.228.216-2.075.213-5.225-.008-7s-.398-.078-.394 3.772M99 150c-.901.582-1.025.975-.309.985.655.008 1.469-.435 1.809-.985.767-1.242.421-1.242-1.5 0m8 3.094c0 .498.9.906 2 .906s2-.173 2-.383-.9-.619-2-.907c-1.1-.287-2-.115-2 .384m6.75 1.568c.688.278 1.813.278 2.5 0 .688-.277.125-.504-1.25-.504s-1.937.227-1.25.504m-13.565 6.005c-.115 3.846-.655 6.356-1.435 6.671-.979.395-.972.521.031.583 1.869.115 2.38-1.978 1.961-8.04l-.372-5.381zm18.565-5.005c.688.278 1.813.278 2.5 0 .688-.277.125-.504-1.25-.504s-1.937.227-1.25.504m-21.937 1.021c.721.289 1.584.253 1.916-.079s-.258-.568-1.312-.525c-1.165.048-1.402.285-.604.604m-7 2c.721.289 1.584.253 1.916-.079s-.258-.568-1.312-.525c-1.165.048-1.402.285-.604.604m17.395 7.067c.273 7.254.437 7.759 2.557 7.883 1.885.111 1.927.057.25-.319-1.783-.401-2.015-1.252-2.015-7.384 0-3.866.434-6.93.981-6.93.54 0 4.118.538 7.952 1.195 6.703 1.15 6.984 1.312 7.358 4.25.376 2.953.394 2.938.549-.474l.16-3.529-7.758-1.221c-4.267-.672-8.336-1.221-9.042-1.221-.96 0-1.21 1.956-.992 7.75m-19.034 2.853c.896.896 2.109 1.464 2.695 1.263s-.147-.935-1.629-1.629c-2.491-1.168-2.572-1.14-1.066.366m35.826 4.34c0 .518-1.912 1.114-4.25 1.325l-4.25.383 4.75.174c3.633.134 4.75-.178 4.75-1.325 0-.825-.225-1.5-.5-1.5s-.5.424-.5.943m6 22.309c2.394 1.076 2.309 1.152-2 1.786-2.659.391-3.426.723-1.875.812 9.369.536 12.385 3.764 4.125 4.415l-4.75.375 4.781.18c6.468.244 6.832 1.634 3.322 12.68-.35 1.1.26.2 1.354-2 4.46-8.963 1.26-19.704-5.789-19.437-1.12.043-.847.433.832 1.189m42.357.248c.825.825 1.927 1.5 2.449 1.5 1.414 0 2.946 2.163 3.722 5.256.683 2.722.646 2.745-4.67 2.919l-5.358.174 4.5.389c5.555.479 6.155 1.036 5.152 4.786-.596 2.231-1.528 3.113-3.723 3.524l-2.929.547 2.851.583c2.514.514 3.016.188 4.25-2.765 3.593-8.6.26-18.413-6.254-18.413-1.315 0-1.314.176.01 1.5m-119.485 5.25c-1.269 1.619-1.222 1.64.628.283 1.1-.807 2.188-1.594 2.417-1.75s-.054-.283-.628-.283-1.662.787-2.417 1.75"/><path fill="#1976D2" fill-opacity=".411" fill-rule="evenodd" d="M235.831 26.043c-.918.531-2.404 2.876-3.303 5.211-1.416 3.679-3.628 5.715-16.57 15.246-8.214 6.05-15.728 11.165-16.697 11.366S192.325 62.597 186 67.932c-6.325 5.334-12.03 10.014-12.678 10.398-.667.396-4.045-1.471-7.792-4.307-14.639-11.081-31.378-16.892-51.03-17.717-14.237-.598-26.358 1.496-38.908 6.72-21.135 8.799-40.248 27.594-48.616 47.807-4.672 11.287-4.391 12.027 1.107 2.907 10.138-16.816 24.563-29.91 42.11-38.222 13.978-6.621 24.373-8.891 40.807-8.909 17.111-.019 26.996 2.303 42.791 10.05 9.296 4.56 11.084 5.786 10.125 6.943-.641.772-5.323 3.884-10.403 6.916-14.725 8.786-18.072 12.924-24.006 29.673-2.301 6.495-2.979 7.545-4.366 6.755-.902-.514-6.681-2.064-12.841-3.445l-11.2-2.511-5.3 2.075c-10.962 4.293-16.688 7.2-17.315 8.792-.356.904-.858 5.918-1.116 11.143-.816 16.51-.217 15.364-9.131 17.456-4.256.999-9.876 2.448-12.488 3.219L51 165.077v11.493c0 8.88.315 11.614 1.388 12.025.763.293 1.642 1.806 1.953 3.361l.566 2.828 8.796-.33 8.797-.331-8.685.85c-4.777.468-9.546 1.124-10.598 1.458-2.109.669-4.217 4.524-4.217 7.71 0 1.214-.824 2.262-2.026 2.576-1.114.291-4.827 1.969-8.25 3.727-5.438 2.794-6.2 3.536-6.036 5.877.209 2.971-1.265 3.44-4.159 1.324-1.135-.83-1.609-1.993-1.223-3 .533-1.39-.136-1.645-4.312-1.645-4.376 0-5.108.315-6.383 2.75-2.01 3.838-7.334 8.645-12.361 11.163-2.338 1.17-4.25 2.344-4.25 2.607s53.64.48 119.2.48c68.385 0 118.795-.374 118.25-.877-.522-.482-3.234-1.618-6.026-2.523-3.041-.985-6.447-3.073-8.5-5.208-6.345-6.602-10.116-7.588-18.093-4.729-4.373 1.568-4.832 1.566-7.25-.018-2.308-1.512-2.581-1.524-2.581-.109 0 .87-.464 1.295-1.031.945-.581-.359-.766-2.049-.423-3.873.809-4.315-1.462-6.423-5.123-4.755-3.357 1.53-3.423 1.506-3.423-1.199 0-2.778-2.344-7.884-5.693-12.404-2.049-2.765-3.036-3.251-6.608-3.259-2.309-.004-6.505-.285-9.323-.624-4.376-.526-5.052-.889-4.633-2.491.27-1.032-.012-1.876-.626-1.876-.696 0-1.117-2.221-1.117-5.893 0-4.316-.401-6.047-1.5-6.469-.825-.316-1.5-1.489-1.5-2.607 0-1.5-.654-2.031-2.5-2.031-1.375 0-2.5-.241-2.5-.534s2.675-7.452 5.945-15.905c3.27-8.454 5.887-16.201 5.816-17.216s1.359-5.989 3.177-11.054l3.306-9.208 7.128-4.19c3.92-2.305 7.277-4.31 7.459-4.456s-.191-1.241-.829-2.433c-.961-1.795-.846-2.406.669-3.554 1.006-.763 2.054-1.388 2.329-1.389 1.017-.005 8.889 11.639 11.958 17.689 1.744 3.438 3.342 6.25 3.552 6.25 1.188 0-5.731-16.805-9.146-22.216-1.38-2.185-2.363-4.091-2.186-4.234C189.726 96.293 224.49 76 225.095 76c.766 0 1.747 55.891 1.071 61.048-.451 3.444-7.97 8.29-11.491 7.407-1.369-.344-3.461-.105-4.649.531-1.719.92-2.65.835-4.558-.415-1.319-.864-2.882-1.571-3.473-1.571-.592 0-2.295-.854-3.785-1.898-4.501-3.151-9.39-1.823-15.269 4.15-3.135 3.185-4.941 5.891-4.941 7.403 0 2.043-.357 2.293-2.5 1.756-2.136-.536-2.502-.284-2.511 1.731-.011 2.248-.131 2.206-2.573-.892-6.625-8.407-7.553.544-1.337 12.906 3.787 7.533 18.79 29.414 21.309 31.079 2.042 1.349 5.469.79 6.032-.985.505-1.592 2.032-1.718 16.905-1.401l16.349.35 3.184-4.02c4.426-5.587 6.945-11.729 8.07-19.674.739-5.219 1.587-7.433 3.687-9.625 2.686-2.804 2.699-2.876.839-4.931-1.729-1.91-1.76-2.311-.376-4.767.831-1.475 2.391-2.728 3.466-2.784 3.976-.207 4.456-.434 4.456-2.11 0-.942-1.236-2.698-2.747-3.903-2.538-2.024-2.727-2.672-2.498-8.538.137-3.491.946-12.422 1.798-19.847s1.901-19.125 2.331-26c.555-8.862 1.306-13.507 2.583-15.959 1.713-3.291 1.718-3.806.111-10.625-1.549-6.568-1.564-8.07-.186-17.955.92-6.602 1.159-11.432.615-12.447-1.284-2.399-8.604-7.245-11.41-7.553-1.319-.145-3.23-.515-4.247-.823-1.018-.309-2.601-.126-3.519.405m1.786 7.935c-4.255 4.024-5.489 5.954-6.44 10.076-1.628 7.054-1.563 7.362 1.821 8.639 4.892 1.847 4.941 4.146.178 8.373L229 64.772v27.52c0 27.475.003 27.52 2.102 26.971 2.507-.656 3.82 1.067 3.99 5.237.111 2.719.204 2.625 1-1 1.074-4.894 9.908-85.981 9.908-90.943 0-4.959-1.996-4.62-8.383 1.421m-23.329 17.851c-6.717 4.769-12.23 9.096-12.25 9.616-.021.52-1.276 2.258-2.788 3.863l-2.75 2.917 6.209-3.106c3.415-1.709 7.593-4.459 9.285-6.113 1.691-1.653 3.622-3.009 4.29-3.012s2.904-.474 4.966-1.047c2.724-.756 3.75-1.584 3.75-3.026 0-1.092.652-3.546 1.449-5.453s1.134-3.432.75-3.389-6.195 3.981-12.911 8.75m6.357 5.149c-3.22 1.029-6.82 2.741-8 3.804-1.18 1.064-9.345 5.668-18.145 10.231-52.311 27.127-54.721 29.053-62.96 50.317-3.377 8.716-3.6 9.972-3.33 18.756l.29 9.414 4.192-8.523c11.823-24.04 15.524-29.244 25.808-36.288C175.601 92.975 209.618 72 211.514 72 214.88 72 234 58.236 234 55.813c0-1.412-7.274-.778-13.355 1.165m25.949 48.129c-.834 2.564-3.586 33.234-3.032 33.788 1.366 1.367 2.216-3.153 3.386-18.014 1.121-14.242.994-19.917-.354-15.774M156 123c-.589 1.1-.845 2-.57 2s.981-.9 1.57-2 .845-2 .57-2-.981.9-1.57 2m4.633 1.337c-2.199 5.261-2.997 8.305-1.878 7.163 1.073-1.096 4.385-10.5 3.698-10.5-.235 0-1.054 1.502-1.82 3.337m-68.801 3.816-4.669 2.03-.351 12.158c-.193 6.688-.278 12.299-.187 12.47.09.171 3.375-.665 7.299-1.857l7.136-2.167-.28-12.143c-.322-13.945-.505-14.161-8.948-10.491M106 139.877v13.915l8.75 1.606c4.813.883 9.095 1.605 9.516 1.604.952-.002-.246-25.199-1.251-26.31-.646-.714-5.732-2.179-14.265-4.108l-2.75-.622zm-23.25-7.157c-1.447 1.602-1.75 3.874-1.75 13.109 0 6.144.338 11.164.75 11.156 2.894-.059 3.307-1.957 3.032-13.922-.27-11.775-.354-12.2-2.032-10.343m63.447 12.746c-.62 1.361-3.371 5.863-6.113 10.004l-4.987 7.53h2.712c2.506 0 2.993-.733 6.43-9.688 2.045-5.328 3.576-9.83 3.402-10.004s-.823.797-1.444 2.158m36.367 4.241c-.542 1.425-.428 1.54.56.56.684-.679.991-1.486.683-1.793-.308-.308-.867.247-1.243 1.233m-90.064 7.2c-5.802 1.686-6.01 1.863-6.308 5.376-.611 7.216 2.444 9.057 11.058 6.664l3.75-1.041v-6.453c0-7.291.332-7.113-8.5-4.546m120.966.872a205 205 0 0 1-6.5 5.526c-3.252 2.631-3.281 2.704-.466 1.176 3.724-2.022 12.363-9.421 11-9.422-.55 0-2.365 1.224-4.034 2.72m-107.094 1.873c-.929 3.704.306 13.528 1.822 14.489.718.456 5.038.835 9.6.844l8.294.015-.294-7.25-.294-7.25-5.5-1.083c-12.879-2.535-12.933-2.534-13.628.235m-46.728 6.979c-2.67.82-4.607 1.739-4.304 2.043.758.757 10.533-1.659 11.222-2.774.763-1.235-1.191-1.028-6.918.731m153.551 1.869c.02 1.65.244 2.204.498 1.231s.237-2.323-.037-3-.481.119-.461 1.769m-152.53 1.007c-5.17 1.421-7.039 2.493-4.346 2.493C59.114 172 67 169.632 67 168.793c0-.975-.316-.94-6.335.714m-1.343 3.819c-3.621 1.338-5.873 3.219-2.822 2.358 1.1-.311 3.913-1.059 6.25-1.663s4.25-1.306 4.25-1.56c0-.832-4.436-.333-7.678.865m83.235.897c-.856 1.222-1.557 3.697-1.557 5.5 0 3.033.242 3.276 3.25 3.263 6.836-.028 7.75-.748 7.75-6.103V172h-3.943c-2.942 0-4.339.565-5.5 2.223m69.559-1.055c-.064.918-.375 2.493-.692 3.5-.545 1.736-.515 1.739.568.051.628-.98.939-2.555.691-3.5-.406-1.549-.462-1.554-.567-.051m-152.284 3.187c-3.866 1.207-6.009 2.645-3.941 2.645 2.41 0 10.154-2.263 10.685-3.123.712-1.152-2.178-.948-6.744.478m26.251 3.95c-14.354 2.619-13.011 3.281 2.522 1.244 6.497-.852 15.881-1.609 20.853-1.683 8.183-.121 8.567-.207 4.042-.912-7.953-1.239-15.171-.883-27.417 1.351m121.343 4.528c-3.055 5.63-3.11 5.671-8.5 6.254l-5.426.587 5.611.163 5.61.163 3.236-6.07c1.779-3.339 3.08-6.227 2.889-6.417-.19-.191-1.729 2.204-3.42 5.32m-137.157-1.14c.973.254 2.323.237 3-.037s-.119-.481-1.769-.461-2.204.244-1.231.498M128 194.743l4.5 1.757-6 .398-6 .397 6.922 1.103c8.909 1.419 9.999 3.549 1.911 3.738-3.208.075-4.708.309-3.333.52 9.546 1.464 9 1.153 8.994 5.139-.004 2.038-.687 5.009-1.518 6.604-1.862 3.57-1.201 4.64.889 1.438 2.444-3.748 3.701-11.015 2.596-15.017-1.306-4.728-3.637-6.616-8.987-7.28l-4.474-.555zm41.474-.572c2.697 1.038 2.791 1.217 1 1.917-1.501.587-1.084.788 1.741.842 3.848.073 5.783 1.996 5.787 5.754.002 1.609-.825 1.79-7.25 1.588-4.989-.157-6.628.055-5.252.68 1.1.499 4.152.939 6.781.978 5.232.077 6.384 1.286 5.308 5.572-.536 2.133-1.245 2.523-4.858 2.666l-4.231.168 3.697.389c2.928.308 3.586.741 3.166 2.082-.378 1.206.046 1.042 1.473-.568 2.746-3.1 4.342-11.01 3.117-15.446-1.283-4.649-3.537-6.454-8.953-7.172-4.159-.551-4.275-.509-1.526.55M54.097 199.75c-2.28 1.878-4.618 8.25-3.027 8.25.511 0 .93-.863.93-1.918 0-3.41 1.234-5.276 4.4-6.654 1.705-.742 2.362-1.367 1.461-1.389-.902-.021-2.595.748-3.764 1.711"/><path fill="#1976D2" fill-opacity=".981" fill-rule="evenodd" d="M234.791 27.686c-.899.997-1.954 3.091-2.344 4.652-.538 2.158-4.156 5.396-15.082 13.5-7.906 5.864-15.617 11.112-17.137 11.662s-8.068 5.5-14.554 11c-6.485 5.5-12.16 10.132-12.612 10.293s-4.148-2.089-8.214-5c-9.064-6.489-20.733-12.041-31.348-14.915-11.428-3.094-33.531-3.1-45-.012-26.777 7.211-49.329 26.031-60.524 50.511-4.024 8.799-4.615 12.039-1.044 5.728 10.581-18.704 28.005-34.032 47.792-42.047 13.091-5.302 20.373-6.566 37.276-6.471 13.837.078 16.466.378 24.5 2.803 8.776 2.648 23.047 9.055 26.941 12.095 1.922 1.5 1.922 1.53 0 3.007-1.067.82-6.283 4.189-11.591 7.486-13.218 8.212-16.746 12.818-21.845 28.522-2.71 8.346-3.059 9.031-3.905 7.662-.67-1.084-20.696-6.162-24.3-6.162-3.27 0-20.144 7.064-22.05 9.232-1.127 1.281-1.752 3.642-1.756 6.629-.003 2.551-.293 8.323-.643 12.825l-.638 8.186-11.396 2.78c-6.269 1.529-11.809 3.034-12.311 3.345-.503.31-1.222 5.323-1.598 11.139-.549 8.487-.41 10.752.704 11.47.763.492 5.213 1.119 9.888 1.394l8.5.5-6.5 2.178-6.5 2.178 17.5-.379 17.5-.38-18.295 1.493c-10.062.822-19.398 1.913-20.747 2.426-1.773.674-2.787 2.184-3.662 5.456-.815 3.049-1.876 4.727-3.253 5.146-3.64 1.108-14.543 6.571-14.543 7.287 0 .382.525 1.22 1.167 1.862 2.012 2.012-1.883 2.649-4.742.776-2.062-1.351-2.328-1.955-1.369-3.11 1.006-1.212.403-1.433-3.908-1.433-4.632 0-5.236.269-6.621 2.948-2.176 4.208-7.304 8.868-12.527 11.384L-.5 229.5l59.75.258c32.863.142 86.638.142 119.5 0l59.75-.258-6.414-2.364c-4.073-1.5-8.125-3.963-11.098-6.744-5.533-5.175-9.17-6.179-14.43-3.981-4.568 1.909-7.721 2.026-9.4.347-.988-.988-1.425-.943-2.146.222-.793 1.284-.971 1.283-1.449-.008-.299-.81-.436-2.822-.304-4.471.198-2.457-.176-3.058-2.064-3.327-1.268-.18-2.966.221-3.774.892-.808.67-1.636 1.042-1.84.827-.94-.996-3.581-8.329-3.581-9.944 0-.994-1.463-3.348-3.25-5.232l-3.25-3.424-18.851-.548c-20.908-.607-26.291-2.086-11.773-3.235 9.955-.788 12.459-2.142 10.314-5.578-.655-1.048-1.19-4.386-1.19-7.418V170h-4.5c-2.475 0-4.5-.397-4.5-.882s2.769-8.023 6.153-16.75c3.385-8.727 6.498-17.893 6.918-20.368s2.153-8.1 3.851-12.5l3.086-8 9.428-5.75c5.186-3.163 9.646-5.75 9.911-5.75.796 0 7.629 9.649 10.807 15.262 4.221 7.452 2.504 1.895-2.693-8.717-2.411-4.925-4.289-9.044-4.173-9.153.117-.109 8.537-5.193 18.712-11.297l18.5-11.099.628 13.752c.345 7.564.683 21.943.75 31.954l.122 18.202-4.578 3.15c-3.498 2.407-5.327 3.036-7.75 2.668-1.745-.266-3.955-.073-4.913.428-1.15.602-2.677.438-4.5-.482-1.517-.767-3.242-1.219-3.832-1.006-.59.212-1.897-.524-2.905-1.638-1.266-1.398-3.086-2.024-5.889-2.024-3.646 0-4.592.575-9.345 5.682-3.479 3.739-5.288 6.544-5.288 8.2 0 1.959-.267 2.251-1.2 1.318-1.763-1.763-2.8-1.467-2.8.8 0 2.666-1.162 2.521-4-.5-1.292-1.375-2.945-2.5-3.674-2.5-4.392 0 2.918 16.972 13.723 31.864 8.419 11.603 5.954 10.698 31.998 11.742l16.546.663 4.209-4.781c4.493-5.104 8.164-14.614 8.239-21.343.028-2.554.927-4.683 3.004-7.113 2.943-3.442 2.95-3.481 1.007-5.425-1.858-1.858-1.873-2.102-.289-4.782 1.181-2.001 2.463-2.825 4.394-2.825 3.881 0 4.451-1.743 1.581-4.831-1.364-1.468-2.77-3.898-3.123-5.399-.691-2.933 1.946-33.299 3.323-38.27.457-1.65.856-7.375.887-12.722.043-7.415.525-10.781 2.031-14.186 1.881-4.253 1.901-4.788.407-11.278-1.325-5.757-1.388-8.288-.406-16.314.639-5.225 1.158-10.661 1.153-12.08-.023-5.987-16.278-12.607-20.219-8.234m2.32 6.702c-4.415 4.471-5.556 6.386-6.701 11.25-1.794 7.626-1.901 7.188 1.84 7.549 4.932.475 4.898 3.807-.088 8.542l-3.971 3.771.544 27.273c.512 25.672.65 27.24 2.344 26.702 2.189-.695 4.056 2.292 3.283 5.25-.295 1.127-.084 2.329.47 2.671 1.446.894 1.722-.999 6.127-41.896 5.822-54.069 5.904-54.913 5.392-55.741-1.182-1.913-4.345-.328-9.24 4.629M215 51.178c-6.875 4.929-12.793 9.749-13.151 10.712s-1.86 2.542-3.337 3.51c-4.956 3.247-1.786 2.763 5.312-.811 3.865-1.947 7.644-4.419 8.397-5.495.761-1.085 3.74-2.555 6.696-3.305l5.327-1.349 1.835-5.93c1.009-3.261 1.741-6.011 1.628-6.111S221.875 46.25 215 51.178m8.062 4.88c-4.092 1.071-8.367 2.804-9.5 3.85-1.134 1.047-12.187 7.183-24.562 13.636-26.638 13.89-39.761 21.429-44.421 25.521-4.896 4.299-8.894 10.994-13.491 22.59-4.009 10.114-4.022 10.193-3.293 19.5l.731 9.345 6.669-13.5c9.521-19.274 13.429-24.921 20.954-30.27C169.898 96.956 210.1 72 212.097 72c2.444 0 20.754-12.449 21.617-14.698.318-.827-.051-1.902-.818-2.388-1.724-1.091-.961-1.18-9.834 1.144m23.526 47.8c-.642 1.038-3.531 27.269-3.568 32.392-.013 1.787.506 2.75 1.48 2.75.877 0 1.517-.935 1.541-2.25.023-1.238.651-9 1.396-17.25 1.22-13.529.948-18.55-.849-15.642m-89.12 15.831c-.969 1.479-7.506 11.786-14.528 22.906-13.928 22.057-13.753 21.354-5.344 21.391 3.082.014 3.124-.059 8.979-15.643 3.235-8.612 6.441-16.216 7.124-16.899 1.188-1.188 6.576-14.444 5.871-14.444-.187 0-1.133 1.21-2.102 2.689m71.769 2.474c-1.499 1.499-1.619 4.483-.215 5.351 2.015 1.245 7.371 13.072 7.919 17.486.495 3.984.846 4.5 3.059 4.5 3.005 0 3.997-3.715 1.691-6.332-1.946-2.209-8.691-15.753-8.691-17.452 0-.734-.569-2.111-1.263-3.062-1.004-1.372-1.518-1.473-2.5-.491m-137.83 5.777-4.092 1.844-.658 9.262c-.361 5.094-.657 10.948-.657 13.01v3.75l6.75-2.011c3.713-1.106 7.313-2.467 8-3.025 1.354-1.099 1.62-17.205.361-21.77-.879-3.183-4.189-3.544-9.704-1.06m14.076.114c-.359 1.13-.332 7.417.059 13.973.795 13.307-.026 12.153 9.892 13.917 10.764 1.915 9.97 2.96 9.207-12.124-.367-7.249-.846-13.358-1.064-13.576-.514-.514-14.71-4.204-16.26-4.227-.65-.009-1.476.907-1.834 2.037m122.983 5.338c-.647 3.396-.438 4.121 1.646 5.7 3.133 2.374 3.381 1.241 1.03-4.704l-1.934-4.888zm-145.651-1.146c-1.209.961-1.715 4.016-2.163 13.069-.584 11.777-.578 11.814 1.631 11.5 2.115-.301 2.24-.866 2.727-12.315.28-6.6.256-12.339-.054-12.754s-1.273-.189-2.141.5m103.409 11.589c-1.783 1.466-3.238 3.158-3.233 3.76s-.891 1.91-1.991 2.905-2 2.64-2 3.655c0 1.515.76 1.832 4.25 1.775 4.728-.078 10.143-1.727 6.107-1.86-4.591-.15-3.531-3.878 1.697-5.966 1.683-.672 1.911-.997.731-1.041-.943-.034-2.179-.93-2.746-1.99-.823-1.539-.679-1.998.715-2.274.97-.192 1.294-.631.729-.987-.559-.353-2.475.558-4.259 2.023m39.477-.203c-.385.386-.701 2.008-.701 3.604 0 2.439.36 2.852 2.25 2.584 1.76-.25 2.25-.971 2.25-3.306 0-2.883-2.16-4.521-3.799-2.882m-39.518 1.585c-.651.651-1.183 1.75-1.183 2.444s-.949 2.145-2.108 3.225-1.87 2.561-1.579 3.289q.529 1.321.608-.425c.043-.963.539-1.75 1.1-1.75.562 0 1.566-1.238 2.23-2.75.665-1.512 1.654-3.063 2.2-3.446.545-.382.749-.937.453-1.233-.295-.296-1.07-.005-1.721.646m59.415 1.518c-1.618 1.618-.365 3.265 2.485 3.265 1.887 0 2.934-.448 2.699-1.154-.461-1.382-4.335-2.959-5.184-2.111m-43.316 7.661c-8.324 4.808-10.286 5.496-20.25 7.099-6.067.976-11.032 1.952-11.032 2.168 0 1.998 7.093 13.491 12.326 19.972l6.518 8.073 6.826.699c7.976.817 8.615.343 13.499-10.005 2.602-5.515 5.658-17.909 4.661-18.906-.222-.221-2.76.765-5.643 2.192-5.076 2.512-8.73 2.729-4.023.238 4.654-2.462 12.835-9.435 12.803-10.913-.045-2.039-3.461-6.022-5.127-5.977-.737.019-5.488 2.431-10.558 5.36M93.25 156.404l-7.25 2.05v4.618c0 6.695 2.164 8.407 8.628 6.829 2.68-.654 5.435-1.63 6.122-2.168 1.351-1.057 1.785-12.343.5-12.997-.412-.21-4.013.541-8 1.668m140.561 7.823c-4.244 7.643-5.408 10.554-4.605 11.522 1.327 1.598 1.638 1.164 8.606-11.999 4.213-7.957 4.842-9.75 3.421-9.75-1.172 0-3.601 3.348-7.422 10.227M106 164.878c0 5.141.44 8.243 1.268 8.929.697.579 5.085 1.197 9.75 1.373l8.482.32.29-7.639.29-7.638-8.79-1.614c-4.834-.887-9.352-1.612-10.04-1.611-.894.001-1.25 2.245-1.25 7.88m-47.179 1.407c-3.172.891-3.667 1.426-3.597 3.893.061 2.13.489 2.739 1.679 2.388 4.477-1.321 6.936-1.31 2.847.013-4.928 1.595-6.013 2.944-3 3.732 1.667.435 1.667.463 0 .573-.962.064-1.75.839-1.75 1.723 0 1.074.54 1.4 1.629.982.896-.344 3.564-1.112 5.93-1.708 3.863-.973 4.293-1.379 4.219-3.982-.045-1.595-.576-2.906-1.18-2.914s-.423-.459.402-1c1.333-.876 1.333-1.094 0-1.97q-1.504-.985-.25-1c.688-.008 1.25-.465 1.25-1.015 0-1.215-3.234-1.103-8.179.285m82.671 8.73c-.887 1.716-1.474 4.102-1.303 5.303.277 1.941 1.007 2.215 6.615 2.481l6.304.299-.304-5.299-.304-5.299-4.697-.303c-4.375-.282-4.808-.089-6.311 2.818m-81.679.668c.721.289 1.584.253 1.916-.079s-.258-.568-1.312-.525c-1.165.048-1.402.285-.604.604m161.292 1.69c-1.499 1.807-.296 4.809 1.771 4.418 2.106-.399 2.863-5.791.813-5.791-.794 0-1.957.618-2.584 1.373M91.5 179.005a3218 3218 0 0 1-19.5 3.588c-15.242 2.744-8.853 2.712 12.136-.061 15.884-2.098 21.476-2.439 31.114-1.895 6.463.365 11.75.426 11.75.137 0-.29-4.388-1.057-9.75-1.704s-11.1-1.349-12.75-1.559c-1.65-.211-7.5.461-13 1.494m34.18 15.343c6.477 1.785 6.241 2.641-.763 2.767-6.065.109-6.198.16-2.417.942 2.2.455 5.639.854 7.643.885 2.274.036 3.859.622 4.219 1.558.476 1.241-.671 1.523-6.643 1.634l-7.219.134 7.25.961 7.25.961v3.193c0 1.757-.893 4.946-1.985 7.087-2.349 4.607-2.123 5.369.676 2.276 6.35-7.018 5.235-20.182-1.921-22.676-1.688-.589-4.689-1.026-6.669-.972l-3.601.098zm42.32-.186c3.435 1.116 3.453 1.151 1 1.888-2.086.626-1.805.767 1.693.85 3.129.075 4.589.664 5.75 2.323 2.972 4.243 2.178 4.777-7.11 4.777-4.766 0-8.402.264-8.079.587s4.098 1.023 8.389 1.556c4.291.532 7.969 1.136 8.174 1.341.206.205.07 1.755-.301 3.444-.64 2.915-.939 3.081-5.845 3.247-5.095.172-5.107.18-.873.56 3.895.349 4.236.591 3.626 2.575l-.672 2.19 2.514-2.321c3.102-2.864 5.195-9.949 4.396-14.877-.912-5.619-4.416-8.509-10.823-8.927-5.19-.339-5.241-.317-1.839.787m-112 4.144c-2.777.947-3.79 2.034-4.905 5.258-.934 2.7-1.123 5.049-.565 7 .779 2.723.883 2.557 1.432-2.305.74-6.551 2.453-8.282 9.746-9.848 5.419-1.163 5.534-1.245 1.792-1.271-2.2-.015-5.575.51-7.5 1.166"/></svg>