<svg xmlns="http://www.w3.org/2000/svg" width="256" height="256"><path fill="#1976D2" fill-opacity=".016" fill-rule="evenodd" d="M0 128.004v128.004l128.25-.254 128.25-.254.254-127.75L257.008 0H0zm.485.496c0 70.4.119 99.053.265 63.672s.146-92.98 0-128S.485 58.1.485 128.5"/><path fill="#1976D2" fill-opacity=".303" fill-rule="evenodd" d="M233.841 28.146c-.738 1.295-1.791 3.584-2.341 5.087C230.451 36.1 201.935 58 199.251 58c-.762 0-6.94 4.725-13.728 10.5S172.943 79 172.652 79s-3.831-2.362-7.864-5.25c-8.999-6.442-20.683-11.998-31.288-14.879-10.555-2.867-32.5-3.155-42.863-.564C61.434 65.61 37.05 86.112 26.002 112.65c-5.012 12.04-4.867 15.214.26 5.665 24.908-46.392 80.409-64.257 127.51-41.043 9.859 4.859 10.876 5.832 8.418 8.056-1.378 1.247-4.625 1.751-13.747 2.134-7.873.33-11.432.172-10.443-.465.825-.532 3.525-.999 6-1.039s6.3-.405 8.5-.811c3.667-.676 3.828-.833 1.93-1.881-5.038-2.783-17.748-7.251-24.73-8.693-9.836-2.032-27.601-2.024-37.478.016C76.871 77.76 60.921 85.874 49.211 96.47c-2.909 2.632-5.134 4.941-4.944 5.13s14.454 1.704 31.698 3.365 31.581 3.248 31.861 3.527c.279.279-15.483.508-35.026.508H37.266l-2.67 4.035c-1.469 2.219-2.402 4.469-2.074 5s2.707 1.004 5.287 1.053 6.941.438 9.691.866c4.125.643 3.021.802-6.315.912L29.87 121l-3.323 7.25c-1.828 3.988-3.635 8.713-4.015 10.5-.58 2.727-.396 3.257 1.139 3.292 4.284.097 39.44 3.735 39.826 4.121.232.233-9.227.237-21.021.008-20.232-.392-21.488-.31-22.21 1.457-.422 1.029-.762 8.847-.757 17.372.01 18.016 1.729 25.836 8.894 40.471 2.326 4.751 3.84 8.879 3.365 9.173-.476.294-.329 1.18.326 1.969 1.727 2.082.322 2.898-2.655 1.541-1.963-.894-2.416-1.652-1.919-3.217.607-1.911.296-2.027-4.661-1.742-4.388.252-5.51.707-6.459 2.619-1.916 3.861-6.627 8.227-11.9 11.029l-5 2.657 59.75.258c32.863.142 86.638.142 119.5 0l59.75-.258-6-2.315c-3.3-1.274-7.575-3.794-9.5-5.601-7.463-7.006-10.6-7.903-17.52-5.011-3.772 1.576-8.48 1.248-8.48-.592 0-1.682-1.829-1.073-2.311.769-.251.963-.509-.136-.573-2.441s-.537-4.451-1.052-4.769c-.522-.323.252-3.204 1.75-6.52l2.686-5.942 15.5.603 15.5.603 3.34-3.392c4.808-4.883 7.946-11.67 9.278-20.065.825-5.196 1.849-8.07 3.523-9.882 2.797-3.028 2.879-3.713.727-6.091-1.509-1.668-1.508-1.992.023-4.328 1.156-1.765 2.552-2.526 4.632-2.526 3.643 0 3.974-2.31.813-5.675-1.19-1.267-2.33-3.546-2.533-5.064-.51-3.818 1.662-30.898 2.857-35.623.538-2.124 1.12-8.874 1.295-15 .232-8.135.801-12.146 2.11-14.875 1.677-3.495 1.692-4.205.238-11-1.355-6.335-1.382-8.541-.214-17.263 1.829-13.658 1.976-12.915-3.339-16.814-3.509-2.573-6.229-3.668-10.409-4.189-5.259-.655-5.754-.538-7 1.649m10.703 7.104c-2.735 23.933-9.52 88.661-9.461 90.25.182 4.855 1.136-2.497 5.323-41 5.845-53.749 5.917-54.5 5.282-54.5-.299 0-.814 2.362-1.144 5.25M214.27 52.784c-6.726 4.794-12.238 9.131-12.25 9.637-.011.507-.807 1.802-1.77 2.878-1.352 1.511-.335 1.245 4.462-1.167 3.417-1.717 6.678-3.992 7.247-5.055.668-1.248 3.017-2.376 6.639-3.186 3.082-.69 5.723-1.735 5.867-2.323 1.008-4.097 2.238-9.562 2.146-9.534-.061.019-5.614 3.956-12.341 8.75m6.004 5.22c-2.875 1.022-6.7 2.943-8.5 4.27-1.801 1.326-14.299 8.153-27.774 15.17-32.497 16.923-39.476 21.521-44.827 29.535-2.295 3.437-4.168 6.76-4.161 7.385s1.165-.889 2.574-3.364c1.41-2.475 3.524-5.53 4.699-6.789 3.745-4.012 16.805-11.778 40.84-24.286 12.856-6.69 25.625-13.659 28.375-15.486s8.825-4.449 13.5-5.827c7.316-2.157 7.943-2.503 4.5-2.486-2.2.011-6.352.856-9.226 1.878m-13.125 28.965c-8.993 5.408-16.809 10.291-17.369 10.851-.692.692-.051 2.731 1.995 6.349 2.973 5.26 8.241 18.826 8.208 21.141-.009.654-2.038-2.575-4.509-7.178s-5.925-10.227-7.676-12.5-3.278-4.276-3.394-4.451c-.115-.176-1.102.238-2.194.92-1.907 1.191-1.798 1.498 2.781 7.819 2.621 3.619 6.396 9.834 8.39 13.81 4.19 8.359 4.788 7.695-7.881 8.752-17.969 1.499-18.469 2.003-2.5 2.518l15.5.5.87 3.519c.694 2.809 1.675 3.862 4.864 5.224 2.814 1.202 4.526 1.421 5.798.74.992-.531 3.133-.7 4.758-.375 2.209.442 3.993-.098 7.081-2.142l4.129-2.732v-28.242c0-26.691-.43-34.582-1.875-34.424-.344.038-7.983 4.493-16.976 9.901M96.75 127.662c.688.278 1.813.278 2.5 0 .688-.277.125-.504-1.25-.504s-1.937.227-1.25.504m12.75.866c2.2.725 4.9 1.313 6 1.306s-.25-.639-3-1.404c-6.256-1.741-8.37-1.672-3 .098M106.32 135c0 3.575.182 5.037.403 3.25s.222-4.713 0-6.5c-.221-1.787-.403-.325-.403 3.25m12.68-4.306c.825.295 2.063 1.245 2.75 2.112 1.137 1.434 1.25 1.433 1.25-.008 0-1.568-2.076-2.871-4.332-2.719-.642.043-.493.32.332.615M100.36 140c0 5.225.169 7.363.375 4.75s.206-6.887 0-9.5-.375-.475-.375 4.75m-16.088-4c0 2.475.195 3.488.434 2.25.238-1.238.238-3.262 0-4.5-.239-1.238-.434-.225-.434 2.25m39.088 10c0 5.225.169 7.363.375 4.75s.206-6.887 0-9.5-.375-.475-.375 4.75m-36.04 1c0 3.575.182 5.037.403 3.25s.222-4.713 0-6.5c-.221-1.787-.403-.325-.403 3.25m-6.241 6.583c.048 1.165.285 1.402.604.605.289-.722.253-1.585-.079-1.917s-.568.258-.525 1.312m29.671 1.079c.688.278 1.813.278 2.5 0 .688-.277.125-.504-1.25-.504s-1.937.227-1.25.504M82 156c-.901.582-1.025.975-.309.985.655.008 1.469-.435 1.809-.985.767-1.242.421-1.242-1.5 0m16.69.787c.654.416 1.358 3.222 1.565 6.235l.375 5.478.185-6.25c.159-5.361-.064-6.248-1.565-6.235-1.175.011-1.359.264-.56.772m23.123-.104c.721.289 1.584.253 1.916-.079s-.258-.568-1.312-.525c-1.165.048-1.402.285-.604.604M108.5 158.89c1.1.471 4.475 1.122 7.5 1.447 4.16.446 4.648.383 2-.26-5.795-1.408-11.753-2.153-9.5-1.187m-20.687.793c.721.289 1.584.253 1.916-.079s-.258-.568-1.312-.525c-1.165.048-1.402.285-.604.604M107.336 167c0 4.125.177 5.813.392 3.75s.216-5.437 0-7.5c-.215-2.062-.392-.375-.392 3.75m15.477-5.317c.721.289 1.584.253 1.916-.079s-.258-.568-1.312-.525c-1.165.048-1.402.285-.604.604m1.382 3.817c.02 1.65.244 2.204.498 1.231s.237-2.323-.037-3-.481.119-.461 1.769m-.116 8.083c.048 1.165.285 1.402.604.605.289-.722.253-1.585-.079-1.917s-.568.258-.525 1.312m-12.329 1.123c1.237.238 3.263.238 4.5 0 1.237-.239.225-.434-2.25-.434s-3.487.195-2.25.434m17.5 20.371c3.703 1.467 3.472 2.89-.5 3.073-2.689.124-2.475.254 1.241.75 5.388.72 6.956 3.681 2.318 4.378-2.589.389-2.545.434.569.572l3.378.15-.68 4.25c-.374 2.338-1.3 5.495-2.059 7.017s-.915 2.479-.347 2.128c1.927-1.191 3.83-7.307 3.83-12.307 0-5.85-2.73-9.692-7.5-10.556l-3-.544zm42.5-.358c.688.235 1.25.845 1.25 1.354s.698.927 1.551.927c1.258 0 4.449 5.356 4.449 7.468 0 .293-3.037.593-6.75.668-6.58.133-6.278.307 2.504 1.439 4.024.519 4.218.693 3.609 3.237-.354 1.478-1.325 4.038-2.158 5.688-1.395 2.764-1.385 2.893.123 1.642 2.047-1.698 3.659-7.342 3.666-12.836.007-4.853-3.006-8.997-6.994-9.623-1.375-.215-1.937-.199-1.25.036M53.405 201.25 51.5 203.5l2.5-1.989c1.375-1.094 2.688-2.107 2.917-2.25.229-.144-.039-.261-.595-.261-.557 0-1.869 1.012-2.917 2.25"/><path fill="#1976D2" fill-opacity=".422" fill-rule="evenodd" d="M234.698 27.781c-.92 1.017-2.169 3.272-2.775 5.01-.824 2.364-4.548 5.727-14.763 13.33-7.513 5.593-15.152 10.797-16.975 11.564-1.823.768-8.785 6.068-15.471 11.777l-12.157 10.382-2.529-1.985c-12.205-9.581-26.355-16.423-40.285-19.478-9.317-2.044-28.023-2.094-37.26-.101a93.26 93.26 0 0 0-64.997 52.044c-4.94 10.691-5.44 14.598-.814 6.356C36.338 99.461 50.855 85.663 68.5 76.926c13.524-6.697 22.927-9.019 39-9.628 19.539-.74 35.675 3.207 52.42 12.824l5.42 3.113-2.42 1.862c-1.331 1.024-5.881 3.887-10.112 6.362-14.046 8.218-17.289 12.238-22.877 28.359-1.776 5.125-3.529 8.832-3.896 8.238-.367-.593-6.133-2.281-12.813-3.751l-12.146-2.673-9.542 3.777c-14.089 5.576-13.599 4.914-14.262 19.292-.307 6.68-.868 12.646-1.246 13.257-.377.611-5.743 2.437-11.923 4.059-6.18 1.621-11.657 3.207-12.17 3.524S51 171.266 51 177.559c0 9.503.254 11.441 1.5 11.441.833 0 1.5.889 1.5 2 0 1.1.477 2 1.059 2s.781.45.441 1c-.375.607 1.272 1.059 4.191 1.15 3.028.094 3.698.285 1.809.514-8.417 1.022-9.508 1.452-10.998 4.331-.826 1.598-1.502 3.793-1.502 4.878 0 1.388-1.098 2.334-3.711 3.197-2.041.673-5.904 2.326-8.584 3.672-4.253 2.136-4.797 2.755-4.27 4.853.478 1.907.21 2.405-1.294 2.405-2.453 0-4.345-2.305-3.564-4.34.488-1.273-.063-1.575-2.733-1.498-6.171.179-7.574.773-8.798 3.727-1.583 3.821-4.402 6.381-11.075 10.059L-.5 229.964l119.5-.053 119.5-.052-6-2.301c-3.3-1.265-8.113-4.173-10.695-6.462-6.382-5.657-9.362-6.588-14.907-4.657-5.653 1.969-7.812 1.949-10.069-.094-1.704-1.542-1.829-1.538-1.829.059 0 .943-.42 1.454-.934 1.137-.514-.318-.684-2.122-.377-4.009.494-3.047.272-3.504-1.973-4.067-1.391-.349-3.472-.131-4.623.485-1.904 1.019-2.093.854-2.093-1.825 0-3.864-5.668-13.653-8.708-15.038-1.312-.598-5.995-1.087-10.406-1.087-7.448 0-7.977-.137-7.413-1.916.335-1.054.14-2.205-.432-2.559S157 184.489 157 181.563c0-3.507-.511-5.742-1.5-6.563-.825-.685-1.5-2.09-1.5-3.122 0-1.337-.721-1.878-2.5-1.878-1.375 0-2.5-.191-2.5-.423 0-.233 2.514-6.871 5.586-14.75 3.073-7.88 5.72-15.677 5.882-17.327.163-1.65 1.76-6.987 3.549-11.86 3.156-8.6 3.423-8.968 9.059-12.5 10.316-6.467 9.697-5.853 7.59-7.526-1.749-1.39-1.708-1.54.868-3.228 2.697-1.767 2.709-1.764 5.543 1.671 1.561 1.894 4.883 7.043 7.381 11.443s4.542 7.523 4.542 6.94c0-1.896-4.872-13.551-7.928-18.966l-2.98-5.28 18.107-10.847c9.958-5.966 18.487-10.997 18.953-11.18.467-.184.848 14.097.848 31.735v32.07l-3.75 2.401c-4.664 2.988-14.992 4.268-17.809 2.207-1.022-.746-2.354-1.167-2.962-.933s-1.934-.492-2.947-1.612c-2.7-2.983-8.358-2.701-12.621.631-4.18 3.267-7.911 8.74-7.911 11.603 0 1.658-.267 1.864-1.2.931-1.896-1.896-3.8-1.402-3.8.987 0 2.131-.072 2.118-2.805-.5-3.799-3.64-5.195-3.416-5.195.833 0 4.915 7.163 18.702 16.523 31.803 8.586 12.018 11.739 14.307 14.558 10.57 1.639-2.173 1.961-2.202 17.171-1.546l15.501.668 3.736-4.135c4.829-5.345 7.393-11.254 8.357-19.261.566-4.701 1.525-7.416 3.562-10.088 2.68-3.514 2.72-3.732 1.027-5.603-2.54-2.806-.299-6.928 3.765-6.928 4.001 0 4.814-2.731 1.63-5.47-1.378-1.185-2.753-3.476-3.057-5.092-.567-3.022 2.384-34.754 3.483-37.438.337-.825.807-6.9 1.044-13.5.313-8.74.897-12.887 2.147-15.266 1.611-3.068 1.615-3.707.053-10.5-1.514-6.586-1.53-8.22-.179-18.234 1.465-10.862 1.457-11.029-.652-13.312-3.32-3.596-7.748-5.892-12.734-6.604-3.711-.529-4.877-.305-6.237 1.197m2.569 7.469c-3.813 3.875-5.434 6.428-6.192 9.75-1.552 6.805-1.376 7.498 2.173 8.543 4.553 1.341 4.497 3.583-.2 8.033L229 65.412v27.401c0 24.894.149 27.344 1.627 26.777 2.495-.958 4.373 1.274 4.373 5.199 0 8.935 1.354-.428 5.478-37.887C246.732 30.11 246.739 30 244.36 30c-1.061 0-4.253 2.362-7.093 5.25M214.75 52.109C207.738 57.072 202 61.768 202 62.543c0 .776-1.139 2.157-2.531 3.069-4.93 3.23-1.517 2.522 5.424-1.125 3.872-2.035 7.291-4.493 7.599-5.462.383-1.206 2.447-2.163 6.534-3.03 5.283-1.122 5.974-1.545 5.974-3.664 0-1.317.652-3.956 1.449-5.863s1.359-3.449 1.25-3.425c-.109.023-5.937 4.103-12.949 9.066m6.42 5.332c-4.031 1.317-7.856 3.048-8.5 3.846-.643.799-12.645 7.413-26.67 14.699-41.811 21.721-46.309 25.44-53.934 44.582-3.806 9.555-4.064 10.84-4.033 20.07l.033 9.862 8.449-16.5c4.646-9.075 9.801-18.141 11.454-20.147s8.075-7.006 14.269-11.112C188.634 85.245 210.212 72 212.319 72c2.834 0 21.181-13.01 21.181-15.019 0-2.321-4.313-2.16-12.33.46m25.401 47.666c-.827 2.418-3.561 33.236-2.999 33.798 1.356 1.356 2.209-3.197 3.376-18.024 1.128-14.337.998-19.797-.377-15.774m-84.572 15.976c0 .23-.934 2.892-2.076 5.917s-1.659 5.05-1.149 4.5c1.398-1.511 4.387-9.673 3.768-10.291-.298-.299-.542-.355-.543-.126M93 128.402l-5.5 2.214-.576 12.442c-.317 6.843-.508 12.551-.424 12.685s3.268-.807 7.076-2.091l6.924-2.334.28-11.511c.342-14.03-.002-14.535-7.78-11.405m13.222 12.341.278 13.744 6.5 1.21c3.575.665 7.765 1.231 9.31 1.256l2.81.047-.689-12.25c-.38-6.738-1.094-12.761-1.588-13.385-.886-1.121-12.277-4.365-15.327-4.365-1.367 0-1.536 1.793-1.294 13.743M82.2 133.2c-.793.793-1.2 5.061-1.2 12.573 0 10.293.166 11.342 1.75 11.038 1.534-.294 1.785-1.844 2.031-12.573.154-6.731-.093-12.238-.55-12.238s-1.371.54-2.031 1.2m63.561 13.174c-.878 1.842-3.676 6.593-6.217 10.558l-4.621 7.208 2.766-.32c2.503-.29 3.126-1.257 6.57-10.205 3.77-9.797 4.577-13.689 1.502-7.241m35.644 4.876-1.905 2.25 2.25-1.905c2.114-1.79 2.705-2.595 1.905-2.595-.19 0-1.202 1.012-2.25 2.25m-88.155 6.079L86 159.301v4.194c0 2.89.607 4.744 1.952 5.961 1.737 1.573 2.515 1.632 7.076.537 2.819-.676 5.34-1.789 5.603-2.473s.34-3.701.173-6.703l-.304-5.459zm119.729 1.485c-2.487 2.027-5.862 4.72-7.5 5.984l-2.979 2.299 3.091-1.492c2.749-1.327 13.663-10.563 12.409-10.501-.275.014-2.534 1.683-5.021 3.71m-106.589 1.77c-.768 3.059.194 12.4 1.401 13.607.464.464 4.639.949 9.277 1.077l8.432.232.293-7.22c.331-8.158 1.331-7.254-10.227-9.253-8.166-1.413-8.443-1.366-9.176 1.557m-47.64 6.619c-2.062.547-3.75 1.431-3.75 1.964s.788.739 1.75.46 3.663-1.002 6-1.606 4.25-1.306 4.25-1.56c0-.723-4.134-.351-8.25.742m153.942 3.483c-.409 2.852-2.546 8.786-4.748 13.187-3.14 6.273-4.54 8.094-6.487 8.435-2.218.389-2.188.423.281.314 2.302-.102 3.302-1.121 6.007-6.122 3.793-7.015 6.543-15.544 6.043-18.747-.199-1.275-.674-.003-1.096 2.933M60 170.168c-4.913 1.388-6.523 3.254-2 2.32 4.896-1.012 10.134-3.328 7.5-3.316-1.1.005-3.575.453-5.5.996m-.356 3.463c-2.67.82-4.607 1.739-4.304 2.043.758.757 10.533-1.659 11.222-2.774.763-1.235-1.191-1.028-6.918.731m82.597 1.355c-.683 1.093-1.241 3.343-1.241 5 0 2.987.05 3.014 5.5 3.014h5.5v-10h-4.259c-3.167 0-4.578.51-5.5 1.986m-82.075 1.862c-2.934.909-5.06 1.926-4.725 2.261.824.822 11.559-2.218 11.559-3.274 0-1.05-.334-1-6.834 1.013m26.089 3.938c-7.835 1.406-14.072 2.73-13.861 2.942.212.212 7.432-.562 16.045-1.72 10.482-1.409 18.536-1.94 24.36-1.609l8.701.496-8.5-1.372c-10.723-1.731-9.827-1.773-26.745 1.263m-18.442 3.897c.721.289 1.584.253 1.916-.079s-.258-.568-1.312-.525c-1.165.048-1.402.285-.604.604m123.437 7.006c.963.252 2.537.252 3.5 0 .963-.251.175-.457-1.75-.457s-2.713.206-1.75.457m-122.5 2.973c.688.278 1.813.278 2.5 0 .688-.277.125-.504-1.25-.504s-1.937.227-1.25.504m60 .829c4.601 2 4.031 2.743-1.5 1.953-3.322-.474-4.449-.36-3.75.379.55.581 3.215 1.197 5.922 1.367 7.646.482 7.18 2.787-.589 2.91-4.687.073-5.683.307-3.833.9 1.375.44 4.188.845 6.25.9 3.73.099 3.75.123 3.746 4.35-.002 2.562-.844 5.629-2.12 7.723-1.602 2.627-1.707 3.132-.431 2.072 4.464-3.704 6.458-14.109 3.695-19.279-1.499-2.806-5.036-4.787-8.437-4.727-1.804.032-1.615.295 1.047 1.452m41.25-.544 2.5.748-2.5.516c-2.008.415-1.792.543 1.095.653 4.028.152 6.905 2.637 6.905 5.965 0 2.016-.517 2.181-7.25 2.305l-7.25.134 7.25.961c6.468.857 7.248 1.193 7.235 3.116-.026 3.625-1.646 5.159-5.195 4.922l-3.29-.22 3.284 1.243c2.754 1.043 3.077 1.474 2 2.678-1.11 1.241-1.037 1.248.532.057 6.581-4.998 6.626-19.908.069-22.895-1.363-.622-3.695-1.085-5.182-1.03l-2.703.099zm-114.5 4.208c-3.02 1.652-4.51 3.944-4.41 6.786.084 2.387.151 2.349.996-.565 1.034-3.567 2.189-4.676 6.414-6.163 2.135-.751 2.423-1.069 1-1.104-1.1-.026-2.9.444-4 1.046"/><path fill="#1976D2" fill-opacity=".98" fill-rule="evenodd" d="M234.529 28.315c-.819 1.251-1.965 3.604-2.545 5.23-.697 1.951-3.847 4.976-9.27 8.902a6378 6378 0 0 0-14.905 10.83c-3.68 2.686-7.373 4.983-8.207 5.105-.833.122-6.788 4.699-13.232 10.17-6.444 5.472-12.355 10.331-13.134 10.798-.954.573-2.286.05-4.077-1.602-3.827-3.53-10.72-8.01-17.862-11.606-20.163-10.153-47.693-11.99-69.343-4.626-23.346 7.94-41.27 23.626-52.464 45.913-3.02 6.011-5.49 11.392-5.49 11.958s2.342-2.777 5.205-7.429c9.787-15.905 27.106-30.738 44.198-37.853 24.552-10.221 53.255-9.995 76.608.603 3.569 1.62 8.435 4.175 10.813 5.678 5.363 3.389 5.114 3.768-7.256 11.049-9.094 5.352-16.085 11.733-18.843 17.201-.795 1.575-2.92 7.028-4.723 12.117-2.563 7.234-3.52 8.951-4.39 7.87-.612-.76-6.383-2.561-12.825-4.003L101.073 122l-5.286 2.07c-2.908 1.139-7.865 3.221-11.015 4.627-6.538 2.918-6.161 1.921-7.469 19.734l-.803 10.931-12 3.069-12 3.069-.784 7c-.431 3.85-.656 9.025-.5 11.5l.284 4.5 8.494.294c4.672.162 8.868.668 9.325 1.125s-1.792 1.516-4.995 2.356l-5.824 1.526 14 .274c7.7.151 11.975.422 9.5.602-24.838 1.809-28.505 2.344-30.218 4.401-.945 1.136-2.003 3.582-2.351 5.436-.518 2.763-1.2 3.496-3.782 4.062-3.719.816-13.649 6.243-13.649 7.46 0 .465.498 1.154 1.107 1.53.778.481.722.922-.191 1.486-1.855 1.146-7.216-1.827-6.528-3.62.426-1.11-.448-1.432-3.894-1.432-3.873 0-4.632.365-5.917 2.852-1.873 3.621-7.569 8.643-12.364 10.9-3.588 1.689-1.716 1.757 55.537 2.006 32.587.142 85.912.142 118.5 0 59.033-.257 59.231-.265 53.946-2.106-3.082-1.074-7.651-3.902-10.906-6.75-6.254-5.473-9.917-6.209-16.733-3.361-3.257 1.36-4.03 1.369-6.622.076-1.614-.805-2.935-1.048-2.935-.54 0 .507-.5.923-1.111.923-.72 0-.889-1.184-.481-3.362.84-4.475-1.288-6.469-5.067-4.748-1.43.652-2.706 1.056-2.836.897-.762-.926-3.414-7.721-3.952-10.123-.965-4.316-4.865-7.683-8.758-7.562l-3.295.103 3.244.77c4.319 1.025 5.926 2.494 7.307 6.68 1.426 4.321.535 10.853-2.065 15.128-1.923 3.161-4.425 4.526-3.4 1.854.366-.955-.767-1.618-3.781-2.213l-4.305-.85 5.146-.336c4.311-.281 5.242-.692 5.736-2.537 1.119-4.172.752-4.428-7.632-5.321l-8.25-.879 8.25-.291c6.6-.233 8.25-.596 8.25-1.816 0-3.554-1.999-5.206-7.234-5.982-4.836-.716-5.021-.837-2.266-1.478 1.979-.46 2.31-.738.973-.816-1.116-.065-2.972-.78-4.127-1.588-1.529-1.071-5.663-1.546-15.225-1.75-15.094-.322-17.677-1.963-4.539-2.885 8.455-.593 10.363-1.445 10.403-4.645.008-.687-.435-1.25-.985-1.25-.553 0-1-2.629-1-5.886v-5.887l-4.5-.675c-2.475-.371-4.5-.999-4.5-1.395 0-.397 2.925-8.257 6.5-17.467s6.5-17.829 6.5-19.154c0-2.339 5.56-17.936 7.174-20.124C166.22 110.993 182.575 101 183.851 101c1.31 0 6.082 6.119 10.529 13.5 5.066 8.408 4.503 5.776-1.285-6.009-2.698-5.494-4.736-10.263-4.528-10.599.661-1.07 36.469-22.189 36.897-21.762.821.822 1.653 62.4.856 63.418-2.612 3.337-7.848 5.798-11.891 5.589-2.343-.121-4.548.247-4.901.818-.424.686-1.621.531-3.535-.459-1.592-.823-3.591-1.496-4.443-1.496-.853 0-2.426-.876-3.496-1.946-1.522-1.522-2.774-1.814-5.75-1.341-3.576.569-10.304 4.651-10.304 6.253 0 .4-.9 1.766-2 3.034s-2 3.452-2 4.853c0 1.981-.267 2.28-1.2 1.347-1.763-1.763-2.8-1.467-2.8.8 0 2.815-1.097 2.509-4.099-1.144-2.86-3.479-4.901-3.178-4.901.723 0 5.967 18.847 36.872 23.752 38.948.961.407 10.554.96 21.317 1.229l19.569.489 3.036-3.873c1.67-2.129 3.617-4.976 4.326-6.326 1.826-3.476 3.974-11.966 3.988-15.761.008-2.114 1.011-4.353 2.928-6.536 2.869-3.268 2.887-3.359 1.102-5.726-1.627-2.157-1.662-2.636-.339-4.656.891-1.36 2.702-2.374 4.571-2.559 3.994-.397 4.519-2.183 1.481-5.035-1.331-1.25-2.735-3.557-3.12-5.126-.737-3.001 1.896-33.998 3.326-39.147.457-1.65.857-7.352.888-12.672.044-7.739.47-10.485 2.129-13.738 2.02-3.96 2.031-4.24.399-10.737-1.453-5.785-1.521-8.012-.509-16.762.642-5.55 1.165-11.065 1.162-12.256-.009-3.236-8.351-8.901-14.246-9.673-4.192-.549-4.913-.358-6.231 1.653m2.91 5.831c-5.269 4.983-6.118 6.639-7.889 15.388-.56 2.768-.325 3.119 2.668 4 4.855 1.429 4.82 4.422-.102 8.634l-3.99 3.416.59 27.521c.58 27.12.619 27.52 2.686 27.458 1.716-.052 2.154.619 2.408 3.687.364 4.391 1.786 4.939 2.598 1 .581-2.821 7.928-69.792 9.38-85.502 1.162-12.573-.09-13.413-8.349-5.602m-22.335 17.483c-6.741 4.732-12.524 9.301-12.851 10.154s-1.981 2.847-3.674 4.431c-2.971 2.779-2.798 2.741 4.921-1.078 4.4-2.177 8.531-4.843 9.181-5.923.677-1.126 2.811-2.254 5-2.642 6.198-1.1 7.317-1.615 7.363-3.388.024-.926.679-3.466 1.455-5.645s1.287-4.085 1.136-4.236-5.79 3.596-12.531 8.327M221 57.15c-3.575 1.121-7.4 2.859-8.5 3.862s-10.775 6.411-21.5 12.015c-37.36 19.521-43.055 22.971-49.257 29.835-4.226 4.678-8.368 12.504-12.06 22.786-2.297 6.398-2.504 8.112-1.971 16.344l.596 9.197 8.388-16.463c4.613-9.055 10.003-18.35 11.977-20.657 3.941-4.604 11.885-10.146 41.181-28.731C200.551 78.552 210.283 73 211.481 73c2.237 0 17.566-10.153 20.867-13.82 4.021-4.468-.812-5.333-11.348-2.03m24.695 50.561c-1.338 8.842-2.995 31.322-2.356 31.961 1.659 1.66 2.563-2.021 3.603-14.672 1.645-20.01 1.65-20.279.442-20.694-.636-.218-1.363 1.247-1.689 3.405m-101.016 32.54L130.022 163.5l5.1.306c2.804.168 5.307.098 5.561-.155.254-.254 3.178-7.592 6.498-16.307s6.437-16.095 6.927-16.403c.984-.617 6.073-13.093 5.553-13.613-.179-.179-6.921 10.136-14.982 22.923m83.785-16.137c-.435 1.371.007 3.041 1.259 4.75 2.985 4.076 7.275 14.082 7.292 17.007.021 3.561 1.436 5.554 3.407 4.797 2.258-.866 3.121-3.628 1.734-5.554-2.156-2.995-9.058-17.592-9.628-20.364-.67-3.255-3.112-3.637-4.064-.636m-136.099 4.029-5.135 2.037-.719 12.473c-.396 6.859-.476 12.716-.178 13.014s3.833-.554 7.855-1.894l7.312-2.435.287-9.136c.318-10.11-.666-15.596-2.85-15.898-.79-.109-3.748.719-6.572 1.839m13.583-.581c-.8.964-.923 5.169-.418 14.297l.715 12.932 8.771 1.604c4.824.883 9.044 1.605 9.377 1.605.761 0 .603-13.512-.252-21.5l-.641-6-8.209-2.152c-6.885-1.805-8.392-1.932-9.343-.786M228 134.759c0 2.735.572 4.117 2.097 5.07 3.024 1.888 3.344.894 1.373-4.268-2.116-5.541-3.47-5.854-3.47-.802M82.238 133.25c-.554.688-1.172 6.425-1.373 12.75-.351 11.047-.286 11.486 1.635 11.155 1.1-.19 2.066-.415 2.147-.5s.306-5.668.5-12.405c.349-12.122-.233-14.322-2.909-11m103.449 11.555c-1.478 1.542-2.687 3.273-2.687 3.845s-.9 1.855-2 2.85-2 2.696-2 3.78c0 1.673.471 1.876 3.125 1.345 1.719-.344 4.28-.625 5.691-.625 2.405 0 2.449-.085.713-1.355-2.395-1.751-1.429-4.319 2.195-5.839 2.685-1.125 2.701-1.176.499-1.558-2.553-.442-2.697-3.307-.223-4.428 1.129-.511.99-.697-.563-.75-1.135-.038-3.272 1.192-4.75 2.735m.807 1.201c-.998 1.104-1.63 2.184-1.405 2.402.226.218 1.22-.685 2.208-2.006 2.182-2.918 1.697-3.157-.803-.396m38.89-.564c-.98 2.554.074 5.058 2.13 5.058 1.51 0 2.061-.779 2.299-3.25.264-2.732-.02-3.25-1.781-3.25-1.152 0-2.344.649-2.648 1.442M245 148.5c0 .825.638 1.5 1.418 1.5s2.13.273 3 .607c1.009.387 1.582.064 1.582-.893 0-1.524-2.01-2.714-4.582-2.714-.78 0-1.418.675-1.418 1.5m-42.207 6.098c-8.785 5.049-10.734 5.745-20.5 7.321-12.078 1.95-11.974 1.826-8.071 9.56 2.919 5.785 14.629 19.905 17.144 20.671 1.174.358 4.716.695 7.873.75l5.739.1 3.924-7.805c2.159-4.294 4.414-10.451 5.011-13.684 1.451-7.846 1.42-9.033-.196-7.691-.706.586-3.519 1.982-6.25 3.102l-4.967 2.037 2.903-2.23c10.444-8.021 12.597-9.921 12.597-11.117 0-1.484-3.75-6.618-4.823-6.602-.372.005-5.045 2.52-10.384 5.588m-20.241-2.656c-.966 1.068-1.522 2.531-1.234 3.25.404 1.007.542.981.603-.113.043-.782.824-2.244 1.734-3.25s1.43-1.829 1.155-1.829-1.291.874-2.258 1.942M234 164.141c-6.719 12.343-6.399 11.492-4.573 12.192 1.115.428 2.959-2.12 7.042-9.731 5.738-10.698 6.39-12.615 4.281-12.584-.687.01-3.725 4.566-6.75 10.123m-141.5-7.193-6 1.711-.297 4.473c-.233 3.51.154 4.881 1.794 6.365 1.955 1.77 2.458 1.799 7.797.448l5.706-1.445.296-6.75c.34-7.763.604-7.626-9.296-4.802m14.017.868c-.284.285-.517 4.053-.517 8.375 0 7.515.112 7.901 2.565 8.834 1.411.536 5.93.975 10.042.975h7.477l-.292-7.75-.292-7.75-9.233-1.601c-5.078-.88-9.465-1.368-9.75-1.083M59.75 166.6c-4.696 1.444-5.927 2.758-3.5 3.738 1 .403 1 .52 0 .583-.687.043-1.25.579-1.25 1.19 0 .721 1.317.907 3.75.53l3.75-.582-3.485 1.305c-2.675 1.001-3.533 1.925-3.69 3.97-.232 3.009.285 3.137 6.059 1.497 5.211-1.479 6.57-2.617 4.608-3.857q-1.493-.944-.242-.959c2.153-.026 1.361-1.854-1-2.309-2.238-.431-2.238-.434-.067-.57 1.75-.109 2.166-.731 2.098-3.136-.096-3.375-.407-3.437-7.031-1.4m82.355 8.252c-2.258 3.172-2.784 7.61-1.029 8.695.591.365 3.539.357 6.549-.019l5.474-.684-.299-5.172-.3-5.172-4.145-.302c-3.617-.264-4.412.073-6.25 2.654m-80.292.831c.721.289 1.584.253 1.916-.079s-.258-.568-1.312-.525c-1.165.048-1.402.285-.604.604m-4 1c.721.289 1.584.253 1.916-.079s-.258-.568-1.312-.525c-1.165.048-1.402.285-.604.604m163.145.868c-.977 1.177-1.056 2.07-.291 3.283 1.706 2.704 3.833 2.01 3.833-1.251 0-3.403-1.629-4.338-3.542-2.032m-140.14 3.824c-9.176 1.719-17.05 3.499-17.498 3.956s.308.583 1.682.279c10.642-2.355 37.631-4.796 49.084-4.439 7.05.22 12.609.19 12.353-.066-.771-.77-19.608-3.04-24.439-2.944-2.475.049-12.007 1.495-21.182 3.214m41.287 12.018c.332.358 2.582 1.271 5 2.03l4.395 1.379-6.417.099c-7.983.123-7.171 1.279 1.531 2.18 9.767 1.011 10.612 2.902 1.336 2.989-8.552.081-6.944 1.743 1.8 1.86 5.247.07 5.25.072 5.228 3.32-.012 1.787-.906 5.198-1.986 7.579-2.267 4.995-.568 5.321 2.285.437 4.01-6.867 2.937-17.476-2.037-20.138-2.089-1.117-11.998-2.661-11.135-1.735m-62.768 4.538c-2.29.374-4.876 1.271-5.746 1.993-2.317 1.923-3.996 8.391-3.047 11.735.714 2.516.886 2.174 1.507-2.985.385-3.204 1.191-6.316 1.789-6.914.599-.599 4.142-1.875 7.874-2.836 6.776-1.745 5.496-2.28-2.377-.993"/></svg>