<?xml version="1.0" encoding="UTF-8"?>
<!DOCTYPE svg PUBLIC "-//W3C//DTD SVG 1.1//EN" "http://www.w3.org/Graphics/SVG/1.1/DTD/svg11.dtd">
<!-- Creator: CorelDRAW 2020 (64 Bit) -->
<svg xmlns="http://www.w3.org/2000/svg" xml:space="preserve" width="28.7756mm" height="22.9802mm" version="1.1" style="shape-rendering:geometricPrecision; text-rendering:geometricPrecision; image-rendering:optimizeQuality; fill-rule:evenodd; clip-rule:evenodd"
viewBox="0 0 2877.56 2298.02"
 xmlns:xlink="http://www.w3.org/1999/xlink"
 xmlns:xodm="http://www.corel.com/coreldraw/odm/2003">
 <defs>
  <style type="text/css">
   <![CDATA[
    .fil0 {fill:black}
    .fil2 {fill:black}
    .fil11 {fill:#663333}
    .fil6 {fill:#666666}
    .fil10 {fill:#999999}
    .fil4 {fill:#CCCCCC}
    .fil5 {fill:#FFAE00}
    .fil3 {fill:#FFAE00}
    .fil9 {fill:white}
    .fil7 {fill:white}
    .fil8 {fill:black;fill-opacity:0.231373}
    .fil1 {fill:url(#id0)}
   ]]>
  </style>
  <radialGradient id="id0" gradientUnits="userSpaceOnUse" gradientTransform="matrix(1.25986 1.25986 -1.25986 1.25986 699 -1782)" cx="1246.65" cy="811.97" r="1330.95" fx="1246.65" fy="811.97">
   <stop offset="0" style="stop-opacity:1; stop-color:#FFAE00"/>
   <stop offset="1" style="stop-opacity:1; stop-color:#FF6600"/>
  </radialGradient>
 </defs>
 <g id="Camada_x0020_1">
  <metadata id="CorelCorpID_0Corel-Layer"/>
  <g id="_2096677071456">
   <path class="fil0" d="M1246.65 346.75c489.04,0 898.59,340.28 1004.82,796.99 -158.83,-399.38 -548.84,-681.73 -1004.82,-681.73 -455.95,0 -845.95,282.32 -1004.8,681.67 106.26,-456.67 515.79,-796.93 1004.8,-796.93z"/>
   <path class="fil1" d="M1246.65 528.61c187.67,0 363.68,49.9 515.49,137.15l-306.17 30.09 355.2 0c180.27,117.38 321.73,289.34 400.96,492.43l-393.79 38.7 408.01 0c36.48,105.81 56.29,219.4 56.29,337.61 0,287.36 -117.02,547.35 -305.97,735.02l-1460.04 0c-188.94,-187.67 -305.96,-447.66 -305.96,-735.02 0,-70.12 7.01,-138.6 20.29,-204.82l565.34 0 -552.94 -54.34c21.24,-82.47 52.4,-160.96 92.11,-234.13l319.48 0 -302.68 -29.75c22.11,-37.73 46.55,-73.92 73.1,-108.4l843.24 0 -778.25 -76.49c189.02,-201.87 457.9,-328.05 756.29,-328.05z"/>
   <path class="fil2" d="M578.33 2032.4c-11.53,1.63 -25.22,9.55 -42.52,15.49 -17.3,5.95 -38.2,9.92 -56.77,17.49 -18.56,7.57 -34.77,18.74 -53.52,28.47 -18.74,9.73 -40,18.02 -53.87,25.41 -13.88,7.39 -20.37,13.87 -18.21,20.54 2.17,6.67 12.98,13.52 18.02,19.29 5.05,5.76 4.32,10.44 0.54,14.05 -3.78,3.61 -10.63,6.12 -21.98,3.96 -11.35,-2.16 -27.22,-9 -37.49,-16.39 -10.26,-7.39 -14.95,-15.32 -14.05,-21.45 0.9,-6.13 7.39,-10.45 11.35,-16.04 3.97,-5.58 5.41,-12.43 2.53,-13.88 -2.89,-1.44 -10.09,2.53 -24.69,3.79 -14.6,1.27 -36.58,-0.18 -53.34,-1.26 -16.76,-1.08 -28.29,-1.8 -36.94,7.75 -8.65,9.55 -14.42,29.37 -21.81,43.43 -7.39,14.06 -16.4,22.34 -30.1,35.85 -13.69,13.52 -32.07,32.26 -50.28,44.88 -18.2,12.61 -36.22,19.1 -55.32,27.03 -19.1,7.93 -39.29,17.3 -40.37,25.59 -0.15,1.09 0.04,2.16 0.53,3.21l2680.06 0c-0.06,-0.22 -0.14,-0.45 -0.26,-0.68 -3.6,-7.21 -38.92,-19.46 -71,-30.27 -32.08,-10.81 -60.9,-20.19 -89.38,-43.98 -28.47,-23.78 -56.58,-61.98 -89.38,-78.92 -32.8,-16.94 -70.28,-12.61 -96.95,-4.33 -26.67,8.29 -42.53,20.55 -62.35,23.79 -19.82,3.24 -43.61,-2.53 -56.23,-13.34 -12.61,-10.81 -14.05,-26.67 -15.49,-25.95 -1.44,0.73 -2.89,18.03 -6.13,28.47 -3.24,10.46 -8.28,14.07 -12.97,10.1 -4.69,-3.96 -9.01,-15.5 -7.57,-28.12 1.44,-12.61 8.65,-26.3 8.65,-38.92 0,-12.61 -7.21,-24.14 -18.74,-29.91 -11.54,-5.77 -27.4,-5.77 -40.37,-0.36 -12.97,5.41 -23.07,16.21 -29.91,20.54 -6.85,4.32 -10.46,2.17 -14.6,-8.46 -4.14,-10.64 -8.83,-29.74 -13.47,-42.92 -4.64,-13.18 -9.24,-20.45 -12.67,-13.79 -3.42,6.67 -5.66,27.27 -13.78,47.83 -8.11,20.56 -22.09,41.08 -65.88,55.14 -43.79,14.06 -117.38,21.65 -318.17,13.91 -200.79,-7.73 -528.75,-30.8 -724.09,-49.9 -195.34,-19.1 -258.05,-34.24 -294.09,-44.15 -36.04,-9.91 -45.41,-14.61 -56.94,-12.99z"/>
   <path class="fil2" d="M1857.48 1450.68c-0.36,11.87 -1.32,33.57 -1.22,45.09 0.09,11.53 1.24,12.87 16.13,43.5 14.88,30.63 43.49,90.55 58.76,121.46 15.27,30.93 17.18,32.86 43.88,69.15 26.69,36.3 78.16,106.97 104.66,142.51 26.5,35.52 28.04,35.9 50.12,39.12 22.08,3.22 64.71,9.28 87.75,12.1 23.04,2.83 26.51,2.45 81.52,4.18 55.03,1.73 161.61,5.57 215.57,6.81 53.96,1.26 55.31,-0.09 62.22,-5.85 6.91,-5.76 19.4,-15.94 36.19,-34.67 16.81,-18.73 37.93,-45.99 54.54,-78.55 16.62,-32.55 28.72,-70.38 35.63,-106.59 6.91,-36.19 8.66,-70.76 9.8,-88.81 1.15,-18.06 1.72,-19.6 12.77,-32.66 11.04,-13.05 32.54,-37.63 43.01,-50.5 10.47,-12.87 9.89,-14.02 2.79,-21.8 -7.1,-7.78 -20.75,-22.19 -27.65,-29.77 -6.92,-7.58 -7.12,-8.35 -1.06,-18.53 6.06,-10.17 18.33,-29.77 25.24,-39.37 6.93,-9.61 8.46,-9.22 16.23,-7.97 7.79,1.25 21.81,3.36 32.46,2.88 10.67,-0.48 17.97,-3.56 22.96,-11.04 5,-7.49 7.67,-19.4 0.09,-31.89 -7.6,-12.48 -25.46,-25.53 -36.32,-33.02 -10.84,-7.49 -14.69,-9.41 -15.36,-15.65 -0.67,-6.25 1.82,-16.82 3.27,-23.64 1.44,-6.81 1.83,-9.88 0.38,-12.09 -1.44,-2.21 -4.7,-3.56 -7.39,-4.71 -2.69,-1.15 -4.81,-2.11 -5.87,-3.26 -1.05,-1.16 -1.05,-2.5 1.83,-30.24 2.88,-27.76 8.64,-81.92 14.97,-147.9 6.36,-65.97 13.26,-143.75 16.91,-182.64 3.64,-38.9 4.02,-38.9 5.76,-39.37 1.73,-0.49 4.8,-1.45 6.43,-2.98 1.63,-1.53 1.83,-3.65 3.94,-21.98 2.12,-18.34 6.14,-52.92 7.77,-70.3 1.65,-17.37 0.87,-17.57 -0.86,-18.24 -1.73,-0.67 -4.41,-1.83 -6.43,-2.79 -2.02,-0.95 -3.36,-1.73 -1.25,-31.21 2.11,-29.47 7.66,-87.65 11.41,-117.72 3.73,-30.06 5.65,-31.97 12.18,-43.49 6.52,-11.54 17.66,-32.67 22.65,-45.74 4.99,-13.06 3.83,-18.05 -2.51,-44.55 -6.33,-26.5 -17.85,-74.52 -23.43,-101.21 -5.56,-26.69 -5.18,-32.07 0.58,-74.61 5.75,-42.53 16.89,-122.23 21.59,-164.58 4.7,-42.35 2.97,-47.33 -15.66,-62.99 -18.63,-15.65 -54.16,-41.96 -74.71,-55.6 -20.54,-13.64 -26.11,-14.6 -33.41,-14.5 -7.29,0.1 -16.33,1.25 -21.51,2.02 -5.18,0.77 -6.53,1.15 -9.51,0.09 -2.98,-1.05 -7.59,-3.55 -14.7,-6.43 -7.1,-2.88 -16.7,-6.14 -25.14,-6.72 -8.46,-0.57 -15.75,1.54 -24.4,7.01 -8.65,5.47 -18.63,14.3 -27.76,31.49 -9.13,17.17 -17.39,42.72 -21.51,56.82 -4.13,14.13 -4.13,16.82 -5.29,18.55 -1.15,1.72 -3.45,2.5 -6.44,4.13 -2.97,1.63 -6.62,4.14 -62.89,45.89 -56.27,41.77 -165.18,122.81 -220.96,162.93 -55.8,40.14 -58.5,39.37 -62.23,37.93 -3.75,-1.44 -8.55,-3.56 -11.92,-3.84 -3.35,-0.28 -5.27,1.25 -55.69,44.36 -50.4,43.12 -149.31,127.81 -200.87,170.82 -51.56,43.01 -55.78,44.35 -62.41,44.35 -6.62,0 -15.65,-1.34 -20.93,-1.43 -5.28,-0.1 -6.82,1.05 -22.86,14.3 -16.03,13.25 -46.57,38.6 -62.51,51.57 -15.95,12.95 -17.29,13.52 -38.23,25.43 -20.93,11.92 -61.45,35.15 -98.32,58.29 -36.88,23.14 -70.11,46.19 -98.06,75 -27.93,28.8 -50.6,63.38 -74.6,119.25 -24.01,55.89 -49.36,133.09 -62.41,173.04 -13.06,39.95 -13.84,42.64 -14.42,39.67 -0.56,-2.98 -0.95,-11.62 -2.01,-17.97 -1.05,-6.33 -2.78,-10.37 -4.51,-12.68 -1.72,-2.3 -3.46,-2.87 -47.82,-13.34 -44.37,-10.47 -131.36,-30.82 -177.17,-40.9 -45.8,-10.08 -50.4,-9.9 -56.56,-8.65 -6.14,1.25 -13.82,3.55 -50.6,18.06 -36.78,14.49 -102.65,41.18 -139.62,56.94 -36.97,15.74 -45.03,20.55 -51.28,29.19 -6.25,8.64 -10.65,21.13 -12.77,29.28 -2.11,8.17 -1.92,12.01 -4.13,57.99 -2.21,46 -6.82,134.15 -9.61,178.61 -2.79,44.45 -3.74,45.23 -9.12,46.95 -5.38,1.73 -15.17,4.42 -60.41,15.94 -45.22,11.53 -125.87,31.88 -167.55,43.31 -41.67,11.43 -44.36,13.93 -45.89,18.53 -1.55,4.61 -1.94,11.32 -3.39,50.69 -1.43,39.36 -3.94,111.39 -4.03,150.56 -0.1,39.19 2.2,45.51 4.98,49.36 2.78,3.84 6.05,5.19 39.27,6.72 33.22,1.54 96.4,3.27 128.86,4.14 32.45,0.86 34.19,0.86 34.95,3.35 0.77,2.5 0.57,7.49 -1.83,10.08 -2.4,2.59 -7.01,2.78 -11.53,3.07 -4.51,0.29 -8.93,0.67 -12.2,2.4 -3.26,1.73 -5.37,4.79 -8.06,6.63 -2.69,1.82 -5.96,2.39 -10.47,2.77 -4.51,0.39 -10.26,0.58 -15.16,1.16 -4.9,0.58 -8.94,1.54 -11.92,3.45 -2.96,1.92 -4.9,4.81 -7.96,6.54 -3.07,1.73 -7.3,2.3 -12.49,2.59 -5.18,0.29 -11.32,0.29 -16.22,0.67 -4.9,0.39 -8.55,1.15 -12.2,3.27 -3.65,2.12 -7.29,5.57 -12.19,7 -4.9,1.44 -11.04,0.87 -18.54,2.3 -4.61,0.9 -9.74,2.55 -15.35,5.91 20.55,-1.83 49.67,-3.75 92.58,-5.61 101.56,-4.41 280.36,-8.53 367.95,-10.26 87.6,-1.73 84.01,-1.07 0.74,4.16 -83.27,5.22 -246.21,15.01 -344.67,22.68 -84.82,6.62 -121.76,11.66 -149.38,23.78 -2.82,4.06 -5.48,8.11 -7.87,11.97 -8.17,13.15 -13.16,23.91 -18.16,43.5 -4.99,19.58 -9.98,48.01 -7.29,75.09 2.69,27.08 13.06,52.81 20.36,68.55 7.29,15.76 11.53,21.51 12.47,24.78 0.96,3.26 -1.33,4.04 -14.39,5.77 -13.06,1.72 -36.88,4.41 -56.08,9.39 -19.2,5 -33.79,12.31 -38.41,16.53 -4.61,4.22 0.76,5.38 25.35,4.02 24.58,-1.33 68.37,-5.18 222.29,-2.87 153.94,2.3 417.99,10.75 553.08,12.58 135.11,1.82 141.25,-2.98 150.76,-5 9.51,-2.02 22.37,-1.25 132.69,2.02 110.34,3.26 318.13,9.03 425.38,11.34 107.26,2.3 113.98,1.15 103.03,-2.7 -10.94,-3.83 -39.56,-10.37 -59.15,-15.07 -19.59,-4.7 -30.14,-7.59 -32.17,-10.95 -2.01,-3.36 4.52,-7.2 10.08,-11.14 5.57,-3.94 10.19,-7.96 13.35,-12.39 3.17,-4.41 4.91,-9.21 7.68,-13.53 2.8,-4.33 6.64,-8.17 9.41,-12.49 2.8,-4.31 4.52,-9.12 6.15,-16.23 1.63,-7.1 3.17,-16.51 4.9,-23.9 1.73,-7.4 3.65,-12.77 4.32,-23.44 0.67,-10.66 0.1,-26.6 -0.39,-42.55 -0.47,-15.94 -0.86,-31.88 -2.39,-44.56 -1.54,-12.67 -4.23,-22.08 -8.17,-30.05 -3.94,-7.97 -9.12,-14.5 -13.64,-21.81 -4.49,-7.28 -8.35,-15.36 -15.47,-23.99 -7.09,-8.65 -17.47,-17.87 -26.2,-23.34 -8.74,-5.47 -15.84,-7.2 -89.79,-9.7 -73.94,-2.5 -214.7,-5.76 -285.67,-7.77 -70.96,-2.02 -72.12,-2.8 -73.65,-6.68 -1.53,-3.89 -3.46,-10.9 -3.9,-14.65 -0.43,-3.74 0.63,-4.23 5.82,-4.8 5.18,-0.57 14.5,-1.24 47.81,-3.65 33.33,-2.4 90.65,-6.54 120.17,-9.08 29.54,-2.55 31.26,-3.51 35.16,-9.51 3.88,-6.01 9.94,-17.05 12.57,-25.95 2.64,-8.89 1.87,-15.61 0.43,-19.31 -1.44,-3.68 -3.54,-4.36 -7.1,-5.42 -3.55,-1.06 -8.54,-2.49 -10.95,-3.5 -2.39,-1.01 -2.2,-1.58 -2.5,-23.48 -0.29,-21.9 -1.07,-65.12 -2.18,-87.59 -1.1,-22.47 -2.54,-24.2 -4.18,-25.25 -1.63,-1.06 -3.45,-1.45 -21.08,-1.89 -17.62,-0.43 -51.03,-0.91 -67.89,-1.2 -16.85,-0.28 -17.14,-0.38 -6.92,-26.27 10.23,-25.88 30.96,-77.53 58.23,-146.96 27.26,-69.43 61.07,-156.63 77.77,-200.8 16.71,-44.16 16.32,-45.33 14.22,-47.92 -2.12,-2.6 -5.96,-6.62 -7.6,-9.03 -1.62,-2.39 -1.05,-3.16 12.49,-40.13 13.53,-36.97 40.04,-110.15 53.58,-147.02 13.54,-36.87 14.11,-37.45 15.08,-38.13 0.96,-0.66 2.3,-1.44 115.51,-69.33 113.21,-67.9 338.28,-202.91 451.48,-270.81 113.21,-67.88 114.56,-68.66 115.23,-66.26 0.68,2.41 0.68,7.98 1.45,50.23 0.76,42.25 2.3,121.18 3.82,238.43 1.54,117.24 3.08,272.8 3.46,350.77 0.38,77.96 -0.39,78.36 -16.04,88.83 -15.65,10.47 -46.18,31 -62.7,41.66 -16.51,10.66 -19.01,11.43 -32.27,9.98 -13.25,-1.44 -37.25,-5.09 -49.74,-6.14 -12.49,-1.05 -13.44,0.48 -52.23,24.87 -38.79,24.39 -115.41,71.64 -155.07,95.24 -39.66,23.63 -42.34,23.63 -62.99,25.54 -20.65,1.92 -59.24,5.76 -78.93,7.67 -19.68,1.93 -20.46,1.93 -28.33,-5.85 -7.88,-7.77 -22.86,-23.33 -30.64,-31 -7.77,-7.69 -8.34,-7.49 -11.99,-6.92 -3.66,0.58 -10.37,1.53 -13.54,2.98 -3.17,1.44 -2.79,3.35 -2.3,11.23 0.47,7.87 1.05,21.7 0.66,28.71 -0.38,7 -1.73,7.21 -3.45,7.39 -1.73,0.2 -3.85,0.39 -5.57,-0.29 -1.73,-0.67 -3.08,-2.21 -12.67,-13.35 -9.61,-11.14 -27.48,-31.87 -37.36,-42.24 -9.89,-10.37 -11.81,-10.37 -16.04,-9.98 -4.22,0.37 -10.75,1.15 -13.91,2.54 -3.14,1.4 -2.9,3.42 -3.26,15.28zm358 -980.27c12.3,-10.56 34.58,-27.85 45.72,-36.87 11.14,-9.02 11.14,-9.8 9.98,-13.44 -1.14,-3.65 -3.45,-10.17 -4.41,-13.55 -0.96,-3.36 -0.57,-3.54 47.15,-37.25 47.72,-33.69 142.78,-100.92 192.03,-135.78 49.27,-34.86 52.72,-37.35 55.61,-39.17 2.88,-1.83 5.19,-2.98 2.69,2.2 -2.49,5.19 -9.79,16.71 -16.42,32.17 -6.62,15.46 -12.58,34.86 -15.86,50.12 -3.25,15.28 -3.82,26.42 -3.82,33.61 0,7.2 0.57,10.47 0.38,12.39 -0.19,1.93 -1.15,2.49 -22.66,7.49 -21.51,5 -63.57,14.41 -85.57,19.79 -21.98,5.38 -23.9,6.72 -25.82,9.3 -1.92,2.6 -3.83,6.45 -7.01,12.59 -3.17,6.15 -7.58,14.59 -10.56,19.68 -2.98,5.1 -4.52,6.82 -33.42,21.71 -28.9,14.88 -85.17,42.92 -113.88,57.32 -28.72,14.4 -29.87,15.17 -29.3,13.64 0.58,-1.53 2.89,-5.39 15.17,-15.95zm-692.18 982.23c56.36,-89.3 166.4,-263.09 222.09,-350.58 55.7,-87.47 57.04,-88.63 47.34,-60.88 -9.7,27.76 -30.44,84.41 -41.19,113.41 -10.76,29 -11.52,30.35 -12.58,31.11 -1.06,0.77 -2.4,0.96 -5.28,1.05 -2.88,0.1 -7.3,0.1 -9.99,1.55 -2.69,1.44 -3.65,4.31 -27.26,65.96 -23.63,61.65 -69.91,182.07 -93.34,242.74 -23.43,60.69 -24,61.65 -27.37,61.84 -3.35,0.19 -9.5,-0.38 -29,-1.06 -19.49,-0.66 -52.33,-1.43 -68.75,-2.49 -16.42,-1.06 -16.42,-2.4 -15.08,-5.48 1.35,-3.06 4.04,-7.87 60.41,-97.17z"/>
   <path class="fil3" d="M618.72 1620c-0.49,-4.03 -1.16,-10.37 -0.96,-13.68 0.19,-3.32 1.24,-3.61 22.98,-9.65 21.76,-6.05 64.21,-17.87 85.67,-23.68 21.46,-5.8 21.94,-5.62 22.61,-1.54 0.68,4.09 1.54,12.06 1.59,16.44 0.05,4.36 -0.72,5.13 -1.78,5.7 -1.06,0.58 -2.4,0.97 -23.86,6.58 -21.47,5.62 -63.04,16.48 -83.93,21.9 -20.89,5.42 -21.07,5.42 -21.32,4.56 -0.24,-0.86 -0.53,-2.6 -1,-6.63z"/>
   <path class="fil3" d="M619.29 1655.14c-0.48,-4.02 -1.15,-10.36 -0.96,-13.68 0.19,-3.3 1.25,-3.6 22.99,-9.64 21.75,-6.05 64.2,-17.88 85.67,-23.68 21.45,-5.81 21.94,-5.61 22.61,-1.54 0.67,4.09 1.54,12.06 1.59,16.43 0.05,4.37 -0.73,5.13 -1.78,5.7 -1.06,0.58 -2.4,0.97 -23.86,6.59 -21.47,5.62 -63.05,16.47 -83.94,21.9 -20.88,5.43 -21.07,5.43 -21.31,4.56 -0.24,-0.87 -0.53,-2.6 -1.01,-6.64z"/>
   <path class="fil3" d="M619.87 1692.59c-0.49,-4.02 -1.15,-10.36 -0.96,-13.67 0.19,-3.31 1.24,-3.6 22.99,-9.66 21.76,-6.04 64.2,-17.86 85.67,-23.67 21.46,-5.8 21.94,-5.62 22.61,-1.54 0.68,4.09 1.54,12.06 1.59,16.43 0.05,4.37 -0.73,5.14 -1.79,5.7 -1.05,0.59 -2.4,0.98 -23.86,6.6 -21.46,5.61 -63.04,16.47 -83.93,21.89 -20.88,5.43 -21.07,5.43 -21.31,4.56 -0.24,-0.86 -0.53,-2.6 -1.01,-6.64z"/>
   <path class="fil3" d="M620.44 1730.06c-0.47,-4.04 -1.14,-10.37 -0.96,-13.69 0.2,-3.31 1.25,-3.6 22.99,-9.65 21.76,-6.05 64.21,-17.86 85.68,-23.67 21.47,-5.81 21.94,-5.62 22.61,-1.54 0.67,4.08 1.53,12.06 1.59,16.42 0.04,4.37 -0.73,5.14 -1.79,5.72 -1.05,0.57 -2.4,0.96 -23.86,6.58 -21.46,5.61 -63.04,16.47 -83.93,21.89 -20.88,5.43 -21.07,5.43 -21.31,4.57 -0.24,-0.87 -0.53,-2.61 -1.02,-6.63z"/>
   <path class="fil4" d="M906.17 1434.65c0.79,-43.3 2.21,-126.45 4.07,-170.09 1.88,-43.64 4.18,-47.77 9.36,-52.47 5.19,-4.71 13.25,-10 20.03,-13.65 6.77,-3.63 12.24,-5.66 15.17,-6.53 2.93,-0.86 3.32,-0.57 3.55,0.25 0.25,0.81 0.34,2.16 -0.44,48.97 -0.76,46.81 -2.39,139.08 -3.25,185.56 -0.88,46.47 -0.97,47.14 -9.04,49.35 -8.07,2.21 -24.11,5.95 -32.18,7.69 -8.06,1.71 -8.15,1.43 -8.15,-0.44 0.01,-1.87 0.11,-5.33 0.88,-48.64z"/>
   <path class="fil4" d="M969.72 1417.16c1.83,-47.34 5.37,-140.78 7.28,-187.88 1.92,-47.1 2.21,-47.87 2.73,-48.55 0.53,-0.67 1.31,-1.24 20.08,-9.16 18.77,-7.92 55.55,-23.18 76,-31.16 20.46,-7.97 24.58,-8.64 29.14,-8.21 4.57,0.43 9.56,1.96 14.7,4.94 5.13,2.98 10.42,7.39 13.58,11.25 3.17,3.83 4.22,7.1 4.75,50.45 0.53,43.36 0.55,126.8 0.3,169.15 -0.24,42.34 -0.73,43.59 -1.69,44.55 -0.96,0.96 -2.39,1.63 -30.48,10.82 -28.09,9.19 -82.81,26.92 -110.32,35.6 -27.51,8.7 -27.8,8.37 -27.9,7.57 -0.09,-0.78 0.01,-2.03 1.83,-49.37z"/>
   <path class="fil4" d="M1003.41 1491.57c27.46,-7.39 78.55,-22.19 105.14,-29.57 26.6,-7.4 28.71,-7.4 30.16,-6.83 1.43,0.58 2.21,1.74 2.11,25.84 -0.1,24.1 -1.06,71.15 -1.54,95.53 -0.48,24.4 -0.48,26.13 -2.21,27.86 -1.73,1.73 -5.18,3.45 -26.79,9.3 -21.6,5.87 -61.36,15.86 -81.81,20.36 -20.45,4.52 -21.61,3.56 -28.63,-2.87 -7,-6.43 -19.86,-18.35 -26.49,-26.02 -6.61,-7.69 -7.01,-11.14 -7.59,-27.75 -0.57,-16.62 -1.35,-46.39 -0.96,-61.66 0.39,-15.26 1.92,-16.03 4.61,-16.41 2.69,-0.38 6.54,-0.38 34,-7.78z"/>
   <path class="fil4" d="M1191.47 1394.54c-2,-49.6 -6.04,-146.58 -5.95,-197.09 0.1,-50.51 4.33,-54.55 7.4,-57.06 3.07,-2.48 4.99,-3.43 8.83,-3.35 3.85,0.1 9.6,1.26 40.33,8.65 30.72,7.39 86.42,21.02 114.65,28.52 28.23,7.49 29,8.83 30.15,13.62 1.16,4.81 2.69,13.07 5.76,62.9 3.08,49.84 7.7,141.26 8.85,187.35 1.15,46.1 -1.15,46.87 -3.65,47.26 -2.49,0.38 -5.18,0.38 -38.98,-5.5 -33.81,-5.88 -98.71,-17.65 -131.49,-23.86 -32.76,-6.18 -33.38,-6.81 -33.68,-8.22 -0.28,-1.4 -0.24,-3.62 -2.22,-53.22z"/>
   <path class="fil4" d="M1239.34 1490.89c34.47,6.05 100.53,17.57 134.14,23.43 33.61,5.87 34.76,6.05 35.81,7.2 1.06,1.16 2.02,3.27 2.99,30.06 0.96,26.79 1.91,78.25 0.85,105.62 -1.05,27.37 -4.12,30.64 -7.01,32.75 -2.88,2.11 -5.56,3.07 -37.64,1.81 -32.06,-1.24 -93.51,-4.7 -126.55,-8.44 -33.03,-3.75 -37.65,-7.77 -41,-14.3 -3.36,-6.53 -5.49,-15.56 -6.54,-46.58 -1.05,-31.01 -1.05,-84.02 -0.09,-110.81 0.96,-26.79 2.88,-27.36 5.28,-27.36 2.4,0 5.28,0.57 39.76,6.62z"/>
   <path class="fil3" d="M800.77 1774.34c69.72,-12.77 207.22,-37.93 277.22,-50.51 70,-12.58 72.51,-12.58 125.79,-5.67 53.29,6.93 157.39,20.74 210.3,27.86 52.91,7.1 54.63,7.49 4.6,5.66 -50.02,-1.83 -151.81,-5.85 -205.1,-7.88 -53.3,-2 -58.1,-2 -102.75,3.37 -44.65,5.38 -129.14,16.13 -205.4,25.92 -76.24,9.8 -144.22,18.62 -179.85,23.14 -35.62,4.52 -38.88,4.71 -33.22,2.6 5.67,-2.12 20.26,-6.54 28.52,-8.93 8.26,-2.41 10.18,-2.79 79.89,-15.56z"/>
   <path class="fil5" d="M1437.76 1352.6c-1.14,-34.85 -3.25,-93.62 -4.02,-123.68 -0.77,-30.04 -0.19,-31.39 13.53,-67.88 13.73,-36.49 40.62,-108.11 63.08,-158.72 22.48,-50.6 40.52,-80.18 59.53,-106.01 19.01,-25.83 38.99,-47.91 62.42,-67.51 23.43,-19.58 50.32,-36.67 76.91,-53.48 26.6,-16.8 52.91,-33.32 95.83,-57.51 42.92,-24.2 102.46,-56.09 201.93,-108.13 99.49,-52.05 238.91,-124.27 309.2,-161.23 70.3,-36.97 71.44,-38.7 74.24,-42.93 2.78,-4.23 7.19,-10.95 10.25,-15.27 3.08,-4.32 4.81,-6.23 36.2,-16.9 31.41,-10.66 92.48,-30.05 129.45,-37.06 36.97,-7.02 49.83,-1.64 56.65,4.22 6.82,5.87 7.59,12.2 5,19.49 -2.59,7.31 -8.55,15.56 -44.56,42.44 -36.01,26.89 -102.07,72.41 -136.26,96.41 -34.18,24.01 -36.48,26.51 -45.31,27.18 -8.84,0.68 -24.21,-0.48 -32.66,-0.48 -8.43,0 -9.97,1.16 -116.29,68.56 -106.3,67.41 -317.35,201.06 -433.64,278.07 -116.29,77.01 -137.79,97.35 -163.53,133.84 -25.73,36.49 -55.7,89.11 -92.09,159.97 -36.39,70.87 -79.22,159.99 -101.02,203.58 -21.79,43.59 -22.57,41.68 -23.03,35.25 -0.48,-6.42 -0.66,-17.37 -1.81,-52.22z"/>
   <path class="fil3" d="M2581.23 279.51c4.89,-23.81 13.92,-67.78 19.1,-91.4 5.18,-23.62 6.54,-26.9 25.53,-46.39 19.03,-19.49 55.71,-55.21 75.68,-74.12 19.97,-18.92 23.24,-21.04 27.56,-21.9 4.33,-0.86 9.7,-0.49 15.65,0.09 5.95,0.58 12.48,1.36 16.8,2.5 4.33,1.15 6.44,2.69 5.48,26.12 -0.96,23.43 -5,68.76 -17.57,188.5 -12.59,119.73 -33.71,313.88 -51.37,475.11 -17.66,161.23 -31.88,289.51 -39.75,353.18 -7.87,63.65 -9.41,62.69 -11.91,61.74 -2.49,-0.96 -5.95,-1.92 -7.77,-4.51 -1.83,-2.59 -2.02,-6.82 -1.55,-17.19 0.48,-10.37 1.65,-26.89 -0.38,-40.15 -2.01,-13.24 -7.2,-23.24 -14.69,-28.61 -7.49,-5.38 -17.28,-6.15 -24.87,-4.8 -7.58,1.35 -12.96,4.81 -16.9,7.5 -3.94,2.69 -6.43,4.59 -7.59,2.88 -1.15,-1.74 -0.95,-7.11 -0.57,-39.58 0.38,-32.45 0.95,-91.98 0.57,-180.04 -0.37,-88.05 -1.71,-204.61 -3.06,-275.96 -1.34,-71.34 -2.69,-97.45 -3.08,-110.91 -0.37,-13.44 0.2,-14.21 16.33,-26.98 16.14,-12.78 47.82,-37.55 63.67,-56.47 15.84,-18.92 15.84,-31.97 9.51,-42.83 -6.34,-10.85 -19.02,-19.49 -32.65,-23.33 -13.64,-3.85 -28.23,-2.89 -36.49,-2.31 -8.27,0.58 -10.18,0.77 -10.76,-0.96 -0.58,-1.72 0.18,-5.36 5.08,-29.18z"/>
   <path class="fil6" d="M2565.16 1111.98c1.53,-8.63 6.15,-17.85 12,-24.1 5.86,-6.24 12.96,-9.49 19.21,-7.96 6.24,1.54 11.62,7.87 14.78,18.72 3.17,10.86 4.13,26.22 5.28,35.24 1.16,9.03 2.51,11.72 17.1,42.06 14.59,30.35 42.45,88.35 57.43,117.35 14.97,28.99 17.08,28.99 20.55,30.81 3.44,1.83 8.24,5.47 12.28,11.82 4.04,6.34 7.3,15.36 8.64,24.77 1.35,9.41 0.78,19.21 -4.31,27.75 -5.1,8.54 -14.69,15.86 -24.02,19.11 -9.3,3.27 -18.33,2.5 -25.25,-2.39 -6.91,-4.9 -11.71,-13.93 -13.44,-24.3 -1.73,-10.37 -0.39,-22.09 0.67,-29.48 1.06,-7.39 1.83,-10.46 2.02,-13.15 0.19,-2.69 -0.19,-4.99 -13.06,-34.09 -12.86,-29.09 -38.22,-84.99 -52.72,-113.22 -14.5,-28.22 -18.14,-28.8 -21.79,-30.15 -3.66,-1.34 -7.31,-3.46 -9.61,-7.59 -2.31,-4.13 -3.27,-10.27 -4.51,-17.38 -1.24,-7.11 -2.78,-15.16 -1.25,-23.82z"/>
   <path class="fil6" d="M2565.45 1255.73c-0.28,-18.52 1.63,-54.63 3.64,-71.52 2.03,-16.9 4.13,-14.61 14.5,8.81 10.38,23.44 29,68 37.08,90.18 8.07,22.18 5.57,22 -4.53,17.1 -10.07,-4.9 -27.73,-14.5 -37.82,-19.79 -10.08,-5.28 -12.58,-6.24 -12.87,-24.78z"/>
   <path class="fil3" d="M2735.4 1206.81c6.44,-66 17.96,-194.49 25.35,-259.5 7.4,-65.01 10.67,-66.54 13.44,-66.93 2.8,-0.38 5.09,0.39 8.07,1.34 2.98,0.96 6.63,2.13 8.75,3.47 2.11,1.35 2.67,2.88 -2.66,69.27 -5.32,66.41 -16.56,197.67 -22.62,263.3 -6.04,65.63 -6.9,65.63 -12.09,65.25 -5.19,-0.39 -14.69,-1.16 -19.98,-1.73 -5.28,-0.58 -6.34,-0.96 -6.19,-2.93 0.15,-1.97 1.5,-5.51 7.93,-71.54z"/>
   <path class="fil6" d="M1967.28 1545.02c40.34,-5.76 114.46,-18.05 155.95,-25.15 41.49,-7.11 50.31,-9.02 89.69,-30.92 39.36,-21.89 109.28,-63.76 145.37,-84.7 36.11,-20.93 38.42,-20.93 43.22,-16.9 4.8,4.04 12.1,12.11 21.5,24.96 9.41,12.88 20.94,30.55 25.15,42.83 4.24,12.29 1.17,19.21 -23.41,39.95 -24.59,20.75 -70.67,55.3 -99.3,76.05 -28.61,20.74 -39.75,27.66 -47.05,32.65 -7.29,4.99 -10.75,8.07 4.23,3.46 14.99,-4.61 48.39,-16.9 73.55,-28.43 25.16,-11.51 42.07,-22.27 50.51,-27.08 8.45,-4.79 8.45,-3.64 6.35,18.06 -2.12,21.69 -6.35,63.95 -15.37,101.59 -9.04,37.65 -22.85,70.67 -39.38,104.09 -16.52,33.43 -35.72,67.22 -46.85,85.46 -11.15,18.25 -14.22,20.93 -20.74,22.09 -6.54,1.15 -16.52,0.77 -43.41,-1.35 -26.88,-2.11 -70.67,-5.96 -93.73,-8.83 -23.04,-2.88 -25.33,-4.8 -48.19,-32.65 -22.86,-27.84 -66.25,-81.62 -90.85,-112.16 -24.57,-30.53 -30.33,-37.83 -37.25,-50.32 -6.91,-12.48 -14.97,-30.14 -25.73,-52.42 -10.75,-22.28 -24.2,-49.17 -27.65,-62.22 -3.47,-13.06 3.06,-12.3 43.39,-18.06z"/>
   <path class="fil6" d="M2529.12 1392.18c-3.45,-8.55 -7.16,-20.23 -5.75,-31.55 1.4,-11.31 7.94,-22.26 16.68,-28.59 8.74,-6.34 19.68,-8.07 28.12,-5.57 8.45,2.5 14.41,9.22 17.68,18.05 3.26,8.84 3.83,19.79 2.01,31.4 -1.81,11.62 -6.04,23.92 -14.6,29.96 -8.54,6.05 -21.41,5.86 -29.43,3.06 -8.05,-2.8 -11.25,-8.21 -14.71,-16.76z"/>
   <path class="fil6" d="M2480.87 1751.93c-2.99,-7.39 -6.2,-17.52 -4.99,-27.32 1.22,-9.81 6.88,-19.28 14.45,-24.78 7.56,-5.48 17.05,-6.99 24.37,-4.83 7.32,2.17 12.48,8 15.3,15.65 2.84,7.65 3.33,17.13 1.74,27.2 -1.57,10.07 -5.24,20.71 -12.64,25.95 -7.4,5.24 -18.55,5.08 -25.51,2.64 -6.95,-2.41 -9.73,-7.11 -12.72,-14.51z"/>
   <path class="fil6" d="M2571.23 1689.14c5,4.14 12.3,11.05 16.15,14.61 3.83,3.55 4.22,3.74 5.08,3.16 0.86,-0.57 2.2,-1.92 24.67,-43.79 22.47,-41.86 66.07,-124.25 88.53,-166.21 22.48,-41.96 23.83,-43.5 23.15,-44.56 -0.67,-1.05 -3.36,-1.63 -9.12,-3.08 -5.77,-1.43 -14.59,-3.74 -19.5,-4.9 -4.9,-1.14 -5.84,-1.14 -7,0.39 -1.15,1.54 -2.49,4.61 -24.59,44.46 -22.08,39.85 -64.91,116.48 -86.33,154.79 -21.4,38.31 -21.4,38.31 -20.06,38.99 1.35,0.67 4.03,2.02 9.02,6.14z"/>
   <path class="fil6" d="M2750.22 1391.77c1.72,-7.3 4.98,-19.97 7.48,-26.03 2.5,-6.04 4.23,-5.47 11.23,-3.45 7.02,2.02 19.31,5.47 27.86,8.16 8.54,2.7 13.35,4.61 17.76,7.78 4.42,3.16 8.45,7.59 10.28,11.81 1.82,4.23 1.43,8.25 0.28,11.03 -1.15,2.79 -3.07,4.34 -5.85,4.9 -2.8,0.58 -6.44,0.2 -17.48,-0.48 -11.05,-0.67 -29.48,-1.62 -39.66,-2.1 -10.18,-0.49 -12.1,-0.49 -12.96,-1.45 -0.86,-0.96 -0.67,-2.87 1.06,-10.17z"/>
   <path class="fil3" d="M1580.32 1760.3c-0.87,-10.37 -2.78,-27.46 -2.89,-37.84 -0.08,-10.36 1.63,-14.01 7.59,-24.29 5.96,-10.27 16.13,-27.18 21.9,-36.19 5.76,-9.02 7.1,-10.19 23.81,-10.57 16.7,-0.39 48.78,0 65.1,0.67 16.33,0.67 16.9,1.63 17.67,21.51 0.77,19.88 1.73,58.67 1.64,78.07 -0.1,19.4 -1.26,19.4 -3.18,19.4 -1.92,0 -4.61,0 -26.49,1.15 -21.9,1.16 -63,3.46 -83.65,4.6 -20.64,1.17 -20.83,1.17 -20.83,-0.67 0,-1.82 0.19,-5.47 -0.67,-15.84z"/>
   <path class="fil7" d="M1431.28 1891.98c30.54,2.45 57.96,6.36 79.02,26.28 21.06,19.92 35.76,55.85 36.42,97.32 0.66,41.47 -12.73,88.49 -28.25,116.41 -15.51,27.92 -33.14,36.74 -43.75,42.12 -10.61,5.39 -14.21,7.36 -9.15,2.62 5.07,-4.73 18.79,-16.16 30.21,-36.9 11.43,-20.73 20.58,-50.78 24.16,-86.21 1.45,-14.34 2,-29.55 0.98,-44.36 -2.86,-0.13 -6.02,-0.31 -9.56,-0.57 -35.43,-2.53 -106.78,-11.51 -140.33,-16 -33.55,-4.49 -29.31,-4.49 4,-4.9 33.31,-0.41 95.68,-1.22 128.09,-0.24 6.03,0.18 11.03,0.43 15.18,0.72 -2.26,-11.96 -5.86,-23.2 -11.2,-32.91 -4.38,-0.07 -9.82,-0.31 -16.56,-0.79 -35.43,-2.53 -106.78,-11.51 -140.33,-16 -33.55,-4.49 -29.31,-4.49 4,-4.9 33.31,-0.41 95.68,-1.22 128.09,-0.24 2.59,0.07 5,0.16 7.22,0.26 -17.91,-15.68 -42.03,-24.52 -63.79,-30.6 -28.56,-8 -53.05,-11.27 -67.75,-13.06 -14.69,-1.8 -19.59,-2.13 -5.22,-1.8 14.37,0.32 48,1.31 78.52,3.75zm520.05 27.35c-22.95,-0.42 -59.92,0.06 -80.5,0.31 -22.51,0.28 -25.38,0.28 -2.7,3.31 22.68,3.04 70.92,9.12 94.87,10.82 4.03,0.29 7.38,0.45 10.15,0.52 5.33,4.77 10.1,10.16 14.07,16.29 11.62,17.98 16.33,42.3 17.07,67.06 -5.81,-0.64 -13.76,-1.16 -24.73,-1.49 -36.83,-1.1 -107.69,-0.19 -145.53,0.28 -37.85,0.47 -42.67,0.47 -4.55,5.57 38.12,5.1 119.19,15.31 159.45,18.18 5.8,0.41 10.76,0.67 14.99,0.81 -0.26,4.26 -0.6,8.48 -1.02,12.63 -2.82,27.85 -9.07,52.36 -17.17,71.65 -3.55,-0.46 -8.64,-0.82 -16.05,-1.05 -21.91,-0.66 -64.08,-0.11 -86.6,0.17 -22.51,0.28 -25.38,0.28 -2.7,3.31 22.68,3.04 70.92,9.11 94.87,10.82l4.07 0.26 -0.58 1.05c-11.42,20.74 -25.14,32.17 -30.21,36.9 -5.06,4.74 -1.46,2.77 9.15,-2.62 10.61,-5.38 28.24,-14.2 43.75,-42.12 15.52,-27.92 28.91,-74.94 28.25,-116.41 -0.66,-41.47 -15.36,-77.4 -36.42,-97.32 -21.06,-19.92 -48.48,-23.83 -79.02,-26.28 -30.52,-2.44 -64.15,-3.43 -78.52,-3.75 -14.37,-0.33 -9.47,0 5.22,1.8 14.7,1.79 39.19,5.06 67.75,13.06 14,3.91 28.97,8.96 42.64,16.24z"/>
   <path class="fil8" d="M1959.18 1708.29l1.7 3.44c15.27,30.93 17.18,32.86 43.88,69.15 26.69,36.3 78.16,106.97 104.66,142.5 26.5,35.53 28.05,35.91 50.12,39.13 10.57,1.54 25.84,3.73 41.41,5.91 6.24,-14.72 12.15,-29.61 17.72,-44.67l-1.11 -0.14c-23.04,-2.82 -65.67,-8.88 -87.75,-12.1 -22.07,-3.22 -23.62,-3.6 -50.12,-39.12 -26.5,-35.53 -77.97,-106.21 -104.66,-142.51 -6.61,-8.98 -11.7,-15.86 -15.85,-21.59zm59.13 -834.85c13.3,14.84 26.18,30.07 38.62,45.66l-56.79 34.06c-113.22,67.9 -114.55,68.68 -115.51,69.34 -0.97,0.68 -1.55,1.26 -15.08,38.14 -13.54,36.86 -40.05,110.04 -53.58,147.01 -13.54,36.97 -14.11,37.74 -12.49,40.13 1.64,2.41 5.48,6.43 7.6,9.03 2.1,2.59 2.49,3.76 -14.22,47.92 -16.7,44.16 -50.51,131.36 -77.77,200.79 -20.43,52.02 -37.2,94.07 -48.62,122.77l-32.42 -0.53c-16.85,-0.28 -17.14,-0.38 -6.92,-26.27 10.23,-25.88 30.96,-77.53 58.23,-146.96 27.26,-69.44 61.07,-156.64 77.77,-200.8 16.71,-44.16 16.32,-45.33 14.22,-47.92l-0.12 -0.14 0.03 -0.09c10.77,-28.99 31.5,-85.64 41.2,-113.4 7.61,-21.78 8.42,-25.75 -18.5,15.82 12.67,-34.82 27.03,-74.32 35.86,-98.36 13.53,-36.88 14.11,-37.46 15.08,-38.14 0.96,-0.66 2.29,-1.44 115.51,-69.33l47.9 -28.73zm-1414.28 963.36c0.07,35.36 2.31,41.36 4.98,45.06 2.78,3.84 6.05,5.19 39.27,6.72l11.86 0.51c0.73,-0.5 1.46,-0.97 2.18,-1.39 3.66,-2.12 7.3,-2.89 12.2,-3.27 4.89,-0.39 11.04,-0.39 16.22,-0.67 5.19,-0.29 9.42,-0.86 12.49,-2.59 3.06,-1.74 5,-4.62 7.96,-6.54 2.98,-1.91 7.02,-2.87 11.92,-3.45 4.9,-0.57 10.65,-0.76 15.16,-1.16 4.51,-0.38 7.78,-0.95 10.47,-2.77 2.69,-1.83 4.8,-4.9 8.06,-6.63 3.27,-1.74 7.69,-2.11 12.21,-2.4 4.51,-0.29 9.12,-0.47 11.52,-3.07 2.4,-2.59 2.6,-7.58 1.84,-10.08 -0.77,-2.49 -2.51,-2.49 -34.96,-3.35 -32.45,-0.87 -95.63,-2.6 -128.86,-4.14 -5.66,-0.26 -10.45,-0.52 -14.52,-0.78zm202.43 56.97c4.62,0.42 5.25,1.05 5.64,2.3 0.76,2.49 0.56,7.49 -1.84,10.08 -1.3,1.41 -3.26,2.1 -5.49,2.5 93.65,-6.48 207.58,-13.37 272.74,-17.45 83.27,-5.23 86.86,-5.89 -0.74,-4.16 -63.55,1.26 -175.08,3.77 -270.31,6.73zm1247.77 310.16c0.62,-1.15 1.26,-2.28 1.96,-3.38 2.8,-4.33 6.63,-8.16 9.41,-12.49 2.79,-4.31 4.52,-9.12 6.15,-16.22 1.63,-7.11 3.18,-16.52 4.9,-23.91 1.74,-7.4 3.64,-12.77 4.32,-23.44 0.67,-10.66 0.1,-26.6 -0.39,-42.56 -0.48,-15.94 -0.86,-31.87 -2.39,-44.55 -1.54,-12.67 -4.22,-22.09 -8.17,-30.05 -3.94,-7.97 -9.12,-14.5 -13.64,-21.81 -3.78,-6.13 -7.12,-12.82 -12.31,-19.94 1.95,5.92 3.4,12.69 4.39,20.8 1.53,12.68 1.92,28.61 2.39,44.55 0.49,15.96 1.06,31.9 0.39,42.56 -0.68,10.67 -2.58,16.04 -4.32,23.44 -1.72,7.39 -3.27,16.8 -4.9,23.91 -1.63,7.1 -3.36,11.91 -6.15,16.22 -2.78,4.33 -6.61,8.16 -9.41,12.49 -2.77,4.32 -4.51,9.12 -7.68,13.53 -3.16,4.43 -7.78,8.45 -13.35,12.39 -5.56,3.94 -12.09,7.79 -10.08,11.14 2.03,3.36 12.58,6.25 32.17,10.95 8.01,1.92 17.52,4.15 26.71,6.37zm-284.62 -330.03c0.34,-0.47 0.69,-0.99 1.05,-1.55 3.88,-6.01 9.94,-17.06 12.57,-25.95 2.64,-8.9 1.87,-15.61 0.43,-19.31 -1.44,-3.68 -3.54,-4.36 -7.1,-5.42 -3.55,-1.06 -8.54,-2.49 -10.94,-3.5 -2.4,-1.01 -2.21,-1.58 -2.51,-23.48 -0.29,-21.9 -1.07,-65.12 -2.17,-87.59 -1.12,-22.48 -2.55,-24.2 -4.2,-25.26 -1.62,-1.05 -3.44,-1.45 -21.07,-1.88l-3.59 -0.08c0.64,21.99 1.09,48.27 1.3,63.81 0.3,21.9 0.11,22.47 2.51,23.48 2.4,1.01 7.39,2.44 10.94,3.5 3.56,1.06 5.66,1.74 7.1,5.42 1.44,3.71 2.21,10.41 -0.43,19.31 -2.63,8.89 -8.69,19.94 -12.57,25.95 -3.91,6.01 -5.62,6.95 -35.16,9.51 -29.52,2.54 -86.84,6.68 -120.17,9.08 -33.31,2.41 -42.63,3.08 -47.81,3.65 -5.19,0.58 -6.25,1.06 -5.81,4.8 0.43,3.75 2.36,10.75 3.89,14.65 1.53,3.89 2.69,4.66 73.65,6.68 39.56,1.12 100.81,2.63 160.09,4.18zm-216.59 -370.26c30.44,-48.24 76.55,-121.12 121.3,-191.74l22.11 -57.64c23.61,-61.65 24.57,-64.52 27.26,-65.96 2.68,-1.45 7.1,-1.45 9.99,-1.55 2.88,-0.09 4.22,-0.28 5.28,-1.05 1.06,-0.76 1.82,-2.11 12.57,-31.12 10.77,-28.99 31.5,-85.64 41.2,-113.4 9.7,-27.76 8.36,-26.59 -47.34,60.88 -55.69,87.49 -165.73,261.27 -222.1,350.58 -56.36,89.3 -59.05,94.11 -60.39,97.18 -1.35,3.07 -1.35,4.42 15.07,5.47 9.99,0.65 26.04,1.18 41.48,1.65 8.27,-13.17 19.16,-30.47 33.57,-53.3z"/>
   <path class="fil9" d="M1433.53 1213.61c0.22,-16.74 2.81,-23.5 13.73,-52.57 13.74,-36.49 40.63,-108.11 63.09,-158.72 22.48,-50.6 40.52,-80.19 59.53,-106.01 19.01,-25.83 38.99,-47.91 62.42,-67.51 23.43,-19.58 50.31,-36.67 76.91,-53.49 26.6,-16.79 52.91,-33.31 95.83,-57.51 42.92,-24.19 102.46,-56.08 201.93,-108.13 99.49,-52.04 238.91,-124.26 309.2,-161.22 70.3,-36.98 71.44,-38.69 74.24,-42.93 2.78,-4.23 7.19,-10.95 10.25,-15.27 3.08,-4.33 4.81,-6.23 36.2,-16.89 31.41,-10.67 92.48,-30.06 129.45,-37.07 36.97,-7.02 49.84,-1.63 56.65,4.22 6.07,5.23 7.35,10.82 5.73,17.14 -8.23,-3.65 -22.4,-5.37 -50.14,-0.11 -36.97,7.01 -115.34,33.97 -146.74,44.63 -31.4,10.66 -33.12,12.57 -36.2,16.9 -3.06,4.32 -7.48,11.04 -10.26,15.26 -2.79,4.24 -3.94,5.96 -74.24,42.93 -70.29,36.96 -209.7,109.19 -309.19,161.23 -99.48,52.05 -159.01,83.94 -201.93,108.13 -42.93,24.2 -69.24,40.72 -95.83,57.51 -26.6,16.82 -53.49,33.9 -76.91,53.49 -23.44,19.59 -43.41,41.67 -62.43,67.51 -19,25.82 -37.05,55.4 -59.53,106 -22.46,50.61 -49.34,122.24 -63.08,158.72 -3.83,10.2 -6.64,17.66 -8.68,23.76z"/>
   <path class="fil9" d="M2750.19 46.37c4.24,0.51 8.34,1.13 11.36,1.93 4.33,1.14 6.44,2.68 5.47,26.11 -0.95,23.43 -4.98,68.76 -17.56,188.51 -12.58,119.72 -33.7,313.87 -51.37,475.1 -17.66,161.23 -31.88,289.51 -39.75,353.18 -7.87,63.65 -9.41,62.69 -11.91,61.74 -2.48,-0.96 -5.95,-1.93 -7.77,-4.51 -1.79,-2.53 -2.02,-6.63 -1.58,-16.49 1.5,-9.24 3.45,-23.41 6.12,-45.07 7.87,-63.67 22.09,-191.95 39.75,-353.18 17.67,-161.23 38.79,-355.38 51.37,-475.1 12.58,-119.75 16.61,-165.08 17.57,-188.51 0.62,-14.97 -0.02,-21.01 -1.7,-23.71z"/>
   <path class="fil10" d="M2407.81 1393.49c4.16,4.49 9.26,10.7 15.21,18.82 9.4,12.88 20.93,30.55 25.14,42.83 4.24,12.29 1.17,19.22 -23.41,39.95 -24.59,20.75 -70.67,55.3 -99.3,76.05l-10.55 7.59c-17.22,6.8 -33.73,12.67 -43.08,15.55 -14.98,4.61 -11.53,1.53 -4.23,-3.46 7.3,-4.98 18.43,-11.92 47.05,-32.66 28.63,-20.74 74.7,-55.29 99.29,-76.04 24.58,-20.74 27.65,-27.66 23.42,-39.95 -4.21,-12.28 -15.74,-29.95 -25.15,-42.83 -1.52,-2.07 -2.99,-4.03 -4.39,-5.85zm-5.33 160.71l4.22 -2.46c8.44,-4.79 8.44,-3.64 6.34,18.06 -2.12,21.7 -6.34,63.95 -15.37,101.59 -9.04,37.65 -22.86,70.67 -39.38,104.09 -16.52,33.43 -35.72,67.22 -46.85,85.46 -11.15,18.25 -14.22,20.93 -20.74,22.09 -6.54,1.14 -16.52,0.76 -43.41,-1.35 -26.89,-2.11 -70.67,-5.96 -93.73,-8.83 -23.04,-2.88 -25.33,-4.8 -48.19,-32.65l-0.5 -0.61c13.97,16.19 18.87,17.91 37.88,20.29 23.05,2.87 66.84,6.72 93.73,8.83 26.89,2.11 36.87,2.49 43.4,1.35 6.53,-1.16 9.6,-3.84 20.74,-22.1 11.14,-18.23 30.34,-52.02 46.85,-85.45 16.53,-33.42 30.35,-66.44 39.38,-104.09 9.03,-37.64 13.26,-79.89 15.37,-101.59l0.26 -2.63z"/>
   <path class="fil9" d="M603.64 1961.37c-11.8,9.2 -19.19,20.91 -25.41,37.4 -6.22,16.48 -11.26,37.75 -10.9,60.46 0.37,22.7 6.14,46.86 9.55,60.55 3.43,13.69 4.52,16.94 3.25,8.29 -1.26,-8.65 -4.87,-29.2 -4.32,-51.9 0.54,-22.71 5.22,-47.58 10.22,-64.49 5.01,-16.9 10.33,-25.83 17.78,-33.55 7.45,-7.72 17.03,-14.2 34.46,-20.45 17.44,-6.25 42.72,-12.27 75,-16.64 32.28,-4.35 71.57,-7.06 90.58,-8.59 19.01,-1.53 17.76,-1.89 -11.62,-0.62 -29.37,1.26 -86.86,4.13 -123.71,8.91 -36.85,4.78 -53.07,11.45 -64.88,20.63z"/>
   <path class="fil9" d="M1239.34 1490.89c34.47,6.05 100.53,17.57 134.14,23.44 33.61,5.86 34.76,6.04 35.82,7.19 1.05,1.15 2.02,3.27 2.98,30.06 0.96,26.79 1.91,78.25 0.85,105.62 -1.05,27.37 -4.12,30.63 -7.01,32.75 -0.38,0.28 -0.77,0.54 -1.22,0.78 1.51,-4.18 2.77,-11.95 3.37,-27.58 1.06,-27.37 0.1,-78.83 -0.86,-105.62 -0.96,-26.79 -1.93,-28.91 -2.98,-30.06 -1.06,-1.15 -2.2,-1.33 -35.82,-7.19 -33.6,-5.87 -99.66,-17.39 -134.14,-23.44 -29.39,-5.16 -35.81,-6.33 -38.56,-6.57 0.99,-5.8 2.24,-6 3.67,-6 2.4,0 5.27,0.57 39.76,6.62zm-49.71 -345.75c1.1,-2.89 2.26,-3.9 3.29,-4.74 3.07,-2.49 4.99,-3.44 8.83,-3.36 3.85,0.1 9.6,1.26 40.33,8.65 30.73,7.39 86.41,21.02 114.65,28.52 28.23,7.49 29,8.83 30.15,13.62 1.16,4.81 2.7,13.07 5.76,62.9 3.08,49.84 7.7,141.26 8.85,187.35 1.15,46.1 -1.15,46.87 -3.65,47.25 -0.5,0.08 -1.01,0.14 -1.76,0.15 0.8,-5.78 1.14,-17.5 0.54,-41.45 -1.15,-46.09 -5.76,-137.51 -8.84,-187.35 -3.07,-49.83 -4.6,-58.09 -5.76,-62.9 -1.15,-4.79 -1.92,-6.13 -30.16,-13.62 -28.23,-7.5 -83.92,-21.13 -114.64,-28.52 -30.74,-7.39 -36.48,-8.55 -40.34,-8.65 -3.13,-0.07 -4.99,0.56 -7.25,2.15z"/>
   <path class="fil0" d="M1988.44 1495.14c3.78,-8.01 8.65,-18.47 10.64,-29.19 1.98,-10.72 1.07,-21.72 1.88,-31.36 0.82,-9.64 3.34,-17.93 9.73,-25.86 6.4,-7.92 16.68,-15.5 22.71,-21.8 6.04,-6.31 7.84,-11.36 10.01,-17.85 2.16,-6.48 4.68,-14.41 10.98,-21.08 6.31,-6.67 16.4,-12.07 25.59,-18.02 9.19,-5.94 17.48,-12.43 22.44,-17.93 4.96,-5.49 6.58,-10 17.66,-13.43 11.08,-3.41 31.63,-5.76 49.46,-7.12 17.85,-1.34 32.98,-1.7 41.27,0.46 8.29,2.17 9.73,6.85 13.07,11.71 3.33,4.87 8.56,9.91 12.79,14.33 4.24,4.42 7.48,8.2 9.91,11.17 2.44,2.98 4.06,5.13 6.49,5.23 2.43,0.09 5.68,-1.89 9.19,-4.51 3.51,-2.61 7.3,-5.85 13.88,-4.14 6.58,1.72 15.94,8.38 23.51,12.88 7.57,4.51 13.34,6.86 24.51,12.17 11.18,5.32 27.75,13.6 31.26,21.8 3.52,8.2 -6.03,16.31 -24.77,27.4 -18.74,11.08 -46.67,25.13 -69.47,37.56 -22.79,12.44 -40.45,23.25 -54.78,31.9 -14.33,8.65 -25.32,15.14 -41.27,20.46 -15.95,5.31 -36.85,9.46 -64.06,12.16 -27.21,2.71 -60.73,3.97 -82.09,5.77 -21.35,1.8 -30.54,4.14 -33.79,2.52 -3.24,-1.62 -0.53,-7.21 3.25,-15.23z"/>
   <path class="fil11" d="M2019.15 1458.38c-0.09,-5.86 -0.81,-11.98 -0.54,-17.84 0.28,-5.85 1.53,-11.44 6.94,-17.03 5.41,-5.58 14.95,-11.17 21.71,-17.12 6.76,-5.94 10.73,-12.25 13.16,-20.27 2.43,-8.01 3.33,-17.75 4.86,-23.25 1.54,-5.49 3.7,-6.75 7.21,-8.92 3.52,-2.16 8.39,-5.22 13.61,-9.19 5.22,-3.96 10.82,-8.83 15.4,-13.78 4.6,-4.96 8.2,-10 12.89,-13.97 4.68,-3.96 10.45,-6.84 19.82,-8.74 9.37,-1.89 22.35,-2.79 32.89,-3.24 10.54,-0.46 18.65,-0.46 24.24,-0.46 5.59,0 8.65,0 7.93,0.82 -0.72,0.81 -5.23,2.43 -12.8,4.77 -7.56,2.35 -18.2,5.41 -26.85,8.74 -8.65,3.33 -15.31,6.94 -19.73,11.63 -4.42,4.68 -6.58,10.45 -8.65,14.5 -2.07,4.06 -4.06,6.41 -2.44,9.29 1.62,2.88 6.85,6.3 15.14,8.47 8.29,2.16 19.65,3.06 29.83,3.77 10.18,0.73 19.19,1.27 17.38,4.06 -1.8,2.8 -14.41,7.84 -28.38,13.06 -13.97,5.23 -29.28,10.64 -40.45,16.94 -11.18,6.31 -18.2,13.52 -20.27,20.19 -2.07,6.67 0.81,12.79 4.95,17.47 4.15,4.69 9.55,7.94 17.66,8.57 8.11,0.63 18.92,-1.35 28.56,-3.25 9.64,-1.89 18.11,-3.69 23.43,-4.68 5.32,-0.99 7.47,-1.17 1.71,2.71 -5.76,3.87 -19.46,11.8 -28.02,17.38 -8.56,5.59 -11.98,8.83 -20.63,11.17 -8.65,2.35 -22.53,3.79 -40.82,5.05 -18.29,1.26 -40.99,2.34 -55.68,3.78 -14.68,1.43 -21.33,3.22 -22.5,2.68 -1.17,-0.54 3.14,-3.41 5.57,-7.64 2.42,-4.22 2.96,-9.82 2.87,-15.67z"/>
   <path class="fil11" d="M2244.94 1344.71c8.15,-3.87 14.73,-7.03 19.68,-9.2 4.96,-2.15 8.29,-3.32 13.16,-1.93 4.86,1.4 11.26,5.37 16.26,8.34 5,2.97 8.61,4.95 12.53,7.38 3.92,2.44 8.15,5.32 10.04,6.67 1.9,1.36 1.45,1.17 -1.62,0 -3.06,-1.17 -8.74,-3.33 -14.55,-5.5 -5.81,-2.16 -11.75,-4.32 -18.7,-4.86 -6.94,-0.54 -14.86,0.54 -22.79,1.98 -7.93,1.45 -15.86,3.24 -22.8,5 -6.94,1.76 -12.88,3.47 -10.99,2.03 1.89,-1.44 11.62,-6.04 19.78,-9.91z"/>
   <path class="fil9" d="M2013.71 1477.55c1.5,-1.25 2.96,-2.54 4.18,-3.77 2.88,-2.91 4.32,-5.37 4.89,-9.76 0.57,-4.39 0.27,-10.69 0.81,-17 0.54,-6.31 1.93,-12.61 4.18,-17.06 2.25,-4.45 5.38,-7.03 10.33,-10.49 4.96,-3.45 11.75,-7.77 16.43,-11.89 4.68,-4.11 7.27,-8.02 9.16,-12.19 1.89,-4.18 3.09,-8.62 3.81,-13.55 0.72,-4.92 0.97,-10.33 2.14,-14.47 1.17,-4.15 3.27,-7.03 6.81,-10.1 3.54,-3.06 8.53,-6.3 14.15,-11.23 5.62,-4.92 11.86,-11.53 17,-16.78 5.14,-5.26 9.16,-9.17 16.1,-13.11 6.53,-3.7 15.64,-7.42 23.32,-9.73 -4.6,0.48 -9,1.08 -12.81,1.85 -9.37,1.9 -15.14,4.78 -19.82,8.74 -4.69,3.97 -8.29,9.01 -12.89,13.97 -4.58,4.95 -10.18,9.82 -15.4,13.78 -5.22,3.97 -10.09,7.03 -13.61,9.19 -3.51,2.17 -5.67,3.43 -7.21,8.92 -1.53,5.5 -2.43,15.24 -4.86,23.25 -2.43,8.02 -6.4,14.33 -13.16,20.27 -6.76,5.95 -16.3,11.54 -21.71,17.12 -5.41,5.59 -6.66,11.18 -6.94,17.03 -0.27,5.86 0.45,11.98 0.54,17.84 0.09,5.85 -0.45,11.45 -2.87,15.67 -0.75,1.31 -1.68,2.48 -2.57,3.5z"/>
  </g>
 </g>
</svg>
