<?xml version="1.0" encoding="UTF-8"?>
<!DOCTYPE svg PUBLIC "-//W3C//DTD SVG 1.1//EN" "http://www.w3.org/Graphics/SVG/1.1/DTD/svg11.dtd">
<!-- Creator: CorelDRAW 2020 (64 Bit) -->
<svg xmlns="http://www.w3.org/2000/svg" xml:space="preserve" width="84.6666mm" height="22.9802mm" version="1.1" style="shape-rendering:geometricPrecision; text-rendering:geometricPrecision; image-rendering:optimizeQuality; fill-rule:evenodd; clip-rule:evenodd"
viewBox="0 0 8466.66 2298.02"
 xmlns:xlink="http://www.w3.org/1999/xlink"
 xmlns:xodm="http://www.corel.com/coreldraw/odm/2003">
 <defs>
  <style type="text/css">
   <![CDATA[
    .fil7 {fill:#333333}
    .fil10 {fill:#663333}
    .fil6 {fill:#666666}
    .fil9 {fill:#999999}
    .fil4 {fill:#CCCCCC}
    .fil5 {fill:#FFAE00}
    .fil3 {fill:#FFAE00}
    .fil0 {fill:white}
    .fil2 {fill:white;fill-rule:nonzero}
    .fil8 {fill:black;fill-opacity:0.231373}
    .fil1 {fill:url(#id0)}
   ]]>
  </style>
  <radialGradient id="id0" gradientUnits="userSpaceOnUse" gradientTransform="matrix(1.25986 1.25986 -1.25986 1.25986 698 -1782)" cx="1247.2" cy="811.1" r="1330.95" fx="1247.2" fy="811.1">
   <stop offset="0" style="stop-opacity:1; stop-color:#FFAE00"/>
   <stop offset="1" style="stop-opacity:1; stop-color:#FF6600"/>
  </radialGradient>
 </defs>
 <g id="Camada_x0020_1">
  <metadata id="CorelCorpID_0Corel-Layer"/>
  <g id="_2481692777200">
   <path class="fil0" d="M1247.19 345.89c489.04,0 898.59,340.28 1004.82,796.98 -158.83,-399.38 -548.84,-681.72 -1004.82,-681.72 -455.95,0 -845.95,282.31 -1004.8,681.66 106.26,-456.66 515.79,-796.92 1004.8,-796.92z"/>
   <path class="fil1" d="M1247.2 527.75c187.67,0 363.67,49.9 515.49,137.15l-306.17 30.09 355.19 0c180.27,117.37 321.73,289.33 400.96,492.42l-393.79 38.7 408.01 0c36.48,105.81 56.29,219.4 56.29,337.61 0,287.35 -117.02,547.34 -305.96,735.01l-1460.04 0c-188.95,-187.67 -305.97,-447.66 -305.97,-735.01 0,-70.13 7.01,-138.61 20.29,-204.82l565.34 0 -552.94 -54.34c21.24,-82.47 52.4,-160.96 92.11,-234.13l319.48 0 -302.68 -29.75c22.11,-37.72 46.55,-73.92 73.1,-108.4l843.24 0 -778.25 -76.48c189.02,-201.88 457.91,-328.05 756.3,-328.05z"/>
   <path class="fil0" d="M578.87 2031.53c-11.53,1.62 -25.22,9.54 -42.52,15.48 -17.3,5.95 -38.2,9.92 -56.76,17.49 -18.57,7.57 -34.78,18.74 -53.53,28.47 -18.74,9.73 -40,18.02 -53.87,25.41 -13.88,7.39 -20.37,13.87 -18.21,20.54 2.17,6.67 12.98,13.52 18.02,19.28 5.05,5.77 4.33,10.45 0.54,14.06 -3.78,3.6 -10.63,6.12 -21.98,3.96 -11.35,-2.16 -27.21,-9.01 -37.49,-16.39 -10.26,-7.39 -14.95,-15.32 -14.05,-21.45 0.91,-6.13 7.39,-10.45 11.35,-16.04 3.97,-5.58 5.41,-12.43 2.53,-13.88 -2.89,-1.44 -10.09,2.53 -24.69,3.79 -14.6,1.27 -36.58,-0.18 -53.34,-1.26 -16.76,-1.08 -28.29,-1.8 -36.94,7.75 -8.65,9.55 -14.42,29.37 -21.81,43.43 -7.39,14.05 -16.4,22.34 -30.09,35.85 -13.7,13.52 -32.08,32.26 -50.28,44.87 -18.21,12.62 -36.23,19.11 -55.33,27.03 -19.1,7.93 -39.29,17.3 -40.37,25.59 -0.14,1.1 0.05,2.17 0.53,3.22l2680.06 0c-0.05,-0.22 -0.13,-0.45 -0.25,-0.68 -3.6,-7.21 -38.93,-19.46 -71,-30.28 -32.08,-10.8 -60.91,-20.18 -89.38,-43.97 -28.48,-23.78 -56.58,-61.98 -89.39,-78.92 -32.79,-16.94 -70.27,-12.61 -96.94,-4.33 -26.67,8.29 -42.53,20.54 -62.36,23.79 -19.82,3.24 -43.6,-2.53 -56.22,-13.34 -12.61,-10.81 -14.05,-26.67 -15.5,-25.95 -1.44,0.72 -2.88,18.02 -6.12,28.47 -3.25,10.46 -8.29,14.07 -12.98,10.1 -4.68,-3.96 -9.01,-15.5 -7.57,-28.12 1.45,-12.61 8.65,-26.3 8.65,-38.92 0,-12.61 -7.2,-24.14 -18.74,-29.91 -11.53,-5.77 -27.39,-5.77 -40.36,-0.36 -12.98,5.41 -23.07,16.21 -29.92,20.54 -6.84,4.32 -10.45,2.17 -14.6,-8.47 -4.14,-10.63 -8.82,-29.73 -13.47,-42.91 -4.64,-13.18 -9.24,-20.45 -12.66,-13.78 -3.43,6.66 -5.67,27.26 -13.78,47.82 -8.12,20.56 -22.09,41.08 -65.88,55.14 -43.79,14.06 -117.39,21.65 -318.18,13.91 -200.78,-7.73 -528.75,-30.8 -724.09,-49.9 -195.34,-19.1 -258.05,-34.24 -294.09,-44.15 -36.04,-9.91 -45.4,-14.61 -56.94,-12.98z"/>
   <path class="fil2" d="M3612.07 2186.58c-42.54,36.65 -90.32,64.79 -143.12,84.43 -52.79,19.63 -107.55,29.45 -164.27,29.45 -43.42,0 -85.31,-5.67 -125.67,-17.01 -40.14,-11.35 -77.88,-27.28 -113.01,-48 -35.12,-20.51 -67.19,-45.38 -96.21,-74.39 -29.01,-29.02 -53.88,-61.09 -74.61,-96.22 -20.5,-35.12 -36.43,-72.86 -47.78,-113 -11.34,-40.36 -17.02,-82.25 -17.02,-125.66 0,-43.42 5.68,-85.52 17.02,-125.88 11.35,-40.58 27.28,-78.32 47.78,-113.45 20.73,-35.12 45.6,-67.19 74.61,-96.2 29.02,-29.02 61.09,-53.89 96.21,-74.4 35.13,-20.72 72.87,-36.65 113.01,-47.99 40.36,-11.35 82.25,-17.02 125.67,-17.02 56.72,0 111.48,9.82 164.27,29.01 52.8,19.42 100.58,47.78 143.12,84.87l-97.09 159.69c-26.83,-29.01 -58.68,-51.27 -95.33,-66.75 -36.66,-15.49 -74.83,-23.35 -114.97,-23.35 -40.59,0 -78.33,7.64 -113.67,22.91 -35.56,15.49 -66.32,36.21 -92.72,62.39 -26.4,26.18 -47.34,57.16 -62.61,92.72 -15.49,35.56 -23.13,73.3 -23.13,113.45 0,40.14 7.64,77.66 23.13,112.79 15.27,35.12 36.21,65.88 62.61,92.28 26.4,26.61 57.16,47.34 92.72,62.83 35.34,15.27 73.08,22.91 113.67,22.91 40.14,0 78.31,-7.86 114.97,-23.34 36.65,-15.49 68.5,-37.75 95.33,-66.77l97.09 159.7zm645.55 -272.27l0 -183.47c0,-25.09 -4.8,-48.87 -14.4,-71.12 -9.6,-22.47 -22.69,-41.89 -39.27,-58.47 -16.58,-16.58 -36,-29.89 -58.47,-39.27 -22.25,-9.59 -46.03,-14.4 -71.12,-14.4 -25.31,0 -49.09,4.81 -71.34,14.4 -22.47,9.38 -41.89,22.69 -58.47,39.27 -16.58,16.58 -29.67,36 -39.27,58.47 -9.6,22.25 -14.4,46.03 -14.4,71.12l0 169.35 0 14.12 0 182.82 0 36.62 0 146.86 -182.82 0 0 -549.77c0,-50.62 9.6,-98.17 28.8,-142.68 19.2,-44.5 45.16,-83.56 78.32,-116.72 32.94,-33.15 71.78,-59.33 116.28,-78.54 44.51,-19.19 92.07,-28.79 142.9,-28.79 50.61,0 98.17,9.6 142.68,28.79 44.5,19.21 83.56,45.39 116.72,78.54 33.16,33.16 59.34,72.22 78.54,116.72 19.19,44.51 28.79,92.06 28.79,142.68l0 549.77 -183.47 0 0 -183.48 -275.02 0 -85.14 -182.82 360.16 0zm1075.77 366.3l-196.13 0 -353.65 -603.44 0 603.44 -183.26 0 0 -916.5 196.13 0 353.43 603.87 0 -603.87 183.48 0 0 916.5zm904.51 -458.36c0,42.32 -5.45,82.9 -16.37,121.73 -10.9,39.06 -26.17,75.49 -46.24,109.3 -20.07,34.04 -43.85,64.8 -71.56,92.72 -27.71,27.93 -58.69,51.92 -92.72,72 -34.04,20.06 -70.69,35.34 -109.74,46.24 -38.83,10.91 -79.41,16.37 -121.74,16.37l-275.97 0 0 -916.5 275.97 0c42.33,0 82.91,5.45 121.74,16.14 39.05,10.91 75.7,26.4 109.74,46.47 34.03,20.07 65.01,44.07 92.72,71.99 27.71,27.71 51.49,58.69 71.56,92.51 20.07,34.03 35.34,70.46 46.24,109.3 10.92,39.04 16.37,79.62 16.37,121.73zm-183.48 0c0,-37.74 -7.2,-73.52 -21.38,-106.68 -14.4,-33.16 -33.81,-62.4 -58.9,-87.27 -24.87,-24.87 -54.11,-44.5 -87.49,-59.12 -33.38,-14.39 -69.15,-21.6 -107.12,-21.6l-91.41 0 0 549.55 91.41 0c37.97,0 73.74,-7.2 107.12,-21.37 33.38,-14.18 62.62,-33.82 87.49,-58.91 25.09,-24.87 44.5,-54.1 58.9,-87.49 14.18,-33.37 21.38,-69.15 21.38,-107.11zm488.25 458.36l-183.25 0 0 -916.5 183.25 0 0 916.5zm904.51 -458.36c0,42.32 -5.45,82.9 -16.36,121.73 -10.91,39.06 -26.18,75.49 -46.25,109.3 -20.07,34.04 -43.85,64.8 -71.56,92.72 -27.7,27.93 -58.68,51.92 -92.72,72 -34.03,20.06 -70.69,35.34 -109.73,46.24 -38.83,10.91 -79.42,16.37 -121.74,16.37l-275.98 0 0 -916.5 275.98 0c42.32,0 82.91,5.45 121.74,16.14 39.04,10.91 75.7,26.4 109.73,46.47 34.04,20.07 65.02,44.07 92.72,71.99 27.71,27.71 51.49,58.69 71.56,92.51 20.07,34.03 35.34,70.46 46.25,109.3 10.91,39.04 16.36,79.62 16.36,121.73zm-183.48 0c0,-37.74 -7.19,-73.52 -21.38,-106.68 -14.39,-33.16 -33.81,-62.4 -58.9,-87.27 -24.87,-24.87 -54.1,-44.5 -87.48,-59.12 -33.38,-14.39 -69.16,-21.6 -107.12,-21.6l-91.41 0 0 549.55 91.41 0c37.96,0 73.74,-7.2 107.12,-21.37 33.38,-14.18 62.61,-33.82 87.48,-58.91 25.09,-24.87 44.51,-54.1 58.9,-87.49 14.19,-33.37 21.38,-69.15 21.38,-107.11zm1202.97 3.93c0,43.41 -5.68,85.3 -17.02,125.66 -11.35,40.14 -27.05,77.88 -47.56,113 -20.51,35.13 -45.16,67.2 -74.17,96.22 -29.02,29.01 -60.88,53.88 -95.78,74.39 -35.12,20.72 -72.65,36.65 -113.23,48 -40.36,11.34 -82.46,17.01 -125.88,17.01 -43.41,0 -85.3,-5.67 -125.66,-17.01 -40.14,-11.35 -77.89,-27.28 -113.01,-48 -35.13,-20.51 -67.2,-45.38 -96.22,-74.39 -29.01,-29.02 -53.88,-61.09 -74.6,-96.22 -20.51,-35.12 -36.44,-72.86 -47.78,-113 -11.34,-40.36 -17.02,-82.25 -17.02,-125.66 0,-43.42 5.68,-85.52 17.02,-125.88 11.34,-40.58 27.27,-78.32 47.78,-113.23 20.72,-34.91 45.59,-66.75 74.6,-95.77 29.02,-29.02 61.09,-53.67 96.22,-74.18 35.12,-20.5 72.87,-36.43 113.01,-47.56 40.36,-11.34 82.25,-17.02 125.66,-17.02 43.42,0 85.52,5.68 125.88,17.02 40.58,11.13 78.11,27.06 113.23,47.56 34.9,20.51 66.76,45.16 95.78,74.18 29.01,29.02 53.66,60.86 74.17,95.77 20.51,34.91 36.21,72.65 47.56,113.23 11.34,40.36 17.02,82.46 17.02,125.88zm-182.17 0c0,-40.15 -7.64,-77.89 -23.13,-113.45 -15.27,-35.56 -36,-66.54 -62.18,-92.72 -26.17,-26.18 -57.15,-46.9 -92.72,-62.39 -35.55,-15.27 -73.3,-22.91 -113.44,-22.91 -40.58,0 -78.32,7.64 -113.67,22.91 -35.55,15.49 -66.31,36.21 -92.71,62.39 -26.4,26.18 -47.34,57.16 -62.62,92.72 -15.49,35.56 -23.12,73.3 -23.12,113.45 0,40.14 7.63,77.66 23.12,112.79 15.28,35.12 36.22,65.88 62.62,92.28 26.4,26.61 57.16,47.34 92.71,62.83 35.35,15.27 73.09,22.91 113.67,22.91 40.14,0 77.89,-7.64 113.44,-22.91 35.57,-15.49 66.55,-36.22 92.72,-62.83 26.18,-26.4 46.91,-57.16 62.18,-92.28 15.49,-35.13 23.13,-72.65 23.13,-112.79z"/>
   <path class="fil2" d="M3008.33 1202.92l0 -305 57.33 0 143.84 184.42 140.38 -184.42 56.85 0 0 305 -65.61 0 0 -188.46c0,-3.65 0.19,-8.28 0.69,-13.79 0.49,-5.62 1.18,-11.83 1.87,-18.82 -3.85,7.88 -7.19,14.39 -10.05,19.51 -2.96,5.12 -5.52,9.26 -7.78,12.51l-114.68 152.4 -14.09 0 -114.96 -152.89c-4.24,-5.81 -7.88,-11.24 -10.84,-16.35 -2.96,-5.13 -5.42,-10.06 -7.39,-14.88 0.59,6.4 1.08,12.12 1.38,17.33 0.3,5.22 0.39,10.15 0.39,14.98l0 188.46 -57.33 0zm3221.39 -232.99c0,-27.68 5.22,-46.59 15.56,-56.74 10.34,-10.15 30.34,-15.27 60,-15.27l224.51 0c29.76,0 49.85,5.12 60.19,15.27 10.45,10.15 15.67,29.06 15.67,56.74l0 160.88c0,27.87 -5.22,46.89 -15.67,56.94 -10.34,10.14 -30.43,15.17 -60.19,15.17l-224.51 0c-29.66,0 -49.66,-5.03 -60,-15.17 -10.34,-10.05 -15.56,-29.07 -15.56,-56.94l0 -160.88zm70.93 175.65l234.07 0 0 -193.28 -234.07 0 0 193.28zm-392.93 -64.42l133.79 0 -65.9 -124.13 -67.89 124.13zm-136.54 121.76l172.7 -305 68.47 0 174.97 305 -79.7 0 -36.66 -66.79 -193.48 0 -35.56 66.79 -70.74 0zm295.55 -419.08c-4.43,22.66 -11.23,39.11 -20.49,49.45 -9.26,10.35 -21.58,15.56 -36.94,15.56 -2.86,0 -6.01,-0.19 -9.36,-0.68 -3.45,-0.5 -7,-1.38 -10.84,-2.47l-23.94 -6.99c-4.04,-1.08 -7.49,-1.87 -10.25,-2.27 -2.85,-0.39 -5.61,-0.59 -8.27,-0.59 -6.3,0 -11.53,1.58 -15.57,4.83 -4.03,3.15 -7.09,8.08 -9.26,14.68l-28.86 0c3.84,-21.18 10.34,-37.04 19.5,-47.49 9.17,-10.54 21.09,-15.76 35.96,-15.76 3.65,0 7.49,0.3 11.53,0.99 4.04,0.68 8.27,1.67 12.71,3.05l25.71 7.19c2.27,0.6 4.63,1.08 6.99,1.38 2.47,0.3 5.03,0.4 7.69,0.4 6.11,0 11.43,-1.78 15.76,-5.42 4.34,-3.65 7.29,-8.97 9.07,-15.86l28.86 0zm-405.23 168.46l-191.52 0 0 193.28 191.52 0 0 -65.61 70.93 14.78 0 36.06c0,27.87 -5.22,46.89 -15.77,56.94 -10.44,10.14 -30.34,15.17 -59.79,15.17l-182.26 0c-29.65,0 -49.65,-5.03 -60,-15.17 -10.34,-10.05 -15.56,-29.07 -15.56,-56.94l0 -160.88c0,-27.58 5.22,-46.59 15.56,-56.74 10.35,-10.15 30.35,-15.27 60,-15.27l182.26 0c29.45,0 49.35,5.12 59.79,15.27 10.55,10.15 15.77,29.16 15.77,56.74l0 28.97 -70.93 11.33 0 -57.93zm-161.96 375.93l0 -34.28c15.76,4.23 29.95,7.38 42.36,9.35 12.41,2.08 22.95,3.06 31.62,3.06 10.25,0 18.03,-1.87 23.25,-5.52 5.32,-3.65 7.98,-9.06 7.98,-16.25 0,-8.08 -3.25,-13.99 -9.85,-17.64 -6.51,-3.64 -17.05,-5.51 -31.53,-5.51 -1.08,0 -3.05,0.09 -5.71,0.29 -2.76,0.2 -4.73,0.3 -6.11,0.3l0 -59.11 26.01 0 0 27.19 4.63 0c23.05,0 40.2,4.53 51.33,13.69 11.13,9.16 16.74,23.15 16.74,41.97 0,17.53 -6.2,31.04 -18.71,40.59 -12.51,9.55 -30.34,14.28 -53.49,14.28 -10.35,0 -22.27,-1.08 -35.77,-3.15 -13.5,-2.17 -27.78,-5.22 -42.75,-9.26zm-422.48 -247.07l133.79 0 -65.91 -124.13 -67.88 124.13zm-136.54 121.76l172.7 -305 68.46 0 174.97 305 -79.7 0 -36.65 -66.79 -193.48 0 -35.57 66.79 -70.73 0zm-165.15 -252.4l-159.49 0 0 85.12 159.49 0c12.32,0 20.69,-1.77 25.22,-5.32 4.53,-3.65 6.8,-9.95 6.8,-19.01l0 -36.75c0,-8.87 -2.27,-15.07 -6.8,-18.72 -4.53,-3.54 -12.9,-5.32 -25.22,-5.32zm-229.25 252.4l0 -305 260.68 0c24.33,0 41.97,4.63 52.8,13.99 10.94,9.26 16.35,24.23 16.35,45.01l0 71.72c0,20.6 -5.41,35.57 -16.35,44.93 -10.83,9.36 -28.47,14.09 -52.8,14.09l-39.8 0 140.97 115.26 -101.86 0 -122.95 -115.26 -67.28 0 0 115.26 -69.76 0zm-396.95 0l0 -305 312.09 0 0 52.02 -241.16 0 0 67.97 140.68 0 0 52.01 -140.68 0 0 75.66 244.12 0 0 57.34 -315.05 0zm-465.14 0l0 -305 48.47 0 214.76 179.79c7.3,5.9 13.7,11.52 19.32,16.84 5.62,5.32 10.63,10.74 15.26,16.35 -1.08,-17.13 -1.87,-29.25 -2.26,-36.35 -0.4,-7.19 -0.59,-12.61 -0.59,-16.45l0 -160.18 63.84 0 0 305 -48.47 0 -224.03 -188.46c-5.32,-4.83 -10.05,-9.06 -14.08,-13 -4.05,-3.85 -7.79,-7.79 -11.24,-11.83 0.89,9.46 1.68,18.33 2.17,26.7 0.49,8.38 0.69,15.66 0.69,21.77l0 164.82 -63.84 0zm-177.07 0l0 -305 70.93 0 0 305 -70.93 0z"/>
   <path class="fil0" d="M1858.02 1449.8c-0.36,11.88 -1.32,33.57 -1.22,45.09 0.1,11.53 1.25,12.87 16.13,43.5 14.89,30.63 43.49,90.55 58.77,121.47 15.26,30.92 17.17,32.85 43.87,69.14 26.7,36.3 78.17,106.98 104.67,142.51 26.49,35.52 28.04,35.9 50.12,39.12 22.08,3.22 64.7,9.28 87.74,12.1 23.05,2.83 26.51,2.46 81.53,4.18 55.02,1.73 161.61,5.57 215.56,6.81 53.97,1.26 55.31,-0.09 62.23,-5.85 6.91,-5.76 19.39,-15.94 36.19,-34.67 16.8,-18.72 37.93,-45.99 54.54,-78.54 16.61,-32.56 28.71,-70.39 35.63,-106.59 6.9,-36.19 8.65,-70.76 9.8,-88.82 1.15,-18.06 1.72,-19.59 12.76,-32.66 11.05,-13.05 32.55,-37.63 43.02,-50.49 10.46,-12.87 9.89,-14.03 2.79,-21.8 -7.11,-7.78 -20.75,-22.19 -27.66,-29.78 -6.92,-7.57 -7.11,-8.34 -1.06,-18.52 6.06,-10.17 18.34,-29.77 25.25,-39.37 6.93,-9.61 8.45,-9.23 16.23,-7.97 7.79,1.24 21.81,3.36 32.46,2.88 10.66,-0.48 17.96,-3.56 22.96,-11.04 5,-7.49 7.67,-19.4 0.08,-31.89 -7.59,-12.48 -25.45,-25.53 -36.31,-33.02 -10.85,-7.5 -14.69,-9.41 -15.37,-15.65 -0.67,-6.25 1.83,-16.82 3.27,-23.64 1.44,-6.81 1.83,-9.88 0.39,-12.1 -1.44,-2.21 -4.7,-3.55 -7.39,-4.7 -2.69,-1.15 -4.82,-2.11 -5.88,-3.26 -1.04,-1.16 -1.04,-2.5 1.84,-30.25 2.88,-27.75 8.64,-81.91 14.97,-147.89 6.35,-65.97 13.26,-143.75 16.91,-182.64 3.64,-38.89 4.02,-38.89 5.76,-39.37 1.73,-0.48 4.79,-1.44 6.42,-2.98 1.64,-1.53 1.83,-3.65 3.94,-21.98 2.12,-18.34 6.15,-52.91 7.78,-70.3 1.64,-17.37 0.87,-17.56 -0.86,-18.24 -1.73,-0.67 -4.42,-1.82 -6.43,-2.78 -2.02,-0.96 -3.37,-1.73 -1.25,-31.22 2.1,-29.47 7.66,-87.65 11.41,-117.71 3.73,-30.06 5.65,-31.97 12.17,-43.5 6.53,-11.54 17.66,-32.67 22.66,-45.73 4.99,-13.06 3.83,-18.05 -2.51,-44.55 -6.33,-26.5 -17.86,-74.52 -23.43,-101.21 -5.57,-26.7 -5.18,-32.07 0.58,-74.61 5.75,-42.53 16.88,-122.23 21.58,-164.58 4.71,-42.35 2.98,-47.33 -15.66,-62.99 -18.63,-15.65 -54.16,-41.96 -74.7,-55.6 -20.55,-13.64 -26.11,-14.59 -33.41,-14.5 -7.3,0.1 -16.33,1.26 -21.51,2.03 -5.19,0.77 -6.53,1.14 -9.52,0.08 -2.97,-1.04 -7.58,-3.55 -14.69,-6.43 -7.1,-2.88 -16.7,-6.14 -25.15,-6.72 -8.46,-0.57 -15.75,1.54 -24.4,7.01 -8.65,5.47 -18.63,14.3 -27.76,31.49 -9.12,17.18 -17.38,42.73 -21.51,56.83 -4.12,14.12 -4.12,16.81 -5.28,18.54 -1.15,1.72 -3.46,2.5 -6.45,4.13 -2.97,1.63 -6.61,4.14 -62.88,45.9 -56.28,41.76 -165.18,122.8 -220.97,162.92 -55.79,40.14 -58.49,39.37 -62.23,37.93 -3.75,-1.44 -8.55,-3.56 -11.91,-3.84 -3.35,-0.28 -5.27,1.25 -55.69,44.36 -50.41,43.12 -149.31,127.8 -200.87,170.82 -51.56,43.01 -55.78,44.34 -62.41,44.34 -6.62,0 -15.65,-1.33 -20.94,-1.43 -5.27,-0.09 -6.81,1.06 -22.86,14.31 -16.02,13.24 -46.57,38.59 -62.51,51.57 -15.94,12.95 -17.29,13.51 -38.22,25.43 -20.94,11.91 -61.45,35.14 -98.33,58.28 -36.88,23.15 -70.1,46.2 -98.05,75 -27.94,28.81 -50.61,63.38 -74.61,119.25 -24,55.89 -49.35,133.09 -62.41,173.04 -13.06,39.95 -13.84,42.64 -14.41,39.67 -0.57,-2.98 -0.96,-11.62 -2.02,-17.97 -1.04,-6.33 -2.77,-10.37 -4.5,-12.68 -1.73,-2.3 -3.46,-2.87 -47.83,-13.34 -44.36,-10.47 -131.36,-30.82 -177.17,-40.9 -45.8,-10.08 -50.39,-9.89 -56.55,-8.65 -6.15,1.26 -13.83,3.55 -50.61,18.06 -36.77,14.49 -102.65,41.18 -139.61,56.94 -36.98,15.74 -45.04,20.55 -51.28,29.19 -6.25,8.64 -10.65,21.12 -12.78,29.28 -2.1,8.17 -1.91,12.01 -4.13,57.99 -2.2,46 -6.82,134.15 -9.6,178.6 -2.8,44.46 -3.75,45.24 -9.13,46.96 -5.37,1.73 -15.17,4.42 -60.4,15.94 -45.23,11.52 -125.88,31.88 -167.56,43.31 -41.67,11.42 -44.36,13.92 -45.89,18.53 -1.55,4.6 -1.94,11.32 -3.38,50.68 -1.44,39.37 -3.95,111.39 -4.04,150.56 -0.1,39.19 2.21,45.52 4.98,49.36 2.78,3.85 6.05,5.19 39.27,6.73 33.23,1.53 96.41,3.27 128.86,4.13 32.46,0.86 34.19,0.86 34.96,3.35 0.76,2.5 0.56,7.49 -1.84,10.08 -2.4,2.59 -7.01,2.78 -11.52,3.07 -4.52,0.3 -8.94,0.67 -12.21,2.4 -3.26,1.73 -5.36,4.8 -8.06,6.63 -2.69,1.82 -5.95,2.39 -10.47,2.78 -4.51,0.39 -10.26,0.58 -15.16,1.16 -4.9,0.57 -8.94,1.53 -11.92,3.44 -2.96,1.92 -4.89,4.81 -7.96,6.54 -3.07,1.73 -7.3,2.3 -12.49,2.59 -5.18,0.29 -11.32,0.29 -16.22,0.67 -4.9,0.39 -8.54,1.15 -12.2,3.27 -3.65,2.12 -7.29,5.57 -12.18,7 -4.9,1.44 -11.05,0.88 -18.55,2.3 -4.61,0.9 -9.74,2.55 -15.35,5.91 20.55,-1.83 49.67,-3.75 92.58,-5.61 101.56,-4.41 280.36,-8.53 367.96,-10.26 87.6,-1.73 84.01,-1.07 0.73,4.16 -83.27,5.22 -246.21,15.01 -344.66,22.69 -84.82,6.61 -121.77,11.65 -149.38,23.77 -2.83,4.06 -5.49,8.11 -7.88,11.97 -8.17,13.15 -13.15,23.91 -18.15,43.5 -5,19.58 -9.99,48.01 -7.3,75.09 2.69,27.08 13.06,52.81 20.37,68.55 7.28,15.76 11.52,21.51 12.47,24.78 0.95,3.26 -1.34,4.04 -14.4,5.77 -13.06,1.72 -36.88,4.41 -56.08,9.39 -19.2,5 -33.79,12.31 -38.41,16.53 -4.61,4.22 0.76,5.38 25.35,4.02 24.59,-1.33 68.37,-5.19 222.29,-2.88 153.94,2.31 417.99,10.76 553.09,12.59 135.1,1.82 141.24,-2.98 150.75,-5 9.51,-2.02 22.38,-1.25 132.7,2.02 110.33,3.26 318.12,9.02 425.37,11.34 107.26,2.3 113.99,1.14 103.03,-2.7 -10.94,-3.83 -39.55,-10.37 -59.14,-15.07 -19.59,-4.7 -30.14,-7.59 -32.18,-10.95 -2,-3.36 4.52,-7.2 10.09,-11.14 5.56,-3.94 10.18,-7.96 13.34,-12.39 3.17,-4.41 4.91,-9.21 7.69,-13.53 2.79,-4.33 6.63,-8.17 9.4,-12.49 2.8,-4.31 4.52,-9.12 6.15,-16.23 1.64,-7.1 3.18,-16.51 4.9,-23.9 1.74,-7.4 3.65,-12.77 4.32,-23.44 0.68,-10.66 0.1,-26.6 -0.38,-42.55 -0.48,-15.94 -0.86,-31.88 -2.4,-44.56 -1.54,-12.67 -4.22,-22.08 -8.16,-30.05 -3.95,-7.97 -9.13,-14.5 -13.64,-21.8 -4.5,-7.29 -8.36,-15.37 -15.47,-24 -7.09,-8.65 -17.47,-17.87 -26.21,-23.34 -8.73,-5.47 -15.84,-7.2 -89.79,-9.69 -73.94,-2.5 -214.69,-5.77 -285.67,-7.78 -70.95,-2.02 -72.12,-2.79 -73.65,-6.68 -1.53,-3.89 -3.45,-10.89 -3.89,-14.65 -0.43,-3.74 0.63,-4.22 5.81,-4.8 5.18,-0.57 14.5,-1.24 47.82,-3.65 33.32,-2.4 90.65,-6.54 120.17,-9.08 29.53,-2.55 31.25,-3.5 35.15,-9.51 3.89,-6 9.94,-17.05 12.58,-25.95 2.64,-8.89 1.87,-15.6 0.43,-19.3 -1.44,-3.69 -3.55,-4.37 -7.1,-5.43 -3.55,-1.06 -8.55,-2.48 -10.95,-3.5 -2.4,-1.01 -2.21,-1.58 -2.5,-23.48 -0.3,-21.89 -1.07,-65.11 -2.18,-87.59 -1.11,-22.47 -2.55,-24.2 -4.19,-25.25 -1.63,-1.06 -3.45,-1.45 -21.08,-1.88 -17.62,-0.43 -51.02,-0.91 -67.88,-1.2 -16.85,-0.29 -17.15,-0.38 -6.93,-26.27 10.23,-25.88 30.97,-77.54 58.23,-146.97 27.26,-69.43 61.08,-156.63 77.77,-200.79 16.71,-44.16 16.33,-45.33 14.22,-47.92 -2.12,-2.6 -5.95,-6.62 -7.6,-9.03 -1.62,-2.39 -1.05,-3.16 12.49,-40.13 13.53,-36.97 40.04,-110.15 53.58,-147.01 13.54,-36.88 14.12,-37.46 15.08,-38.14 0.96,-0.66 2.3,-1.44 115.51,-69.33 113.21,-67.89 338.28,-202.9 451.48,-270.8 113.22,-67.88 114.56,-68.66 115.23,-66.27 0.68,2.41 0.68,7.98 1.45,50.23 0.76,42.26 2.31,121.19 3.83,238.43 1.54,117.24 3.07,272.8 3.45,350.77 0.38,77.96 -0.38,78.36 -16.03,88.83 -15.65,10.46 -46.19,31 -62.71,41.65 -16.51,10.67 -19.01,11.44 -32.27,9.99 -13.24,-1.44 -37.25,-5.09 -49.73,-6.14 -12.49,-1.06 -13.45,0.48 -52.24,24.87 -38.78,24.39 -115.41,71.63 -155.06,95.24 -39.66,23.63 -42.35,23.63 -63,25.54 -20.65,1.92 -59.24,5.76 -78.93,7.67 -19.68,1.93 -20.46,1.93 -28.33,-5.85 -7.87,-7.77 -22.85,-23.33 -30.63,-31.01 -7.78,-7.68 -8.35,-7.49 -12,-6.91 -3.65,0.57 -10.37,1.53 -13.53,2.98 -3.18,1.43 -2.79,3.35 -2.31,11.22 0.48,7.88 1.05,21.71 0.66,28.72 -0.37,7 -1.73,7.2 -3.45,7.39 -1.73,0.2 -3.84,0.39 -5.57,-0.29 -1.72,-0.67 -3.08,-2.21 -12.67,-13.35 -9.6,-11.14 -27.47,-31.87 -37.36,-42.25 -9.88,-10.36 -11.81,-10.36 -16.04,-9.98 -4.22,0.38 -10.75,1.15 -13.9,2.55 -3.15,1.39 -2.9,3.42 -3.27,15.27zm358.01 -980.25c12.3,-10.56 34.58,-27.85 45.72,-36.87 11.14,-9.02 11.14,-9.8 9.98,-13.45 -1.15,-3.64 -3.46,-10.16 -4.42,-13.54 -0.96,-3.36 -0.56,-3.54 47.15,-37.25 47.72,-33.69 142.79,-100.92 192.04,-135.77 49.27,-34.87 52.71,-37.36 55.6,-39.18 2.89,-1.83 5.19,-2.98 2.7,2.2 -2.49,5.19 -9.8,16.71 -16.43,32.17 -6.61,15.46 -12.57,34.86 -15.85,50.12 -3.25,15.28 -3.83,26.42 -3.83,33.61 0,7.2 0.58,10.47 0.38,12.39 -0.18,1.93 -1.14,2.49 -22.66,7.49 -21.51,4.99 -63.57,14.41 -85.56,19.79 -21.98,5.38 -23.9,6.71 -25.83,9.3 -1.91,2.6 -3.83,6.45 -7,12.59 -3.17,6.14 -7.59,14.59 -10.56,19.67 -2.98,5.1 -4.53,6.83 -33.42,21.72 -28.91,14.88 -85.17,42.91 -113.89,57.32 -28.71,14.4 -29.87,15.17 -29.29,13.63 0.58,-1.53 2.88,-5.38 15.17,-15.94zm-692.19 982.22c56.36,-89.3 166.4,-263.09 222.1,-350.58 55.69,-87.47 57.03,-88.63 47.33,-60.87 -9.7,27.75 -30.43,84.4 -41.19,113.4 -10.75,29 -11.52,30.35 -12.58,31.11 -1.06,0.76 -2.4,0.96 -5.28,1.05 -2.88,0.1 -7.3,0.1 -9.98,1.55 -2.7,1.43 -3.65,4.31 -27.27,65.96 -23.63,61.65 -69.91,182.06 -93.34,242.74 -23.43,60.69 -24,61.64 -27.36,61.83 -3.36,0.19 -9.51,-0.38 -29,-1.05 -19.5,-0.67 -52.33,-1.44 -68.76,-2.5 -16.42,-1.05 -16.42,-2.39 -15.07,-5.47 1.34,-3.06 4.04,-7.87 60.4,-97.17z"/>
   <path class="fil3" d="M619.26 1619.13c-0.49,-4.03 -1.15,-10.37 -0.96,-13.69 0.19,-3.31 1.25,-3.6 22.98,-9.65 21.76,-6.05 64.21,-17.87 85.67,-23.67 21.46,-5.81 21.94,-5.62 22.62,-1.54 0.67,4.08 1.54,12.06 1.58,16.43 0.05,4.36 -0.72,5.13 -1.78,5.71 -1.06,0.57 -2.4,0.96 -23.86,6.58 -21.46,5.61 -63.04,16.47 -83.93,21.89 -20.89,5.43 -21.07,5.43 -21.32,4.56 -0.24,-0.85 -0.53,-2.6 -1,-6.62z"/>
   <path class="fil3" d="M619.84 1654.27c-0.49,-4.03 -1.16,-10.37 -0.96,-13.68 0.19,-3.31 1.24,-3.6 22.99,-9.65 21.74,-6.04 64.2,-17.87 85.66,-23.68 21.45,-5.81 21.95,-5.61 22.62,-1.53 0.67,4.08 1.54,12.05 1.58,16.42 0.05,4.37 -0.73,5.14 -1.78,5.71 -1.06,0.57 -2.4,0.96 -23.86,6.59 -21.46,5.62 -63.04,16.47 -83.93,21.89 -20.89,5.43 -21.07,5.43 -21.32,4.56 -0.24,-0.86 -0.53,-2.59 -1,-6.63z"/>
   <path class="fil3" d="M620.41 1691.72c-0.49,-4.02 -1.14,-10.37 -0.96,-13.67 0.19,-3.32 1.24,-3.61 22.99,-9.66 21.76,-6.04 64.21,-17.86 85.67,-23.67 21.46,-5.81 21.95,-5.62 22.61,-1.54 0.68,4.08 1.54,12.06 1.59,16.42 0.05,4.38 -0.72,5.14 -1.79,5.71 -1.04,0.59 -2.39,0.98 -23.86,6.59 -21.45,5.61 -63.04,16.47 -83.93,21.89 -20.87,5.43 -21.07,5.43 -21.31,4.56 -0.23,-0.86 -0.52,-2.6 -1.01,-6.63z"/>
   <path class="fil3" d="M620.98 1729.18c-0.47,-4.03 -1.14,-10.37 -0.96,-13.68 0.21,-3.32 1.25,-3.61 23,-9.66 21.75,-6.04 64.2,-17.86 85.67,-23.67 21.47,-5.8 21.94,-5.62 22.61,-1.54 0.68,4.09 1.54,12.07 1.59,16.43 0.05,4.37 -0.73,5.14 -1.78,5.71 -1.05,0.58 -2.4,0.97 -23.87,6.58 -21.46,5.61 -63.04,16.47 -83.93,21.9 -20.88,5.42 -21.07,5.42 -21.31,4.56 -0.24,-0.87 -0.53,-2.61 -1.02,-6.63z"/>
   <path class="fil4" d="M906.72 1433.78c0.78,-43.3 2.2,-126.45 4.07,-170.09 1.87,-43.64 4.17,-47.77 9.36,-52.47 5.19,-4.71 13.24,-10 20.02,-13.65 6.77,-3.63 12.25,-5.66 15.17,-6.53 2.93,-0.86 3.32,-0.57 3.56,0.25 0.24,0.81 0.33,2.16 -0.45,48.96 -0.76,46.82 -2.39,139.09 -3.25,185.57 -0.88,46.46 -0.97,47.14 -9.04,49.34 -8.06,2.21 -24.11,5.96 -32.17,7.69 -8.07,1.72 -8.16,1.44 -8.16,-0.44 0.01,-1.86 0.12,-5.32 0.89,-48.63z"/>
   <path class="fil4" d="M970.26 1416.28c1.83,-47.33 5.37,-140.77 7.28,-187.87 1.92,-47.1 2.21,-47.87 2.73,-48.55 0.53,-0.67 1.31,-1.24 20.08,-9.16 18.77,-7.92 55.56,-23.18 76.01,-31.16 20.45,-7.97 24.57,-8.64 29.14,-8.21 4.56,0.43 9.55,1.96 14.69,4.94 5.13,2.98 10.42,7.4 13.58,11.25 3.18,3.83 4.23,7.1 4.75,50.45 0.54,43.36 0.55,126.8 0.3,169.15 -0.24,42.34 -0.72,43.58 -1.68,44.54 -0.96,0.96 -2.4,1.64 -30.49,10.83 -28.08,9.19 -82.81,26.92 -110.32,35.6 -27.51,8.7 -27.8,8.36 -27.9,7.56 -0.09,-0.78 0.02,-2.02 1.83,-49.37z"/>
   <path class="fil4" d="M1003.95 1490.69c27.47,-7.39 78.55,-22.18 105.14,-29.57 26.61,-7.4 28.72,-7.4 30.16,-6.82 1.44,0.57 2.21,1.73 2.11,25.83 -0.1,24.11 -1.06,71.15 -1.53,95.54 -0.49,24.4 -0.49,26.12 -2.21,27.85 -1.73,1.73 -5.19,3.46 -26.8,9.31 -21.6,5.87 -61.36,15.85 -81.81,20.36 -20.45,4.51 -21.61,3.55 -28.62,-2.88 -7,-6.43 -19.87,-18.34 -26.5,-26.02 -6.61,-7.69 -7,-11.13 -7.58,-27.75 -0.58,-16.61 -1.35,-46.38 -0.96,-61.65 0.38,-15.27 1.92,-16.03 4.6,-16.41 2.7,-0.39 6.54,-0.39 34,-7.79z"/>
   <path class="fil4" d="M1192.01 1393.67c-2,-49.6 -6.04,-146.58 -5.95,-197.09 0.1,-50.51 4.33,-54.55 7.4,-57.06 3.07,-2.48 4.99,-3.43 8.83,-3.35 3.85,0.1 9.6,1.26 40.34,8.65 30.72,7.39 86.41,21.02 114.64,28.52 28.23,7.49 29.01,8.83 30.16,13.62 1.15,4.81 2.69,13.07 5.75,62.9 3.09,49.84 7.7,141.26 8.86,187.35 1.14,46.09 -1.16,46.87 -3.65,47.25 -2.5,0.39 -5.19,0.39 -38.99,-5.49 -33.8,-5.89 -98.71,-17.65 -131.48,-23.86 -32.77,-6.18 -33.39,-6.81 -33.69,-8.22 -0.28,-1.41 -0.23,-3.63 -2.22,-53.22z"/>
   <path class="fil4" d="M1239.88 1490.01c34.48,6.06 100.53,17.57 134.14,23.44 33.61,5.86 34.76,6.05 35.82,7.2 1.05,1.15 2.02,3.27 2.98,30.05 0.96,26.79 1.92,78.26 0.86,105.63 -1.06,27.37 -4.13,30.63 -7.01,32.74 -2.89,2.11 -5.57,3.07 -37.64,1.82 -32.07,-1.25 -93.52,-4.71 -126.56,-8.45 -33.03,-3.74 -37.64,-7.77 -41,-14.29 -3.36,-6.53 -5.48,-15.57 -6.54,-46.58 -1.05,-31.02 -1.05,-84.02 -0.09,-110.82 0.96,-26.78 2.88,-27.35 5.29,-27.35 2.4,0 5.27,0.57 39.75,6.61z"/>
   <path class="fil3" d="M801.32 1773.47c69.71,-12.77 207.21,-37.93 277.21,-50.52 70,-12.58 72.51,-12.58 125.8,-5.66 53.28,6.92 157.39,20.73 210.29,27.86 52.91,7.1 54.64,7.48 4.61,5.65 -50.03,-1.82 -151.82,-5.84 -205.11,-7.88 -53.29,-2 -58.1,-2 -102.75,3.37 -44.65,5.38 -129.14,16.14 -205.39,25.93 -76.25,9.8 -144.22,18.62 -179.86,23.13 -35.62,4.52 -38.88,4.71 -33.22,2.6 5.67,-2.11 20.26,-6.54 28.52,-8.93 8.26,-2.41 10.18,-2.79 79.9,-15.55z"/>
   <path class="fil5" d="M1438.3 1351.73c-1.14,-34.85 -3.25,-93.62 -4.02,-123.68 -0.76,-30.04 -0.19,-31.39 13.53,-67.88 13.73,-36.49 40.62,-108.11 63.08,-158.72 22.48,-50.6 40.53,-80.18 59.53,-106 19.02,-25.84 38.99,-47.92 62.42,-67.51 23.43,-19.59 50.32,-36.68 76.91,-53.49 26.6,-16.79 52.92,-33.32 95.83,-57.51 42.92,-24.19 102.46,-56.08 201.94,-108.13 99.48,-52.04 238.91,-124.26 309.19,-161.22 70.3,-36.98 71.45,-38.7 74.24,-42.94 2.78,-4.22 7.2,-10.94 10.26,-15.26 3.08,-4.33 4.8,-6.23 36.2,-16.9 31.4,-10.66 92.48,-30.05 129.45,-37.06 36.97,-7.02 49.83,-1.64 56.65,4.22 6.82,5.87 7.59,12.2 5,19.49 -2.6,7.31 -8.55,15.56 -44.56,42.44 -36.01,26.89 -102.07,72.41 -136.26,96.41 -34.18,24.01 -36.49,26.51 -45.31,27.18 -8.84,0.68 -24.21,-0.48 -32.66,-0.48 -8.44,0 -9.98,1.16 -116.29,68.56 -106.3,67.4 -317.36,201.06 -433.65,278.06 -116.29,77.01 -137.79,97.36 -163.52,133.84 -25.74,36.49 -55.71,89.12 -92.1,159.97 -36.39,70.87 -79.22,159.99 -101.01,203.58 -21.8,43.59 -22.57,41.67 -23.04,35.25 -0.47,-6.43 -0.65,-17.37 -1.81,-52.22z"/>
   <path class="fil3" d="M2581.77 278.65c4.9,-23.81 13.92,-67.78 19.11,-91.4 5.18,-23.62 6.53,-26.9 25.53,-46.39 19.02,-19.49 55.7,-55.2 75.67,-74.12 19.98,-18.92 23.24,-21.03 27.56,-21.9 4.33,-0.86 9.7,-0.48 15.65,0.09 5.96,0.59 12.48,1.36 16.81,2.51 4.32,1.14 6.44,2.69 5.47,26.11 -0.96,23.43 -4.99,68.76 -17.57,188.5 -12.58,119.73 -33.7,313.88 -51.37,475.1 -17.65,161.23 -31.87,289.51 -39.75,353.18 -7.86,63.65 -9.41,62.69 -11.9,61.74 -2.49,-0.96 -5.96,-1.92 -7.77,-4.51 -1.84,-2.59 -2.02,-6.82 -1.55,-17.19 0.48,-10.37 1.65,-26.89 -0.38,-40.14 -2.01,-13.24 -7.2,-23.24 -14.69,-28.62 -7.49,-5.38 -17.29,-6.15 -24.88,-4.8 -7.58,1.35 -12.96,4.81 -16.89,7.5 -3.94,2.69 -6.44,4.6 -7.59,2.88 -1.15,-1.74 -0.95,-7.11 -0.58,-39.57 0.39,-32.46 0.96,-91.99 0.58,-180.04 -0.37,-88.05 -1.72,-204.62 -3.06,-275.96 -1.35,-71.35 -2.7,-97.45 -3.08,-110.91 -0.38,-13.44 0.2,-14.21 16.32,-26.99 16.15,-12.77 47.82,-37.54 63.67,-56.46 15.84,-18.92 15.84,-31.97 9.51,-42.83 -6.34,-10.85 -19.01,-19.49 -32.65,-23.33 -13.63,-3.85 -28.23,-2.89 -36.49,-2.31 -8.26,0.58 -10.17,0.77 -10.75,-0.96 -0.58,-1.72 0.18,-5.36 5.07,-29.18z"/>
   <path class="fil6" d="M2565.71 1111.11c1.53,-8.63 6.15,-17.85 12,-24.1 5.86,-6.24 12.95,-9.49 19.2,-7.96 6.25,1.54 11.62,7.88 14.79,18.72 3.17,10.86 4.13,26.22 5.28,35.24 1.16,9.03 2.5,11.72 17.1,42.06 14.59,30.35 42.45,88.35 57.42,117.34 14.98,29 17.09,29 20.55,30.82 3.45,1.83 8.25,5.47 12.29,11.82 4.04,6.34 7.3,15.36 8.64,24.77 1.34,9.41 0.77,19.21 -4.32,27.75 -5.09,8.54 -14.69,15.85 -24.01,19.11 -9.31,3.27 -18.33,2.5 -25.25,-2.4 -6.91,-4.89 -11.71,-13.92 -13.44,-24.29 -1.74,-10.37 -0.39,-22.09 0.66,-29.48 1.06,-7.39 1.84,-10.47 2.02,-13.16 0.19,-2.68 -0.18,-4.98 -13.05,-34.08 -12.87,-29.09 -38.23,-84.99 -52.72,-113.22 -14.5,-28.22 -18.15,-28.8 -21.8,-30.15 -3.65,-1.34 -7.3,-3.46 -9.61,-7.59 -2.3,-4.13 -3.26,-10.27 -4.5,-17.38 -1.25,-7.11 -2.79,-15.16 -1.25,-23.82z"/>
   <path class="fil6" d="M2566 1254.86c-0.29,-18.52 1.63,-54.63 3.64,-71.52 2.03,-16.9 4.13,-14.61 14.5,8.81 10.38,23.44 29,68 37.07,90.18 8.07,22.18 5.57,22 -4.52,17.1 -10.08,-4.9 -27.74,-14.5 -37.82,-19.79 -10.08,-5.28 -12.59,-6.24 -12.87,-24.78z"/>
   <path class="fil3" d="M2735.95 1205.94c6.43,-66 17.96,-194.49 25.35,-259.49 7.4,-65.01 10.67,-66.55 13.44,-66.94 2.8,-0.37 5.09,0.39 8.07,1.35 2.98,0.96 6.62,2.12 8.74,3.47 2.11,1.34 2.68,2.88 -2.65,69.27 -5.33,66.4 -16.56,197.66 -22.62,263.29 -6.05,65.63 -6.91,65.63 -12.09,65.25 -5.19,-0.39 -14.7,-1.16 -19.98,-1.73 -5.29,-0.58 -6.34,-0.96 -6.19,-2.93 0.15,-1.97 1.5,-5.51 7.93,-71.54z"/>
   <path class="fil7" d="M1967.83 1544.15c40.33,-5.76 114.46,-18.05 155.95,-25.16 41.48,-7.11 50.31,-9.02 89.68,-30.91 39.37,-21.89 109.28,-63.76 145.37,-84.7 36.12,-20.93 38.43,-20.93 43.23,-16.9 4.79,4.04 12.09,12.1 21.5,24.96 9.41,12.88 20.93,30.55 25.15,42.83 4.23,12.29 1.16,19.21 -23.41,39.94 -24.6,20.76 -70.67,55.31 -99.3,76.06 -28.62,20.73 -39.75,27.66 -47.05,32.65 -7.3,4.99 -10.75,8.07 4.23,3.45 14.98,-4.61 48.39,-16.89 73.54,-28.42 25.17,-11.52 42.07,-22.27 50.52,-27.08 8.45,-4.8 8.45,-3.64 6.34,18.06 -2.12,21.69 -6.34,63.95 -15.37,101.59 -9.03,37.64 -22.85,70.67 -39.38,104.09 -16.51,33.42 -35.71,67.21 -46.85,85.45 -11.14,18.26 -14.21,20.93 -20.74,22.09 -6.53,1.15 -16.52,0.77 -43.4,-1.35 -26.89,-2.11 -70.68,-5.96 -93.73,-8.83 -23.04,-2.88 -25.34,-4.8 -48.2,-32.65 -22.85,-27.84 -66.25,-81.62 -90.84,-112.15 -24.58,-30.54 -30.34,-37.84 -37.25,-50.33 -6.91,-12.47 -14.98,-30.14 -25.73,-52.41 -10.76,-22.28 -24.21,-49.18 -27.66,-62.23 -3.46,-13.05 3.06,-12.3 43.4,-18.05z"/>
   <path class="fil6" d="M2529.67 1391.3c-3.45,-8.54 -7.16,-20.23 -5.76,-31.54 1.41,-11.31 7.95,-22.26 16.68,-28.6 8.74,-6.33 19.68,-8.06 28.13,-5.56 8.45,2.49 14.41,9.22 17.67,18.05 3.27,8.83 3.84,19.79 2.02,31.4 -1.82,11.61 -6.05,23.92 -14.61,29.96 -8.53,6.05 -21.41,5.86 -29.43,3.06 -8.04,-2.8 -11.24,-8.21 -14.7,-16.77z"/>
   <path class="fil6" d="M2481.41 1751.06c-2.99,-7.4 -6.2,-17.53 -4.98,-27.33 1.22,-9.8 6.87,-19.28 14.44,-24.77 7.57,-5.49 17.05,-6.99 24.38,-4.83 7.31,2.17 12.47,7.99 15.29,15.64 2.84,7.65 3.34,17.14 1.75,27.21 -1.57,10.06 -5.24,20.71 -12.65,25.94 -7.39,5.24 -18.54,5.08 -25.5,2.65 -6.95,-2.42 -9.74,-7.11 -12.73,-14.51z"/>
   <path class="fil6" d="M2571.78 1688.26c5,4.14 12.3,11.06 16.14,14.61 3.84,3.55 4.22,3.74 5.08,3.17 0.86,-0.58 2.21,-1.92 24.68,-43.8 22.47,-41.86 66.07,-124.25 88.53,-166.21 22.48,-41.96 23.82,-43.5 23.15,-44.55 -0.67,-1.06 -3.36,-1.64 -9.13,-3.08 -5.76,-1.44 -14.59,-3.74 -19.49,-4.9 -4.9,-1.14 -5.85,-1.14 -7,0.38 -1.15,1.55 -2.5,4.62 -24.59,44.47 -22.08,39.84 -64.91,116.48 -86.33,154.79 -21.41,38.31 -21.41,38.31 -20.06,38.98 1.34,0.68 4.03,2.02 9.02,6.14z"/>
   <path class="fil6" d="M2750.77 1390.89c1.71,-7.29 4.98,-19.97 7.47,-26.02 2.51,-6.04 4.24,-5.47 11.24,-3.45 7.02,2.02 19.31,5.47 27.85,8.16 8.54,2.7 13.35,4.6 17.76,7.78 4.43,3.16 8.45,7.59 10.28,11.81 1.82,4.23 1.44,8.25 0.29,11.03 -1.16,2.79 -3.07,4.34 -5.86,4.9 -2.79,0.58 -6.43,0.2 -17.48,-0.48 -11.04,-0.67 -29.47,-1.62 -39.65,-2.1 -10.19,-0.49 -12.1,-0.49 -12.96,-1.45 -0.86,-0.96 -0.67,-2.87 1.06,-10.18z"/>
   <path class="fil3" d="M1580.86 1759.42c-0.87,-10.36 -2.78,-27.46 -2.88,-37.83 -0.09,-10.37 1.63,-14.02 7.58,-24.29 5.97,-10.27 16.14,-27.18 21.9,-36.2 5.76,-9.02 7.11,-10.18 23.82,-10.57 16.7,-0.38 48.77,0 65.1,0.67 16.33,0.68 16.9,1.63 17.66,21.51 0.77,19.88 1.73,58.67 1.64,78.08 -0.09,19.39 -1.25,19.39 -3.17,19.39 -1.92,0 -4.61,0 -26.5,1.15 -21.9,1.16 -62.99,3.46 -83.64,4.6 -20.64,1.17 -20.84,1.17 -20.84,-0.67 0,-1.82 0.2,-5.47 -0.67,-15.84z"/>
   <path class="fil7" d="M1431.83 1891.11c30.53,2.44 57.95,6.35 79.01,26.27 21.07,19.92 35.76,55.85 36.42,97.32 0.66,41.47 -12.73,88.49 -28.24,116.41 -15.51,27.92 -33.14,36.74 -43.76,42.12 -10.61,5.39 -14.2,7.35 -9.14,2.62 5.06,-4.73 18.78,-16.17 30.21,-36.9 11.43,-20.73 20.57,-50.78 24.16,-86.21 1.45,-14.34 1.99,-29.55 0.97,-44.36 -2.85,-0.13 -6.02,-0.31 -9.56,-0.57 -35.42,-2.53 -106.77,-11.51 -140.33,-16 -33.54,-4.49 -29.3,-4.49 4,-4.9 33.31,-0.41 95.68,-1.22 128.09,-0.24 6.04,0.18 11.03,0.43 15.18,0.72 -2.26,-11.96 -5.86,-23.2 -11.2,-32.91 -4.38,-0.07 -9.82,-0.31 -16.56,-0.79 -35.43,-2.53 -106.78,-11.51 -140.33,-16 -33.55,-4.49 -29.3,-4.49 4,-4.9 33.31,-0.41 95.68,-1.22 128.09,-0.24 2.59,0.08 5,0.16 7.22,0.27 -17.91,-15.69 -42.03,-24.52 -63.78,-30.61 -28.57,-8 -53.06,-11.26 -67.76,-13.06 -14.69,-1.79 -19.59,-2.13 -5.22,-1.8 14.37,0.33 48,1.31 78.53,3.76zm520.04 27.35c-22.94,-0.42 -59.92,0.05 -80.49,0.3 -22.52,0.28 -25.39,0.28 -2.71,3.32 22.69,3.03 70.93,9.11 94.88,10.81 4.03,0.29 7.37,0.45 10.14,0.52 5.34,4.77 10.11,10.16 14.07,16.29 11.62,17.98 16.33,42.3 17.08,67.06 -5.82,-0.64 -13.76,-1.16 -24.73,-1.49 -36.83,-1.1 -107.7,-0.19 -145.54,0.28 -37.84,0.47 -42.66,0.47 -4.55,5.57 38.13,5.1 119.2,15.31 159.45,18.18 5.81,0.41 10.76,0.67 14.99,0.81 -0.26,4.26 -0.59,8.48 -1.01,12.63 -2.82,27.85 -9.08,52.36 -17.17,71.65 -3.56,-0.46 -8.64,-0.82 -16.06,-1.05 -21.91,-0.66 -64.08,-0.11 -86.59,0.17 -22.52,0.28 -25.39,0.28 -2.71,3.31 22.69,3.04 70.93,9.11 94.88,10.82l4.06 0.26 -0.57 1.05c-11.43,20.73 -25.15,32.17 -30.21,36.9 -5.06,4.73 -1.47,2.77 9.14,-2.62 10.62,-5.38 28.25,-14.2 43.76,-42.12 15.51,-27.92 28.9,-74.94 28.24,-116.41 -0.65,-41.47 -15.35,-77.4 -36.42,-97.32 -21.06,-19.92 -48.48,-23.83 -79.01,-26.27 -30.53,-2.45 -64.16,-3.43 -78.53,-3.76 -14.37,-0.33 -9.47,0.01 5.22,1.8 14.7,1.8 39.19,5.06 67.76,13.06 13.99,3.91 28.97,8.97 42.63,16.25z"/>
   <path class="fil8" d="M1959.73 1707.42l1.69 3.44c15.27,30.92 17.19,32.85 43.88,69.14 26.7,36.3 78.17,106.98 104.67,142.51 26.49,35.52 28.04,35.9 50.11,39.12 10.57,1.54 25.84,3.73 41.42,5.91 6.24,-14.72 12.14,-29.61 17.71,-44.67l-1.1 -0.14c-23.05,-2.82 -65.68,-8.87 -87.76,-12.1 -22.07,-3.22 -23.62,-3.6 -50.11,-39.12 -26.5,-35.53 -77.97,-106.2 -104.67,-142.5 -6.6,-8.99 -11.7,-15.87 -15.84,-21.59zm59.13 -834.85c13.29,14.84 26.18,30.07 38.62,45.66l-56.79 34.07c-113.22,67.89 -114.56,68.67 -115.52,69.33 -0.97,0.68 -1.54,1.26 -15.08,38.14 -13.54,36.86 -40.05,110.04 -53.58,147.01 -13.54,36.97 -14.11,37.74 -12.49,40.13 1.65,2.41 5.48,6.43 7.6,9.03 2.11,2.59 2.49,3.75 -14.22,47.92 -16.69,44.16 -50.51,131.36 -77.77,200.79 -20.42,52.02 -37.19,94.06 -48.62,122.76l-32.41 -0.53c-16.85,-0.28 -17.15,-0.38 -6.93,-26.26 10.24,-25.89 30.97,-77.54 58.23,-146.97 27.26,-69.43 61.08,-156.63 77.77,-200.79 16.71,-44.16 16.33,-45.33 14.22,-47.92l-0.12 -0.14 0.04 -0.09c10.76,-28.99 31.49,-85.64 41.2,-113.4 7.61,-21.78 8.41,-25.74 -18.5,15.82 12.66,-34.82 27.02,-74.31 35.85,-98.36 13.54,-36.88 14.11,-37.46 15.08,-38.14 0.96,-0.66 2.3,-1.44 115.52,-69.33l47.9 -28.73zm-1414.29 963.36c0.08,35.35 2.31,41.35 4.98,45.05 2.79,3.85 6.05,5.19 39.28,6.72l11.85 0.51c0.73,-0.49 1.46,-0.97 2.18,-1.39 3.66,-2.12 7.3,-2.88 12.2,-3.27 4.89,-0.39 11.04,-0.39 16.23,-0.67 5.18,-0.29 9.41,-0.86 12.48,-2.59 3.06,-1.73 5,-4.62 7.96,-6.53 2.98,-1.92 7.02,-2.88 11.92,-3.46 4.9,-0.57 10.65,-0.76 15.16,-1.15 4.51,-0.39 7.78,-0.96 10.47,-2.78 2.69,-1.83 4.8,-4.9 8.06,-6.63 3.27,-1.73 7.69,-2.11 12.21,-2.4 4.51,-0.29 9.12,-0.47 11.53,-3.07 2.4,-2.59 2.59,-7.58 1.83,-10.07 -0.77,-2.5 -2.51,-2.5 -34.96,-3.36 -32.45,-0.87 -95.63,-2.6 -128.85,-4.14 -5.67,-0.26 -10.46,-0.51 -14.53,-0.77zm202.43 56.96c4.62,0.42 5.25,1.05 5.64,2.31 0.76,2.49 0.57,7.48 -1.83,10.07 -1.31,1.41 -3.27,2.11 -5.5,2.5 93.65,-6.48 207.59,-13.37 272.74,-17.45 83.27,-5.23 86.86,-5.89 -0.73,-4.15 -63.56,1.25 -175.09,3.76 -270.32,6.72zm1247.78 310.16c0.61,-1.15 1.25,-2.28 1.96,-3.39 2.79,-4.32 6.63,-8.16 9.4,-12.48 2.8,-4.31 4.53,-9.13 6.15,-16.23 1.64,-7.1 3.18,-16.51 4.9,-23.9 1.74,-7.4 3.65,-12.77 4.32,-23.44 0.68,-10.66 0.1,-26.6 -0.38,-42.56 -0.48,-15.94 -0.87,-31.87 -2.4,-44.55 -1.54,-12.67 -4.22,-22.09 -8.16,-30.05 -3.95,-7.97 -9.13,-14.5 -13.64,-21.8 -3.79,-6.14 -7.12,-12.83 -12.32,-19.95 1.96,5.92 3.41,12.69 4.39,20.8 1.53,12.68 1.92,28.61 2.4,44.55 0.48,15.96 1.06,31.9 0.38,42.56 -0.67,10.67 -2.58,16.04 -4.32,23.44 -1.72,7.39 -3.26,16.8 -4.9,23.91 -1.62,7.1 -3.35,11.91 -6.15,16.22 -2.77,4.33 -6.61,8.16 -9.4,12.48 -2.77,4.33 -4.52,9.13 -7.69,13.54 -3.16,4.43 -7.77,8.45 -13.35,12.39 -5.56,3.94 -12.08,7.79 -10.08,11.13 2.04,3.37 12.59,6.25 32.18,10.96 8,1.92 17.51,4.15 26.71,6.37zm-284.63 -330.03c0.35,-0.47 0.69,-0.99 1.05,-1.55 3.89,-6 9.94,-17.05 12.58,-25.95 2.64,-8.89 1.87,-15.6 0.43,-19.3 -1.44,-3.69 -3.55,-4.37 -7.1,-5.43 -3.55,-1.06 -8.55,-2.48 -10.95,-3.5 -2.39,-1.01 -2.2,-1.58 -2.5,-23.48 -0.3,-21.89 -1.08,-65.12 -2.18,-87.59 -1.11,-22.47 -2.55,-24.2 -4.19,-25.25 -1.63,-1.06 -3.45,-1.45 -21.08,-1.88l-3.58 -0.08c0.64,21.99 1.09,48.26 1.3,63.8 0.3,21.9 0.11,22.47 2.5,23.48 2.4,1.02 7.4,2.44 10.95,3.5 3.55,1.06 5.66,1.74 7.1,5.43 1.44,3.7 2.21,10.41 -0.43,19.3 -2.64,8.9 -8.69,19.95 -12.58,25.96 -3.9,6 -5.61,6.95 -35.15,9.5 -29.53,2.55 -86.85,6.68 -120.17,9.08 -33.32,2.41 -42.64,3.08 -47.82,3.65 -5.18,0.58 -6.24,1.06 -5.81,4.8 0.44,3.75 2.36,10.76 3.89,14.65 1.54,3.89 2.69,4.67 73.65,6.68 39.57,1.12 100.82,2.63 160.09,4.18zm-216.58 -370.25c30.44,-48.24 76.55,-121.12 121.29,-191.74l22.11 -57.64c23.62,-61.66 24.57,-64.53 27.27,-65.96 2.68,-1.45 7.1,-1.45 9.99,-1.55 2.87,-0.09 4.21,-0.28 5.27,-1.05 1.06,-0.76 1.83,-2.11 12.58,-31.12 10.76,-28.99 31.49,-85.64 41.2,-113.4 9.69,-27.76 8.35,-26.59 -47.34,60.88 -55.7,87.49 -165.74,261.27 -222.1,350.58 -56.37,89.3 -59.06,94.1 -60.4,97.17 -1.35,3.08 -1.35,4.42 15.07,5.47 9.99,0.65 26.04,1.19 41.48,1.66 8.27,-13.17 19.17,-30.47 33.58,-53.3z"/>
   <path class="fil0" d="M1434.08 1212.74c0.21,-16.74 2.8,-23.5 13.73,-52.57 13.73,-36.49 40.62,-108.11 63.08,-158.72 22.48,-50.6 40.52,-80.18 59.53,-106 19.02,-25.84 38.99,-47.92 62.42,-67.51 23.43,-19.59 50.32,-36.67 76.91,-53.49 26.6,-16.79 52.91,-33.31 95.84,-57.51 42.91,-24.19 102.45,-56.08 201.93,-108.13 99.49,-52.04 238.9,-124.26 309.19,-161.22 70.3,-36.98 71.45,-38.7 74.24,-42.93 2.78,-4.23 7.2,-10.95 10.26,-15.27 3.08,-4.33 4.8,-6.23 36.2,-16.9 31.4,-10.66 92.48,-30.05 129.45,-37.06 36.97,-7.02 49.83,-1.64 56.64,4.22 6.08,5.23 7.35,10.82 5.73,17.14 -8.22,-3.66 -22.39,-5.37 -50.13,-0.11 -36.97,7.01 -115.35,33.96 -146.75,44.63 -31.39,10.66 -33.12,12.57 -36.2,16.89 -3.06,4.33 -7.47,11.05 -10.25,15.27 -2.8,4.24 -3.94,5.96 -74.24,42.93 -70.29,36.96 -209.71,109.18 -309.2,161.22 -99.47,52.05 -159.01,83.94 -201.93,108.13 -42.92,24.2 -69.23,40.72 -95.83,57.51 -26.6,16.82 -53.48,33.9 -76.91,53.49 -23.43,19.6 -43.41,41.68 -62.42,67.51 -19.01,25.82 -37.06,55.41 -59.53,106.01 -22.46,50.6 -49.35,122.23 -63.09,158.71 -3.83,10.2 -6.64,17.66 -8.67,23.76z"/>
   <path class="fil0" d="M2750.74 45.52c4.23,0.5 8.34,1.12 11.36,1.92 4.33,1.14 6.44,2.68 5.47,26.11 -0.95,23.43 -4.99,68.76 -17.57,188.51 -12.58,119.72 -33.7,313.87 -51.36,475.09 -17.66,161.23 -31.88,289.51 -39.76,353.18 -7.86,63.65 -9.41,62.69 -11.9,61.74 -2.49,-0.96 -5.95,-1.93 -7.78,-4.51 -1.79,-2.53 -2.01,-6.63 -1.57,-16.49 1.49,-9.24 3.44,-23.41 6.12,-45.07 7.87,-63.67 22.09,-191.95 39.75,-353.17 17.67,-161.23 38.79,-355.38 51.37,-475.1 12.58,-119.74 16.61,-165.07 17.56,-188.51 0.63,-14.97 -0.02,-21 -1.69,-23.7z"/>
   <path class="fil9" d="M2408.35 1392.62c4.16,4.49 9.27,10.7 15.21,18.82 9.41,12.87 20.94,30.55 25.15,42.83 4.23,12.29 1.16,19.21 -23.42,39.95 -24.59,20.75 -70.66,55.3 -99.29,76.04l-10.56 7.6c-17.21,6.8 -33.73,12.66 -43.08,15.54 -14.98,4.62 -11.53,1.53 -4.22,-3.45 7.29,-4.99 18.43,-11.92 47.04,-32.66 28.63,-20.75 74.71,-55.29 99.3,-76.05 24.58,-20.73 27.65,-27.65 23.41,-39.95 -4.21,-12.27 -15.73,-29.95 -25.14,-42.82 -1.52,-2.07 -2.99,-4.03 -4.4,-5.85zm-5.33 160.71l4.22 -2.46c8.45,-4.8 8.45,-3.64 6.34,18.06 -2.12,21.69 -6.34,63.94 -15.37,101.58 -9.03,37.65 -22.85,70.68 -39.38,104.09 -16.51,33.43 -35.71,67.22 -46.85,85.46 -11.14,18.25 -14.21,20.93 -20.74,22.09 -6.53,1.15 -16.51,0.77 -43.4,-1.35 -26.89,-2.11 -70.68,-5.96 -93.73,-8.83 -23.04,-2.88 -25.34,-4.8 -48.2,-32.65l-0.5 -0.61c13.97,16.19 18.87,17.92 37.88,20.29 23.06,2.87 66.85,6.72 93.73,8.83 26.89,2.11 36.87,2.49 43.41,1.35 6.52,-1.16 9.59,-3.84 20.74,-22.09 11.13,-18.24 30.33,-52.03 46.85,-85.46 16.53,-33.42 30.34,-66.44 39.38,-104.09 9.03,-37.64 13.25,-79.89 15.37,-101.58l0.25 -2.63z"/>
   <path class="fil7" d="M604.18 1960.49c-11.8,9.2 -19.19,20.91 -25.41,37.4 -6.21,16.49 -11.26,37.75 -10.9,60.46 0.37,22.7 6.14,46.86 9.56,60.55 3.42,13.69 4.51,16.94 3.25,8.29 -1.27,-8.65 -4.87,-29.2 -4.33,-51.9 0.54,-22.71 5.22,-47.58 10.22,-64.48 5.01,-16.91 10.33,-25.84 17.78,-33.56 7.46,-7.71 17.03,-14.2 34.47,-20.45 17.43,-6.25 42.71,-12.27 74.99,-16.63 32.29,-4.36 71.58,-7.07 90.58,-8.6 19.02,-1.53 17.76,-1.89 -11.62,-0.62 -29.37,1.26 -86.86,4.14 -123.71,8.91 -36.85,4.78 -53.07,11.45 -64.88,20.63z"/>
   <path class="fil0" d="M1239.88 1490.01c34.48,6.06 100.53,17.58 134.14,23.44 33.62,5.87 34.76,6.05 35.82,7.19 1.05,1.16 2.02,3.28 2.98,30.07 0.96,26.78 1.92,78.25 0.86,105.62 -1.06,27.37 -4.13,30.63 -7.01,32.74 -0.39,0.28 -0.77,0.55 -1.22,0.78 1.5,-4.17 2.76,-11.94 3.36,-27.57 1.06,-27.37 0.11,-78.84 -0.85,-105.62 -0.96,-26.79 -1.93,-28.91 -2.99,-30.07 -1.05,-1.14 -2.2,-1.32 -35.81,-7.19 -33.61,-5.86 -99.67,-17.38 -134.14,-23.44 -29.4,-5.16 -35.82,-6.33 -38.57,-6.56 0.99,-5.8 2.25,-6.01 3.68,-6.01 2.4,0 5.27,0.57 39.75,6.62zm-49.7 -345.74c1.09,-2.89 2.25,-3.9 3.29,-4.74 3.06,-2.49 4.98,-3.44 8.82,-3.36 3.85,0.1 9.6,1.26 40.34,8.65 30.72,7.39 86.41,21.02 114.64,28.52 28.23,7.49 29.01,8.83 30.16,13.62 1.15,4.81 2.69,13.07 5.76,62.9 3.08,49.84 7.69,141.26 8.84,187.35 1.15,46.09 -1.15,46.86 -3.65,47.25 -0.49,0.08 -1,0.14 -1.76,0.14 0.8,-5.78 1.14,-17.49 0.55,-41.44 -1.15,-46.09 -5.77,-137.51 -8.85,-187.35 -3.06,-49.83 -4.6,-58.09 -5.76,-62.9 -1.15,-4.79 -1.92,-6.13 -30.15,-13.62 -28.24,-7.5 -83.92,-21.13 -114.65,-28.52 -30.73,-7.39 -36.48,-8.55 -40.33,-8.65 -3.14,-0.07 -5,0.56 -7.25,2.15z"/>
   <path class="fil7" d="M1988.98 1494.27c3.79,-8.02 8.66,-18.47 10.64,-29.2 1.98,-10.71 1.08,-21.71 1.89,-31.35 0.81,-9.64 3.33,-17.93 9.73,-25.86 6.4,-7.93 16.67,-15.5 22.71,-21.81 6.04,-6.3 7.84,-11.35 10,-17.84 2.16,-6.49 4.68,-14.41 10.98,-21.08 6.31,-6.67 16.41,-12.07 25.6,-18.02 9.19,-5.94 17.48,-12.43 22.44,-17.93 4.95,-5.5 6.57,-10 17.66,-13.43 11.08,-3.42 31.62,-5.76 49.46,-7.12 17.84,-1.34 32.98,-1.7 41.27,0.46 8.29,2.16 9.73,6.85 13.06,11.71 3.34,4.87 8.57,9.91 12.8,14.33 4.23,4.42 7.48,8.2 9.91,11.17 2.43,2.98 4.05,5.13 6.49,5.22 2.43,0.1 5.67,-1.89 9.18,-4.5 3.52,-2.61 7.31,-5.85 13.88,-4.14 6.58,1.71 15.95,8.38 23.51,12.88 7.58,4.51 13.34,6.85 24.52,12.17 11.17,5.31 27.75,13.6 31.26,21.8 3.51,8.2 -6.03,16.31 -24.78,27.39 -18.74,11.09 -46.67,25.14 -69.47,37.57 -22.79,12.44 -40.45,23.25 -54.78,31.9 -14.32,8.65 -25.32,15.14 -41.27,20.45 -15.94,5.32 -36.85,9.46 -64.06,12.16 -27.2,2.71 -60.73,3.97 -82.08,5.77 -21.36,1.81 -30.54,4.15 -33.79,2.53 -3.24,-1.63 -0.54,-7.22 3.24,-15.23z"/>
   <path class="fil10" d="M2019.69 1457.5c-0.08,-5.85 -0.8,-11.98 -0.53,-17.83 0.27,-5.86 1.53,-11.45 6.93,-17.03 5.41,-5.58 14.96,-11.17 21.71,-17.12 6.76,-5.95 10.73,-12.25 13.16,-20.27 2.43,-8.02 3.34,-17.75 4.87,-23.25 1.53,-5.49 3.69,-6.76 7.2,-8.92 3.52,-2.16 8.39,-5.22 13.62,-9.19 5.22,-3.96 10.81,-8.83 15.4,-13.79 4.6,-4.95 8.2,-9.99 12.88,-13.96 4.69,-3.96 10.46,-6.85 19.82,-8.74 9.37,-1.89 22.35,-2.79 32.89,-3.25 10.54,-0.45 18.66,-0.45 24.24,-0.45 5.59,0 8.65,0 7.93,0.81 -0.72,0.81 -5.22,2.44 -12.79,4.78 -7.57,2.34 -18.21,5.4 -26.86,8.74 -8.65,3.33 -15.31,6.94 -19.73,11.62 -4.41,4.69 -6.57,10.46 -8.64,14.51 -2.08,4.06 -4.06,6.4 -2.44,9.29 1.62,2.88 6.85,6.3 15.13,8.46 8.29,2.17 19.65,3.06 29.83,3.78 10.18,0.73 19.19,1.26 17.39,4.06 -1.8,2.79 -14.42,7.84 -28.39,13.06 -13.96,5.23 -29.27,10.64 -40.45,16.94 -11.17,6.31 -18.19,13.52 -20.27,20.18 -2.07,6.67 0.81,12.8 4.96,17.48 4.14,4.69 9.54,7.94 17.65,8.57 8.12,0.63 18.92,-1.36 28.56,-3.25 9.65,-1.89 18.12,-3.69 23.44,-4.68 5.31,-0.99 7.47,-1.18 1.7,2.7 -5.76,3.88 -19.46,11.8 -28.02,17.39 -8.55,5.59 -11.97,8.83 -20.62,11.17 -8.65,2.34 -22.54,3.79 -40.83,5.05 -18.29,1.26 -40.99,2.34 -55.67,3.77 -14.68,1.44 -21.33,3.23 -22.51,2.69 -1.17,-0.54 3.15,-3.41 5.57,-7.64 2.43,-4.23 2.96,-9.82 2.87,-15.68z"/>
   <path class="fil10" d="M2245.48 1343.84c8.16,-3.88 14.73,-7.03 19.69,-9.2 4.95,-2.16 8.29,-3.33 13.15,-1.93 4.87,1.4 11.27,5.36 16.26,8.33 5.01,2.98 8.62,4.96 12.53,7.39 3.93,2.43 8.16,5.32 10.05,6.67 1.89,1.35 1.44,1.17 -1.63,0 -3.06,-1.17 -8.73,-3.33 -14.54,-5.5 -5.82,-2.16 -11.76,-4.32 -18.7,-4.86 -6.94,-0.55 -14.87,0.54 -22.8,1.98 -7.93,1.44 -15.85,3.24 -22.8,5 -6.93,1.76 -12.88,3.47 -10.99,2.03 1.89,-1.44 11.63,-6.04 19.78,-9.91z"/>
   <path class="fil0" d="M2014.25 1476.67c1.5,-1.24 2.96,-2.53 4.18,-3.76 2.88,-2.91 4.33,-5.38 4.9,-9.76 0.57,-4.39 0.27,-10.69 0.8,-17 0.54,-6.31 1.93,-12.62 4.18,-17.06 2.26,-4.45 5.38,-7.03 10.34,-10.49 4.95,-3.45 11.74,-7.77 16.42,-11.89 4.69,-4.12 7.27,-8.02 9.16,-12.2 1.9,-4.17 3.09,-8.61 3.81,-13.54 0.73,-4.93 0.97,-10.33 2.14,-14.47 1.17,-4.15 3.28,-7.03 6.81,-10.1 3.55,-3.06 8.54,-6.3 14.15,-11.23 5.62,-4.92 11.86,-11.53 17,-16.78 5.14,-5.26 9.16,-9.17 16.1,-13.11 6.53,-3.7 15.64,-7.43 23.32,-9.73 -4.59,0.47 -8.99,1.08 -12.81,1.85 -9.36,1.89 -15.13,4.78 -19.82,8.74 -4.68,3.97 -8.28,9.01 -12.88,13.96 -4.59,4.96 -10.18,9.83 -15.4,13.79 -5.23,3.97 -10.1,7.03 -13.62,9.19 -3.51,2.16 -5.67,3.43 -7.2,8.92 -1.53,5.5 -2.44,15.23 -4.87,23.25 -2.43,8.02 -6.4,14.32 -13.16,20.27 -6.75,5.95 -16.3,11.54 -21.71,17.12 -5.4,5.58 -6.66,11.17 -6.93,17.03 -0.27,5.85 0.45,11.98 0.53,17.83 0.09,5.86 -0.44,11.45 -2.87,15.68 -0.75,1.3 -1.68,2.47 -2.57,3.49z"/>
  </g>
 </g>
</svg>
